%TF.GenerationSoftware,KiCad,Pcbnew,(6.0.8)*%
%TF.CreationDate,2022-11-30T15:49:30-05:00*%
%TF.ProjectId,mushroomDataloggerProject,6d757368-726f-46f6-9d44-6174616c6f67,rev?*%
%TF.SameCoordinates,Original*%
%TF.FileFunction,Paste,Top*%
%TF.FilePolarity,Positive*%
%FSLAX46Y46*%
G04 Gerber Fmt 4.6, Leading zero omitted, Abs format (unit mm)*
G04 Created by KiCad (PCBNEW (6.0.8)) date 2022-11-30 15:49:30*
%MOMM*%
%LPD*%
G01*
G04 APERTURE LIST*
G04 Aperture macros list*
%AMRoundRect*
0 Rectangle with rounded corners*
0 $1 Rounding radius*
0 $2 $3 $4 $5 $6 $7 $8 $9 X,Y pos of 4 corners*
0 Add a 4 corners polygon primitive as box body*
4,1,4,$2,$3,$4,$5,$6,$7,$8,$9,$2,$3,0*
0 Add four circle primitives for the rounded corners*
1,1,$1+$1,$2,$3*
1,1,$1+$1,$4,$5*
1,1,$1+$1,$6,$7*
1,1,$1+$1,$8,$9*
0 Add four rect primitives between the rounded corners*
20,1,$1+$1,$2,$3,$4,$5,0*
20,1,$1+$1,$4,$5,$6,$7,0*
20,1,$1+$1,$6,$7,$8,$9,0*
20,1,$1+$1,$8,$9,$2,$3,0*%
G04 Aperture macros list end*
%ADD10C,0.100000*%
%ADD11R,0.400000X0.400000*%
%ADD12R,0.812800X1.498600*%
%ADD13R,1.498600X0.812800*%
%ADD14R,4.800600X4.800600*%
%ADD15RoundRect,0.250000X-0.262500X-0.450000X0.262500X-0.450000X0.262500X0.450000X-0.262500X0.450000X0*%
%ADD16R,4.495800X3.810000*%
%ADD17R,1.000000X5.500000*%
%ADD18R,1.700000X3.100000*%
%ADD19R,0.800000X2.000000*%
%ADD20R,1.800000X1.400000*%
%ADD21R,1.400000X1.900000*%
%ADD22RoundRect,0.250000X-0.250000X-0.475000X0.250000X-0.475000X0.250000X0.475000X-0.250000X0.475000X0*%
%ADD23R,0.762000X0.406400*%
%ADD24R,1.346200X1.752600*%
%ADD25RoundRect,0.250000X-0.475000X0.250000X-0.475000X-0.250000X0.475000X-0.250000X0.475000X0.250000X0*%
%ADD26RoundRect,0.250000X0.250000X0.475000X-0.250000X0.475000X-0.250000X-0.475000X0.250000X-0.475000X0*%
%ADD27RoundRect,0.150000X0.875000X0.150000X-0.875000X0.150000X-0.875000X-0.150000X0.875000X-0.150000X0*%
%ADD28R,1.066800X0.254000*%
%ADD29RoundRect,0.243750X0.243750X0.456250X-0.243750X0.456250X-0.243750X-0.456250X0.243750X-0.456250X0*%
%ADD30RoundRect,0.150000X-0.512500X-0.150000X0.512500X-0.150000X0.512500X0.150000X-0.512500X0.150000X0*%
G04 APERTURE END LIST*
%TO.C,U6*%
G36*
X176065100Y-31464900D02*
G01*
X174664900Y-31464900D01*
X174664900Y-30064700D01*
X176065100Y-30064700D01*
X176065100Y-31464900D01*
G37*
D10*
X176065100Y-31464900D02*
X174664900Y-31464900D01*
X174664900Y-30064700D01*
X176065100Y-30064700D01*
X176065100Y-31464900D01*
G36*
X174464900Y-34665300D02*
G01*
X173064700Y-34665300D01*
X173064700Y-33265100D01*
X174464900Y-33265100D01*
X174464900Y-34665300D01*
G37*
X174464900Y-34665300D02*
X173064700Y-34665300D01*
X173064700Y-33265100D01*
X174464900Y-33265100D01*
X174464900Y-34665300D01*
G36*
X177665300Y-31464900D02*
G01*
X176265100Y-31464900D01*
X176265100Y-30064700D01*
X177665300Y-30064700D01*
X177665300Y-31464900D01*
G37*
X177665300Y-31464900D02*
X176265100Y-31464900D01*
X176265100Y-30064700D01*
X177665300Y-30064700D01*
X177665300Y-31464900D01*
G36*
X176065100Y-34665300D02*
G01*
X174664900Y-34665300D01*
X174664900Y-33265100D01*
X176065100Y-33265100D01*
X176065100Y-34665300D01*
G37*
X176065100Y-34665300D02*
X174664900Y-34665300D01*
X174664900Y-33265100D01*
X176065100Y-33265100D01*
X176065100Y-34665300D01*
G36*
X177665300Y-33065100D02*
G01*
X176265100Y-33065100D01*
X176265100Y-31664900D01*
X177665300Y-31664900D01*
X177665300Y-33065100D01*
G37*
X177665300Y-33065100D02*
X176265100Y-33065100D01*
X176265100Y-31664900D01*
X177665300Y-31664900D01*
X177665300Y-33065100D01*
G36*
X174464900Y-31464900D02*
G01*
X173064700Y-31464900D01*
X173064700Y-30064700D01*
X174464900Y-30064700D01*
X174464900Y-31464900D01*
G37*
X174464900Y-31464900D02*
X173064700Y-31464900D01*
X173064700Y-30064700D01*
X174464900Y-30064700D01*
X174464900Y-31464900D01*
G36*
X177665300Y-34665300D02*
G01*
X176265100Y-34665300D01*
X176265100Y-33265100D01*
X177665300Y-33265100D01*
X177665300Y-34665300D01*
G37*
X177665300Y-34665300D02*
X176265100Y-34665300D01*
X176265100Y-33265100D01*
X177665300Y-33265100D01*
X177665300Y-34665300D01*
G36*
X174464900Y-33065100D02*
G01*
X173064700Y-33065100D01*
X173064700Y-31664900D01*
X174464900Y-31664900D01*
X174464900Y-33065100D01*
G37*
X174464900Y-33065100D02*
X173064700Y-33065100D01*
X173064700Y-31664900D01*
X174464900Y-31664900D01*
X174464900Y-33065100D01*
G36*
X176065100Y-33065100D02*
G01*
X174664900Y-33065100D01*
X174664900Y-31664900D01*
X176065100Y-31664900D01*
X176065100Y-33065100D01*
G37*
X176065100Y-33065100D02*
X174664900Y-33065100D01*
X174664900Y-31664900D01*
X176065100Y-31664900D01*
X176065100Y-33065100D01*
%TD*%
D11*
%TO.C,U4*%
X189200000Y-32300000D03*
X189200000Y-33100000D03*
X189200000Y-33900000D03*
X189200000Y-34700000D03*
X186800000Y-34700000D03*
X186800000Y-33900000D03*
X186800000Y-33100000D03*
X186800000Y-32300000D03*
%TD*%
D12*
%TO.C,U6*%
X177865000Y-28365000D03*
X176615000Y-28365000D03*
X175365000Y-28365000D03*
X174115000Y-28365000D03*
X172865000Y-28365000D03*
D13*
X171365000Y-29865000D03*
X171365000Y-31115000D03*
X171365000Y-32365000D03*
X171365000Y-33615000D03*
X171365000Y-34865000D03*
D12*
X172865000Y-36365000D03*
X174115000Y-36365000D03*
X175365000Y-36365000D03*
X176615000Y-36365000D03*
X177865000Y-36365000D03*
D13*
X179365000Y-34865000D03*
X179365000Y-33615000D03*
X179365000Y-32365000D03*
X179365000Y-31115000D03*
X179365000Y-29865000D03*
D14*
X175365000Y-32365000D03*
%TD*%
D15*
%TO.C,R2*%
X173037500Y-48510000D03*
X174862500Y-48510000D03*
%TD*%
D16*
%TO.C,BT1*%
X130346000Y-22806598D03*
X130346000Y-52103008D03*
%TD*%
D17*
%TO.C,Sensor Extension*%
X83000000Y-47000000D03*
X85000000Y-47000000D03*
X87000000Y-47000000D03*
X89000000Y-47000000D03*
X91000000Y-47000000D03*
D18*
X93450000Y-49200000D03*
X80550000Y-49200000D03*
%TD*%
D15*
%TO.C,R11*%
X149087500Y-36500000D03*
X150912500Y-36500000D03*
%TD*%
%TO.C,R9*%
X146037500Y-30000000D03*
X147862500Y-30000000D03*
%TD*%
D19*
%TO.C,SD Card*%
X84060000Y-24775000D03*
X85160000Y-25175000D03*
X86260000Y-24775000D03*
X87360000Y-24575000D03*
X88460000Y-24775000D03*
X89560000Y-24575000D03*
X90660000Y-24775000D03*
X91760000Y-24775000D03*
D20*
X90950000Y-35325000D03*
X85250000Y-35325000D03*
D21*
X92550000Y-22175000D03*
X79400000Y-21175000D03*
%TD*%
D15*
%TO.C,R8*%
X96587500Y-24000000D03*
X98412500Y-24000000D03*
%TD*%
D22*
%TO.C,C2*%
X173000000Y-50510000D03*
X174900000Y-50510000D03*
%TD*%
D23*
%TO.C,U7*%
X172806200Y-42699999D03*
X172806200Y-43500000D03*
X172806200Y-44300001D03*
X175193800Y-44300001D03*
X175193800Y-43500000D03*
X175193800Y-42699999D03*
D24*
X174000000Y-43500000D03*
%TD*%
D22*
%TO.C,C3*%
X109550000Y-38500000D03*
X111450000Y-38500000D03*
%TD*%
D15*
%TO.C,R12*%
X149087500Y-40000000D03*
X150912500Y-40000000D03*
%TD*%
D25*
%TO.C,C8*%
X179000000Y-22050000D03*
X179000000Y-23950000D03*
%TD*%
D22*
%TO.C,C4*%
X187050000Y-40500000D03*
X188950000Y-40500000D03*
%TD*%
D26*
%TO.C,C7*%
X156400000Y-28000000D03*
X154500000Y-28000000D03*
%TD*%
D27*
%TO.C,RTC*%
X106650000Y-39445000D03*
X106650000Y-38175000D03*
X106650000Y-36905000D03*
X106650000Y-35635000D03*
X106650000Y-34365000D03*
X106650000Y-33095000D03*
X106650000Y-31825000D03*
X106650000Y-30555000D03*
X97350000Y-30555000D03*
X97350000Y-31825000D03*
X97350000Y-33095000D03*
X97350000Y-34365000D03*
X97350000Y-35635000D03*
X97350000Y-36905000D03*
X97350000Y-38175000D03*
X97350000Y-39445000D03*
%TD*%
D25*
%TO.C,C10*%
X172000000Y-22050000D03*
X172000000Y-23950000D03*
%TD*%
D26*
%TO.C,C6*%
X188950000Y-47500000D03*
X187050000Y-47500000D03*
%TD*%
%TO.C,C1*%
X156400000Y-30000000D03*
X154500000Y-30000000D03*
%TD*%
D28*
%TO.C,U3*%
X187166100Y-43850014D03*
X187166100Y-44500000D03*
X187166100Y-45149986D03*
X188817100Y-45149986D03*
X188817100Y-44500000D03*
X188817100Y-43850014D03*
%TD*%
D29*
%TO.C,D1*%
X98437500Y-26000000D03*
X96562500Y-26000000D03*
%TD*%
D30*
%TO.C,U5*%
X154312500Y-22550000D03*
X154312500Y-23500000D03*
X154312500Y-24450000D03*
X156587500Y-24450000D03*
X156587500Y-22550000D03*
%TD*%
D29*
%TO.C,D2*%
X147887500Y-28000000D03*
X146012500Y-28000000D03*
%TD*%
D22*
%TO.C,C5*%
X187050000Y-38500000D03*
X188950000Y-38500000D03*
%TD*%
%TO.C,C11*%
X173000000Y-46500000D03*
X174900000Y-46500000D03*
%TD*%
D15*
%TO.C,R1*%
X109587500Y-35500000D03*
X111412500Y-35500000D03*
%TD*%
D25*
%TO.C,C9*%
X175500000Y-22050000D03*
X175500000Y-23950000D03*
%TD*%
M02*
