%TF.GenerationSoftware,KiCad,Pcbnew,(6.0.8)*%
%TF.CreationDate,2022-11-30T15:49:30-05:00*%
%TF.ProjectId,mushroomDataloggerProject,6d757368-726f-46f6-9d44-6174616c6f67,rev?*%
%TF.SameCoordinates,Original*%
%TF.FileFunction,Legend,Top*%
%TF.FilePolarity,Positive*%
%FSLAX46Y46*%
G04 Gerber Fmt 4.6, Leading zero omitted, Abs format (unit mm)*
G04 Created by KiCad (PCBNEW (6.0.8)) date 2022-11-30 15:49:30*
%MOMM*%
%LPD*%
G01*
G04 APERTURE LIST*
%ADD10C,0.150000*%
%ADD11C,0.254000*%
%ADD12C,0.127000*%
%ADD13C,0.200000*%
%ADD14C,0.120000*%
%ADD15C,0.100000*%
%ADD16C,0.400000*%
G04 APERTURE END LIST*
D10*
%TO.C,U4*%
X187020060Y-30755043D02*
X187020060Y-31264979D01*
X187050056Y-31324971D01*
X187080052Y-31354968D01*
X187140045Y-31384964D01*
X187260030Y-31384964D01*
X187320022Y-31354968D01*
X187350018Y-31324971D01*
X187380015Y-31264979D01*
X187380015Y-30755043D01*
X187949943Y-30965016D02*
X187949943Y-31384964D01*
X187799962Y-30725047D02*
X187649981Y-31174990D01*
X188039932Y-31174990D01*
X187000188Y-29955005D02*
X187090176Y-29985001D01*
X187120173Y-30014998D01*
X187150169Y-30074990D01*
X187150169Y-30164979D01*
X187120173Y-30224971D01*
X187090176Y-30254968D01*
X187030184Y-30284964D01*
X186790214Y-30284964D01*
X186790214Y-29655043D01*
X187000188Y-29655043D01*
X187060180Y-29685039D01*
X187090176Y-29715035D01*
X187120173Y-29775028D01*
X187120173Y-29835020D01*
X187090176Y-29895013D01*
X187060180Y-29925009D01*
X187000188Y-29955005D01*
X186790214Y-29955005D01*
X187420135Y-30284964D02*
X187420135Y-29655043D01*
X187630109Y-30104986D01*
X187840082Y-29655043D01*
X187840082Y-30284964D01*
X188140045Y-29955005D02*
X188350018Y-29955005D01*
X188440007Y-30284964D02*
X188140045Y-30284964D01*
X188140045Y-29655043D01*
X188440007Y-29655043D01*
X188979939Y-29655043D02*
X188859954Y-29655043D01*
X188799962Y-29685039D01*
X188769966Y-29715035D01*
X188709973Y-29805024D01*
X188679977Y-29925009D01*
X188679977Y-30164979D01*
X188709973Y-30224971D01*
X188739969Y-30254968D01*
X188799962Y-30284964D01*
X188919947Y-30284964D01*
X188979939Y-30254968D01*
X189009936Y-30224971D01*
X189039932Y-30164979D01*
X189039932Y-30014998D01*
X189009936Y-29955005D01*
X188979939Y-29925009D01*
X188919947Y-29895013D01*
X188799962Y-29895013D01*
X188739969Y-29925009D01*
X188709973Y-29955005D01*
X188679977Y-30014998D01*
X189399887Y-29925009D02*
X189339894Y-29895013D01*
X189309898Y-29865016D01*
X189279902Y-29805024D01*
X189279902Y-29775028D01*
X189309898Y-29715035D01*
X189339894Y-29685039D01*
X189399887Y-29655043D01*
X189519872Y-29655043D01*
X189579864Y-29685039D01*
X189609860Y-29715035D01*
X189639857Y-29775028D01*
X189639857Y-29805024D01*
X189609860Y-29865016D01*
X189579864Y-29895013D01*
X189519872Y-29925009D01*
X189399887Y-29925009D01*
X189339894Y-29955005D01*
X189309898Y-29985001D01*
X189279902Y-30044994D01*
X189279902Y-30164979D01*
X189309898Y-30224971D01*
X189339894Y-30254968D01*
X189399887Y-30284964D01*
X189519872Y-30284964D01*
X189579864Y-30254968D01*
X189609860Y-30224971D01*
X189639857Y-30164979D01*
X189639857Y-30044994D01*
X189609860Y-29985001D01*
X189579864Y-29955005D01*
X189519872Y-29925009D01*
X189999811Y-29925009D02*
X189939819Y-29895013D01*
X189909823Y-29865016D01*
X189879826Y-29805024D01*
X189879826Y-29775028D01*
X189909823Y-29715035D01*
X189939819Y-29685039D01*
X189999811Y-29655043D01*
X190119796Y-29655043D01*
X190179789Y-29685039D01*
X190209785Y-29715035D01*
X190239781Y-29775028D01*
X190239781Y-29805024D01*
X190209785Y-29865016D01*
X190179789Y-29895013D01*
X190119796Y-29925009D01*
X189999811Y-29925009D01*
X189939819Y-29955005D01*
X189909823Y-29985001D01*
X189879826Y-30044994D01*
X189879826Y-30164979D01*
X189909823Y-30224971D01*
X189939819Y-30254968D01*
X189999811Y-30284964D01*
X190119796Y-30284964D01*
X190179789Y-30254968D01*
X190209785Y-30224971D01*
X190239781Y-30164979D01*
X190239781Y-30044994D01*
X190209785Y-29985001D01*
X190179789Y-29955005D01*
X190119796Y-29925009D01*
%TO.C,U1*%
X47452380Y-37261904D02*
X48261904Y-37261904D01*
X48357142Y-37214285D01*
X48404761Y-37166666D01*
X48452380Y-37071428D01*
X48452380Y-36880952D01*
X48404761Y-36785714D01*
X48357142Y-36738095D01*
X48261904Y-36690476D01*
X47452380Y-36690476D01*
X48452380Y-35690476D02*
X48452380Y-36261904D01*
X48452380Y-35976190D02*
X47452380Y-35976190D01*
X47595238Y-36071428D01*
X47690476Y-36166666D01*
X47738095Y-36261904D01*
X54498155Y-50013841D02*
X54525093Y-50094653D01*
X54605905Y-50175465D01*
X54713654Y-50229340D01*
X54821404Y-50229340D01*
X54902216Y-50202402D01*
X55036903Y-50121590D01*
X55117715Y-50040778D01*
X55198528Y-49906091D01*
X55225465Y-49825279D01*
X55225465Y-49717529D01*
X55171590Y-49609780D01*
X55117715Y-49555905D01*
X55009966Y-49502030D01*
X54956091Y-49502030D01*
X54767529Y-49690592D01*
X54875279Y-49798341D01*
X54767529Y-49205719D02*
X54201844Y-49771404D01*
X54444280Y-48882470D01*
X53878595Y-49448155D01*
X54174906Y-48613096D02*
X53609221Y-49178781D01*
X53474534Y-49044094D01*
X53420659Y-48936345D01*
X53420659Y-48828595D01*
X53447597Y-48747783D01*
X53528409Y-48613096D01*
X53609221Y-48532284D01*
X53743908Y-48451471D01*
X53824720Y-48424534D01*
X53932470Y-48424534D01*
X54040219Y-48478409D01*
X54174906Y-48613096D01*
X74523809Y-44009523D02*
X74561904Y-43895238D01*
X74561904Y-43704761D01*
X74523809Y-43628571D01*
X74485714Y-43590476D01*
X74409523Y-43552380D01*
X74333333Y-43552380D01*
X74257142Y-43590476D01*
X74219047Y-43628571D01*
X74180952Y-43704761D01*
X74142857Y-43857142D01*
X74104761Y-43933333D01*
X74066666Y-43971428D01*
X73990476Y-44009523D01*
X73914285Y-44009523D01*
X73838095Y-43971428D01*
X73800000Y-43933333D01*
X73761904Y-43857142D01*
X73761904Y-43666666D01*
X73800000Y-43552380D01*
X73761904Y-43285714D02*
X74561904Y-43095238D01*
X73990476Y-42942857D01*
X74561904Y-42790476D01*
X73761904Y-42600000D01*
X74485714Y-41838095D02*
X74523809Y-41876190D01*
X74561904Y-41990476D01*
X74561904Y-42066666D01*
X74523809Y-42180952D01*
X74447619Y-42257142D01*
X74371428Y-42295238D01*
X74219047Y-42333333D01*
X74104761Y-42333333D01*
X73952380Y-42295238D01*
X73876190Y-42257142D01*
X73800000Y-42180952D01*
X73761904Y-42066666D01*
X73761904Y-41990476D01*
X73800000Y-41876190D01*
X73838095Y-41838095D01*
X74561904Y-41114285D02*
X74561904Y-41495238D01*
X73761904Y-41495238D01*
X74561904Y-40847619D02*
X73761904Y-40847619D01*
X74561904Y-40390476D02*
X74104761Y-40733333D01*
X73761904Y-40390476D02*
X74219047Y-40847619D01*
X49943435Y-23661624D02*
X49862622Y-24119560D01*
X50266683Y-23984873D02*
X49700998Y-24550558D01*
X49485499Y-24335059D01*
X49458561Y-24254247D01*
X49458561Y-24200372D01*
X49485499Y-24119560D01*
X49566311Y-24038748D01*
X49647123Y-24011810D01*
X49700998Y-24011810D01*
X49781810Y-24038748D01*
X49997309Y-24254247D01*
X49135312Y-23984873D02*
X49593248Y-23526937D01*
X49620186Y-23446125D01*
X49620186Y-23392250D01*
X49593248Y-23311438D01*
X49485499Y-23203688D01*
X49404687Y-23176751D01*
X49350812Y-23176751D01*
X49270000Y-23203688D01*
X48812064Y-23661624D01*
X49108375Y-22826564D02*
X48542690Y-23392250D01*
X48785126Y-22503316D01*
X48219441Y-23069001D01*
X72520592Y-50510277D02*
X72547529Y-50591089D01*
X72628341Y-50671902D01*
X72736091Y-50725776D01*
X72843841Y-50725776D01*
X72924653Y-50698839D01*
X73059340Y-50618027D01*
X73140152Y-50537215D01*
X73220964Y-50402528D01*
X73247902Y-50321715D01*
X73247902Y-50213966D01*
X73194027Y-50106216D01*
X73140152Y-50052341D01*
X73032402Y-49998467D01*
X72978528Y-49998467D01*
X72789966Y-50187028D01*
X72897715Y-50294778D01*
X72789966Y-49702155D02*
X72224280Y-50267841D01*
X72008781Y-50052341D01*
X71981844Y-49971529D01*
X71981844Y-49917654D01*
X72008781Y-49836842D01*
X72089593Y-49756030D01*
X72170406Y-49729093D01*
X72224280Y-49729093D01*
X72305093Y-49756030D01*
X72520592Y-49971529D01*
X71927969Y-48840158D02*
X72251218Y-49163407D01*
X72089593Y-49001783D02*
X71523908Y-49567468D01*
X71658595Y-49540531D01*
X71766345Y-49540531D01*
X71847157Y-49567468D01*
X70850473Y-48894033D02*
X71119847Y-49163407D01*
X71416158Y-48920971D01*
X71362284Y-48920971D01*
X71281471Y-48894033D01*
X71146784Y-48759346D01*
X71119847Y-48678534D01*
X71119847Y-48624659D01*
X71146784Y-48543847D01*
X71281471Y-48409160D01*
X71362284Y-48382223D01*
X71416158Y-48382223D01*
X71496971Y-48409160D01*
X71631658Y-48543847D01*
X71658595Y-48624659D01*
X71658595Y-48678534D01*
X51931218Y-49986903D02*
X51958155Y-50067715D01*
X52038967Y-50148528D01*
X52146717Y-50202402D01*
X52254467Y-50202402D01*
X52335279Y-50175465D01*
X52469966Y-50094653D01*
X52550778Y-50013841D01*
X52631590Y-49879154D01*
X52658528Y-49798341D01*
X52658528Y-49690592D01*
X52604653Y-49582842D01*
X52550778Y-49528967D01*
X52443028Y-49475093D01*
X52389154Y-49475093D01*
X52200592Y-49663654D01*
X52308341Y-49771404D01*
X52200592Y-49178781D02*
X51634906Y-49744467D01*
X51419407Y-49528967D01*
X51392470Y-49448155D01*
X51392470Y-49394280D01*
X51419407Y-49313468D01*
X51500219Y-49232656D01*
X51581032Y-49205719D01*
X51634906Y-49205719D01*
X51715719Y-49232656D01*
X51931218Y-49448155D01*
X51607969Y-48586158D02*
X51500219Y-48478409D01*
X51419407Y-48451471D01*
X51365532Y-48451471D01*
X51230845Y-48478409D01*
X51096158Y-48559221D01*
X50880659Y-48774720D01*
X50853722Y-48855532D01*
X50853722Y-48909407D01*
X50880659Y-48990219D01*
X50988409Y-49097969D01*
X51069221Y-49124906D01*
X51123096Y-49124906D01*
X51203908Y-49097969D01*
X51338595Y-48963282D01*
X51365532Y-48882470D01*
X51365532Y-48828595D01*
X51338595Y-48747783D01*
X51230845Y-48640033D01*
X51150033Y-48613096D01*
X51096158Y-48613096D01*
X51015346Y-48640033D01*
X74523809Y-32595238D02*
X74561904Y-32480952D01*
X74561904Y-32290476D01*
X74523809Y-32214285D01*
X74485714Y-32176190D01*
X74409523Y-32138095D01*
X74333333Y-32138095D01*
X74257142Y-32176190D01*
X74219047Y-32214285D01*
X74180952Y-32290476D01*
X74142857Y-32442857D01*
X74104761Y-32519047D01*
X74066666Y-32557142D01*
X73990476Y-32595238D01*
X73914285Y-32595238D01*
X73838095Y-32557142D01*
X73800000Y-32519047D01*
X73761904Y-32442857D01*
X73761904Y-32252380D01*
X73800000Y-32138095D01*
X73761904Y-31871428D02*
X74561904Y-31680952D01*
X73990476Y-31528571D01*
X74561904Y-31376190D01*
X73761904Y-31185714D01*
X74561904Y-30880952D02*
X73761904Y-30880952D01*
X73761904Y-30690476D01*
X73800000Y-30576190D01*
X73876190Y-30500000D01*
X73952380Y-30461904D01*
X74104761Y-30423809D01*
X74219047Y-30423809D01*
X74371428Y-30461904D01*
X74447619Y-30500000D01*
X74523809Y-30576190D01*
X74561904Y-30690476D01*
X74561904Y-30880952D01*
X74561904Y-30080952D02*
X73761904Y-30080952D01*
X73761904Y-29547619D02*
X73761904Y-29395238D01*
X73800000Y-29319047D01*
X73876190Y-29242857D01*
X74028571Y-29204761D01*
X74295238Y-29204761D01*
X74447619Y-29242857D01*
X74523809Y-29319047D01*
X74561904Y-29395238D01*
X74561904Y-29547619D01*
X74523809Y-29623809D01*
X74447619Y-29700000D01*
X74295238Y-29738095D01*
X74028571Y-29738095D01*
X73876190Y-29700000D01*
X73800000Y-29623809D01*
X73761904Y-29547619D01*
X29098155Y-50013841D02*
X29125093Y-50094653D01*
X29205905Y-50175465D01*
X29313654Y-50229340D01*
X29421404Y-50229340D01*
X29502216Y-50202402D01*
X29636903Y-50121590D01*
X29717715Y-50040778D01*
X29798528Y-49906091D01*
X29825465Y-49825279D01*
X29825465Y-49717529D01*
X29771590Y-49609780D01*
X29717715Y-49555905D01*
X29609966Y-49502030D01*
X29556091Y-49502030D01*
X29367529Y-49690592D01*
X29475279Y-49798341D01*
X29367529Y-49205719D02*
X28801844Y-49771404D01*
X29044280Y-48882470D01*
X28478595Y-49448155D01*
X28774906Y-48613096D02*
X28209221Y-49178781D01*
X28074534Y-49044094D01*
X28020659Y-48936345D01*
X28020659Y-48828595D01*
X28047597Y-48747783D01*
X28128409Y-48613096D01*
X28209221Y-48532284D01*
X28343908Y-48451471D01*
X28424720Y-48424534D01*
X28532470Y-48424534D01*
X28640219Y-48478409D01*
X28774906Y-48613096D01*
X31611218Y-50086903D02*
X31638155Y-50167715D01*
X31718967Y-50248528D01*
X31826717Y-50302402D01*
X31934467Y-50302402D01*
X32015279Y-50275465D01*
X32149966Y-50194653D01*
X32230778Y-50113841D01*
X32311590Y-49979154D01*
X32338528Y-49898341D01*
X32338528Y-49790592D01*
X32284653Y-49682842D01*
X32230778Y-49628967D01*
X32123028Y-49575093D01*
X32069154Y-49575093D01*
X31880592Y-49763654D01*
X31988341Y-49871404D01*
X31880592Y-49278781D02*
X31314906Y-49844467D01*
X31099407Y-49628967D01*
X31072470Y-49548155D01*
X31072470Y-49494280D01*
X31099407Y-49413468D01*
X31180219Y-49332656D01*
X31261032Y-49305719D01*
X31314906Y-49305719D01*
X31395719Y-49332656D01*
X31611218Y-49548155D01*
X30830033Y-49251844D02*
X30776158Y-49251844D01*
X30695346Y-49224906D01*
X30560659Y-49090219D01*
X30533722Y-49009407D01*
X30533722Y-48955532D01*
X30560659Y-48874720D01*
X30614534Y-48820845D01*
X30722284Y-48766971D01*
X31368781Y-48766971D01*
X31018595Y-48416784D01*
X62360592Y-50656277D02*
X62387529Y-50737089D01*
X62468341Y-50817902D01*
X62576091Y-50871776D01*
X62683841Y-50871776D01*
X62764653Y-50844839D01*
X62899340Y-50764027D01*
X62980152Y-50683215D01*
X63060964Y-50548528D01*
X63087902Y-50467715D01*
X63087902Y-50359966D01*
X63034027Y-50252216D01*
X62980152Y-50198341D01*
X62872402Y-50144467D01*
X62818528Y-50144467D01*
X62629966Y-50333028D01*
X62737715Y-50440778D01*
X62629966Y-49848155D02*
X62064280Y-50413841D01*
X61848781Y-50198341D01*
X61821844Y-50117529D01*
X61821844Y-50063654D01*
X61848781Y-49982842D01*
X61929593Y-49902030D01*
X62010406Y-49875093D01*
X62064280Y-49875093D01*
X62145093Y-49902030D01*
X62360592Y-50117529D01*
X61767969Y-48986158D02*
X62091218Y-49309407D01*
X61929593Y-49147783D02*
X61363908Y-49713468D01*
X61498595Y-49686531D01*
X61606345Y-49686531D01*
X61687157Y-49713468D01*
X61040659Y-49282470D02*
X60986784Y-49282470D01*
X60905972Y-49255532D01*
X60771285Y-49120845D01*
X60744348Y-49040033D01*
X60744348Y-48986158D01*
X60771285Y-48905346D01*
X60825160Y-48851471D01*
X60932910Y-48797597D01*
X61579407Y-48797597D01*
X61229221Y-48447410D01*
X36691218Y-49986903D02*
X36718155Y-50067715D01*
X36798967Y-50148528D01*
X36906717Y-50202402D01*
X37014467Y-50202402D01*
X37095279Y-50175465D01*
X37229966Y-50094653D01*
X37310778Y-50013841D01*
X37391590Y-49879154D01*
X37418528Y-49798341D01*
X37418528Y-49690592D01*
X37364653Y-49582842D01*
X37310778Y-49528967D01*
X37203028Y-49475093D01*
X37149154Y-49475093D01*
X36960592Y-49663654D01*
X37068341Y-49771404D01*
X36960592Y-49178781D02*
X36394906Y-49744467D01*
X36179407Y-49528967D01*
X36152470Y-49448155D01*
X36152470Y-49394280D01*
X36179407Y-49313468D01*
X36260219Y-49232656D01*
X36341032Y-49205719D01*
X36394906Y-49205719D01*
X36475719Y-49232656D01*
X36691218Y-49448155D01*
X35775346Y-48747783D02*
X36152470Y-48370659D01*
X35694534Y-49097969D02*
X36233282Y-48828595D01*
X35883096Y-48478409D01*
X29098155Y-24413841D02*
X29125093Y-24494653D01*
X29205905Y-24575465D01*
X29313654Y-24629340D01*
X29421404Y-24629340D01*
X29502216Y-24602402D01*
X29636903Y-24521590D01*
X29717715Y-24440778D01*
X29798528Y-24306091D01*
X29825465Y-24225279D01*
X29825465Y-24117529D01*
X29771590Y-24009780D01*
X29717715Y-23955905D01*
X29609966Y-23902030D01*
X29556091Y-23902030D01*
X29367529Y-24090592D01*
X29475279Y-24198341D01*
X29367529Y-23605719D02*
X28801844Y-24171404D01*
X29044280Y-23282470D01*
X28478595Y-23848155D01*
X28774906Y-23013096D02*
X28209221Y-23578781D01*
X28074534Y-23444094D01*
X28020659Y-23336345D01*
X28020659Y-23228595D01*
X28047597Y-23147783D01*
X28128409Y-23013096D01*
X28209221Y-22932284D01*
X28343908Y-22851471D01*
X28424720Y-22824534D01*
X28532470Y-22824534D01*
X28640219Y-22878409D01*
X28774906Y-23013096D01*
X37533773Y-24345211D02*
X37264399Y-24075837D01*
X37749272Y-24237462D02*
X36995025Y-24614585D01*
X37372149Y-23860338D01*
X37183587Y-23671776D02*
X36617902Y-24237462D01*
X36483215Y-24102775D01*
X36429340Y-23995025D01*
X36429340Y-23887276D01*
X36456277Y-23806463D01*
X36537089Y-23671776D01*
X36617902Y-23590964D01*
X36752589Y-23510152D01*
X36833401Y-23483215D01*
X36941150Y-23483215D01*
X37048900Y-23537089D01*
X37183587Y-23671776D01*
X36240778Y-22836717D02*
X36294653Y-22836717D01*
X36402402Y-22890592D01*
X36456277Y-22944467D01*
X36510152Y-23052216D01*
X36510152Y-23159966D01*
X36483215Y-23240778D01*
X36402402Y-23375465D01*
X36321590Y-23456277D01*
X36186903Y-23537089D01*
X36106091Y-23564027D01*
X35998341Y-23564027D01*
X35890592Y-23510152D01*
X35836717Y-23456277D01*
X35782842Y-23348528D01*
X35782842Y-23294653D01*
X36240778Y-22621218D02*
X35809780Y-22190219D01*
X35136345Y-22755905D02*
X35513468Y-22001658D01*
X34759221Y-22378781D01*
X34813096Y-21301285D02*
X34732284Y-21759221D01*
X35136345Y-21624534D02*
X34570659Y-22190219D01*
X34355160Y-21974720D01*
X34328223Y-21893908D01*
X34328223Y-21840033D01*
X34355160Y-21759221D01*
X34435972Y-21678409D01*
X34516784Y-21651471D01*
X34570659Y-21651471D01*
X34651471Y-21678409D01*
X34866971Y-21893908D01*
X34274348Y-21355160D02*
X34085786Y-21166598D01*
X34301285Y-20789475D02*
X34570659Y-21058849D01*
X34004974Y-21624534D01*
X33735600Y-21355160D01*
X33573975Y-20654788D02*
X33762537Y-20843349D01*
X34058849Y-20547038D02*
X33493163Y-21112723D01*
X33223789Y-20843349D01*
X42740964Y-24348402D02*
X42471590Y-24079028D01*
X42956463Y-24240653D02*
X42202216Y-24617776D01*
X42579340Y-23863529D01*
X41555719Y-23917404D02*
X41582656Y-23998216D01*
X41663468Y-24079028D01*
X41771218Y-24132903D01*
X41878967Y-24132903D01*
X41959780Y-24105966D01*
X42094467Y-24025154D01*
X42175279Y-23944341D01*
X42256091Y-23809654D01*
X42283028Y-23728842D01*
X42283028Y-23621093D01*
X42229154Y-23513343D01*
X42175279Y-23459468D01*
X42067529Y-23405593D01*
X42013654Y-23405593D01*
X41825093Y-23594155D01*
X41932842Y-23701905D01*
X41825093Y-23109282D02*
X41259407Y-23674967D01*
X41501844Y-22786033D01*
X40936158Y-23351719D01*
X41232470Y-22516659D02*
X40666784Y-23082345D01*
X40532097Y-22947658D01*
X40478223Y-22839908D01*
X40478223Y-22732158D01*
X40505160Y-22651346D01*
X40585972Y-22516659D01*
X40666784Y-22435847D01*
X40801471Y-22355035D01*
X40882284Y-22328097D01*
X40990033Y-22328097D01*
X41097783Y-22381972D01*
X41232470Y-22516659D01*
X26521218Y-50086903D02*
X26548155Y-50167715D01*
X26628967Y-50248528D01*
X26736717Y-50302402D01*
X26844467Y-50302402D01*
X26925279Y-50275465D01*
X27059966Y-50194653D01*
X27140778Y-50113841D01*
X27221590Y-49979154D01*
X27248528Y-49898341D01*
X27248528Y-49790592D01*
X27194653Y-49682842D01*
X27140778Y-49628967D01*
X27033028Y-49575093D01*
X26979154Y-49575093D01*
X26790592Y-49763654D01*
X26898341Y-49871404D01*
X26790592Y-49278781D02*
X26224906Y-49844467D01*
X26009407Y-49628967D01*
X25982470Y-49548155D01*
X25982470Y-49494280D01*
X26009407Y-49413468D01*
X26090219Y-49332656D01*
X26171032Y-49305719D01*
X26224906Y-49305719D01*
X26305719Y-49332656D01*
X26521218Y-49548155D01*
X25928595Y-48416784D02*
X26251844Y-48740033D01*
X26090219Y-48578409D02*
X25524534Y-49144094D01*
X25659221Y-49117157D01*
X25766971Y-49117157D01*
X25847783Y-49144094D01*
X59820592Y-50656277D02*
X59847529Y-50737089D01*
X59928341Y-50817902D01*
X60036091Y-50871776D01*
X60143841Y-50871776D01*
X60224653Y-50844839D01*
X60359340Y-50764027D01*
X60440152Y-50683215D01*
X60520964Y-50548528D01*
X60547902Y-50467715D01*
X60547902Y-50359966D01*
X60494027Y-50252216D01*
X60440152Y-50198341D01*
X60332402Y-50144467D01*
X60278528Y-50144467D01*
X60089966Y-50333028D01*
X60197715Y-50440778D01*
X60089966Y-49848155D02*
X59524280Y-50413841D01*
X59308781Y-50198341D01*
X59281844Y-50117529D01*
X59281844Y-50063654D01*
X59308781Y-49982842D01*
X59389593Y-49902030D01*
X59470406Y-49875093D01*
X59524280Y-49875093D01*
X59605093Y-49902030D01*
X59820592Y-50117529D01*
X59227969Y-48986158D02*
X59551218Y-49309407D01*
X59389593Y-49147783D02*
X58823908Y-49713468D01*
X58958595Y-49686531D01*
X59066345Y-49686531D01*
X59147157Y-49713468D01*
X58689221Y-48447410D02*
X59012470Y-48770659D01*
X58850845Y-48609035D02*
X58285160Y-49174720D01*
X58419847Y-49147783D01*
X58527597Y-49147783D01*
X58608409Y-49174720D01*
X44311218Y-49986903D02*
X44338155Y-50067715D01*
X44418967Y-50148528D01*
X44526717Y-50202402D01*
X44634467Y-50202402D01*
X44715279Y-50175465D01*
X44849966Y-50094653D01*
X44930778Y-50013841D01*
X45011590Y-49879154D01*
X45038528Y-49798341D01*
X45038528Y-49690592D01*
X44984653Y-49582842D01*
X44930778Y-49528967D01*
X44823028Y-49475093D01*
X44769154Y-49475093D01*
X44580592Y-49663654D01*
X44688341Y-49771404D01*
X44580592Y-49178781D02*
X44014906Y-49744467D01*
X43799407Y-49528967D01*
X43772470Y-49448155D01*
X43772470Y-49394280D01*
X43799407Y-49313468D01*
X43880219Y-49232656D01*
X43961032Y-49205719D01*
X44014906Y-49205719D01*
X44095719Y-49232656D01*
X44311218Y-49448155D01*
X43206784Y-48936345D02*
X43314534Y-49044094D01*
X43395346Y-49071032D01*
X43449221Y-49071032D01*
X43583908Y-49044094D01*
X43718595Y-48963282D01*
X43934094Y-48747783D01*
X43961032Y-48666971D01*
X43961032Y-48613096D01*
X43934094Y-48532284D01*
X43826345Y-48424534D01*
X43745532Y-48397597D01*
X43691658Y-48397597D01*
X43610845Y-48424534D01*
X43476158Y-48559221D01*
X43449221Y-48640033D01*
X43449221Y-48693908D01*
X43476158Y-48774720D01*
X43583908Y-48882470D01*
X43664720Y-48909407D01*
X43718595Y-48909407D01*
X43799407Y-48882470D01*
X67198155Y-50013841D02*
X67225093Y-50094653D01*
X67305905Y-50175465D01*
X67413654Y-50229340D01*
X67521404Y-50229340D01*
X67602216Y-50202402D01*
X67736903Y-50121590D01*
X67817715Y-50040778D01*
X67898528Y-49906091D01*
X67925465Y-49825279D01*
X67925465Y-49717529D01*
X67871590Y-49609780D01*
X67817715Y-49555905D01*
X67709966Y-49502030D01*
X67656091Y-49502030D01*
X67467529Y-49690592D01*
X67575279Y-49798341D01*
X67467529Y-49205719D02*
X66901844Y-49771404D01*
X67144280Y-48882470D01*
X66578595Y-49448155D01*
X66874906Y-48613096D02*
X66309221Y-49178781D01*
X66174534Y-49044094D01*
X66120659Y-48936345D01*
X66120659Y-48828595D01*
X66147597Y-48747783D01*
X66228409Y-48613096D01*
X66309221Y-48532284D01*
X66443908Y-48451471D01*
X66524720Y-48424534D01*
X66632470Y-48424534D01*
X66740219Y-48478409D01*
X66874906Y-48613096D01*
X34490592Y-24610152D02*
X34140406Y-24259966D01*
X34544467Y-24233028D01*
X34463654Y-24152216D01*
X34436717Y-24071404D01*
X34436717Y-24017529D01*
X34463654Y-23936717D01*
X34598341Y-23802030D01*
X34679154Y-23775093D01*
X34733028Y-23775093D01*
X34813841Y-23802030D01*
X34975465Y-23963654D01*
X35002402Y-24044467D01*
X35002402Y-24098341D01*
X33978781Y-24098341D02*
X34355905Y-23344094D01*
X33601658Y-23721218D01*
X33466971Y-23586531D02*
X33116784Y-23236345D01*
X33520845Y-23209407D01*
X33440033Y-23128595D01*
X33413096Y-23047783D01*
X33413096Y-22993908D01*
X33440033Y-22913096D01*
X33574720Y-22778409D01*
X33655532Y-22751471D01*
X33709407Y-22751471D01*
X33790219Y-22778409D01*
X33951844Y-22940033D01*
X33978781Y-23020845D01*
X33978781Y-23074720D01*
X27069966Y-24579526D02*
X27447089Y-23825279D01*
X26692842Y-24202402D01*
X27069966Y-23502030D02*
X27016091Y-23394280D01*
X26881404Y-23259593D01*
X26800592Y-23232656D01*
X26746717Y-23232656D01*
X26665905Y-23259593D01*
X26612030Y-23313468D01*
X26585093Y-23394280D01*
X26585093Y-23448155D01*
X26612030Y-23528967D01*
X26692842Y-23663654D01*
X26719780Y-23744467D01*
X26719780Y-23798341D01*
X26692842Y-23879154D01*
X26638967Y-23933028D01*
X26558155Y-23959966D01*
X26504280Y-23959966D01*
X26423468Y-23933028D01*
X26288781Y-23798341D01*
X26234906Y-23690592D01*
X26154094Y-23071032D02*
X26423468Y-22801658D01*
X26046345Y-23555905D02*
X26154094Y-23071032D01*
X25669221Y-23178781D01*
X26046345Y-22478409D02*
X25992470Y-22370659D01*
X25857783Y-22235972D01*
X25776971Y-22209035D01*
X25723096Y-22209035D01*
X25642284Y-22235972D01*
X25588409Y-22289847D01*
X25561471Y-22370659D01*
X25561471Y-22424534D01*
X25588409Y-22505346D01*
X25669221Y-22640033D01*
X25696158Y-22720845D01*
X25696158Y-22774720D01*
X25669221Y-22855532D01*
X25615346Y-22909407D01*
X25534534Y-22936345D01*
X25480659Y-22936345D01*
X25399847Y-22909407D01*
X25265160Y-22774720D01*
X25211285Y-22666971D01*
X49391218Y-49986903D02*
X49418155Y-50067715D01*
X49498967Y-50148528D01*
X49606717Y-50202402D01*
X49714467Y-50202402D01*
X49795279Y-50175465D01*
X49929966Y-50094653D01*
X50010778Y-50013841D01*
X50091590Y-49879154D01*
X50118528Y-49798341D01*
X50118528Y-49690592D01*
X50064653Y-49582842D01*
X50010778Y-49528967D01*
X49903028Y-49475093D01*
X49849154Y-49475093D01*
X49660592Y-49663654D01*
X49768341Y-49771404D01*
X49660592Y-49178781D02*
X49094906Y-49744467D01*
X48879407Y-49528967D01*
X48852470Y-49448155D01*
X48852470Y-49394280D01*
X48879407Y-49313468D01*
X48960219Y-49232656D01*
X49041032Y-49205719D01*
X49094906Y-49205719D01*
X49175719Y-49232656D01*
X49391218Y-49448155D01*
X48690845Y-48855532D02*
X48717783Y-48936345D01*
X48717783Y-48990219D01*
X48690845Y-49071032D01*
X48663908Y-49097969D01*
X48583096Y-49124906D01*
X48529221Y-49124906D01*
X48448409Y-49097969D01*
X48340659Y-48990219D01*
X48313722Y-48909407D01*
X48313722Y-48855532D01*
X48340659Y-48774720D01*
X48367597Y-48747783D01*
X48448409Y-48720845D01*
X48502284Y-48720845D01*
X48583096Y-48747783D01*
X48690845Y-48855532D01*
X48771658Y-48882470D01*
X48825532Y-48882470D01*
X48906345Y-48855532D01*
X49014094Y-48747783D01*
X49041032Y-48666971D01*
X49041032Y-48613096D01*
X49014094Y-48532284D01*
X48906345Y-48424534D01*
X48825532Y-48397597D01*
X48771658Y-48397597D01*
X48690845Y-48424534D01*
X48583096Y-48532284D01*
X48556158Y-48613096D01*
X48556158Y-48666971D01*
X48583096Y-48747783D01*
X72520592Y-24402277D02*
X72547529Y-24483089D01*
X72628341Y-24563902D01*
X72736091Y-24617776D01*
X72843841Y-24617776D01*
X72924653Y-24590839D01*
X73059340Y-24510027D01*
X73140152Y-24429215D01*
X73220964Y-24294528D01*
X73247902Y-24213715D01*
X73247902Y-24105966D01*
X73194027Y-23998216D01*
X73140152Y-23944341D01*
X73032402Y-23890467D01*
X72978528Y-23890467D01*
X72789966Y-24079028D01*
X72897715Y-24186778D01*
X72789966Y-23594155D02*
X72224280Y-24159841D01*
X72008781Y-23944341D01*
X71981844Y-23863529D01*
X71981844Y-23809654D01*
X72008781Y-23728842D01*
X72089593Y-23648030D01*
X72170406Y-23621093D01*
X72224280Y-23621093D01*
X72305093Y-23648030D01*
X72520592Y-23863529D01*
X71927969Y-22732158D02*
X72251218Y-23055407D01*
X72089593Y-22893783D02*
X71523908Y-23459468D01*
X71658595Y-23432531D01*
X71766345Y-23432531D01*
X71847157Y-23459468D01*
X70877410Y-22812971D02*
X70985160Y-22920720D01*
X71065972Y-22947658D01*
X71119847Y-22947658D01*
X71254534Y-22920720D01*
X71389221Y-22839908D01*
X71604720Y-22624409D01*
X71631658Y-22543597D01*
X71631658Y-22489722D01*
X71604720Y-22408910D01*
X71496971Y-22301160D01*
X71416158Y-22274223D01*
X71362284Y-22274223D01*
X71281471Y-22301160D01*
X71146784Y-22435847D01*
X71119847Y-22516659D01*
X71119847Y-22570534D01*
X71146784Y-22651346D01*
X71254534Y-22759096D01*
X71335346Y-22786033D01*
X71389221Y-22786033D01*
X71470033Y-22759096D01*
X47120592Y-24402277D02*
X47147529Y-24483089D01*
X47228341Y-24563902D01*
X47336091Y-24617776D01*
X47443841Y-24617776D01*
X47524653Y-24590839D01*
X47659340Y-24510027D01*
X47740152Y-24429215D01*
X47820964Y-24294528D01*
X47847902Y-24213715D01*
X47847902Y-24105966D01*
X47794027Y-23998216D01*
X47740152Y-23944341D01*
X47632402Y-23890467D01*
X47578528Y-23890467D01*
X47389966Y-24079028D01*
X47497715Y-24186778D01*
X47389966Y-23594155D02*
X46824280Y-24159841D01*
X46608781Y-23944341D01*
X46581844Y-23863529D01*
X46581844Y-23809654D01*
X46608781Y-23728842D01*
X46689593Y-23648030D01*
X46770406Y-23621093D01*
X46824280Y-23621093D01*
X46905093Y-23648030D01*
X47120592Y-23863529D01*
X46339407Y-23567218D02*
X46285532Y-23567218D01*
X46204720Y-23540280D01*
X46070033Y-23405593D01*
X46043096Y-23324781D01*
X46043096Y-23270906D01*
X46070033Y-23190094D01*
X46123908Y-23136219D01*
X46231658Y-23082345D01*
X46878155Y-23082345D01*
X46527969Y-22732158D01*
X45477410Y-22812971D02*
X45585160Y-22920720D01*
X45665972Y-22947658D01*
X45719847Y-22947658D01*
X45854534Y-22920720D01*
X45989221Y-22839908D01*
X46204720Y-22624409D01*
X46231658Y-22543597D01*
X46231658Y-22489722D01*
X46204720Y-22408910D01*
X46096971Y-22301160D01*
X46016158Y-22274223D01*
X45962284Y-22274223D01*
X45881471Y-22301160D01*
X45746784Y-22435847D01*
X45719847Y-22516659D01*
X45719847Y-22570534D01*
X45746784Y-22651346D01*
X45854534Y-22759096D01*
X45935346Y-22786033D01*
X45989221Y-22786033D01*
X46070033Y-22759096D01*
X34151218Y-49986903D02*
X34178155Y-50067715D01*
X34258967Y-50148528D01*
X34366717Y-50202402D01*
X34474467Y-50202402D01*
X34555279Y-50175465D01*
X34689966Y-50094653D01*
X34770778Y-50013841D01*
X34851590Y-49879154D01*
X34878528Y-49798341D01*
X34878528Y-49690592D01*
X34824653Y-49582842D01*
X34770778Y-49528967D01*
X34663028Y-49475093D01*
X34609154Y-49475093D01*
X34420592Y-49663654D01*
X34528341Y-49771404D01*
X34420592Y-49178781D02*
X33854906Y-49744467D01*
X33639407Y-49528967D01*
X33612470Y-49448155D01*
X33612470Y-49394280D01*
X33639407Y-49313468D01*
X33720219Y-49232656D01*
X33801032Y-49205719D01*
X33854906Y-49205719D01*
X33935719Y-49232656D01*
X34151218Y-49448155D01*
X33343096Y-49232656D02*
X32992910Y-48882470D01*
X33396971Y-48855532D01*
X33316158Y-48774720D01*
X33289221Y-48693908D01*
X33289221Y-48640033D01*
X33316158Y-48559221D01*
X33450845Y-48424534D01*
X33531658Y-48397597D01*
X33585532Y-48397597D01*
X33666345Y-48424534D01*
X33827969Y-48586158D01*
X33854906Y-48666971D01*
X33854906Y-48720845D01*
X69980592Y-50556277D02*
X70007529Y-50637089D01*
X70088341Y-50717902D01*
X70196091Y-50771776D01*
X70303841Y-50771776D01*
X70384653Y-50744839D01*
X70519340Y-50664027D01*
X70600152Y-50583215D01*
X70680964Y-50448528D01*
X70707902Y-50367715D01*
X70707902Y-50259966D01*
X70654027Y-50152216D01*
X70600152Y-50098341D01*
X70492402Y-50044467D01*
X70438528Y-50044467D01*
X70249966Y-50233028D01*
X70357715Y-50340778D01*
X70249966Y-49748155D02*
X69684280Y-50313841D01*
X69468781Y-50098341D01*
X69441844Y-50017529D01*
X69441844Y-49963654D01*
X69468781Y-49882842D01*
X69549593Y-49802030D01*
X69630406Y-49775093D01*
X69684280Y-49775093D01*
X69765093Y-49802030D01*
X69980592Y-50017529D01*
X69387969Y-48886158D02*
X69711218Y-49209407D01*
X69549593Y-49047783D02*
X68983908Y-49613468D01*
X69118595Y-49586531D01*
X69226345Y-49586531D01*
X69307157Y-49613468D01*
X68525972Y-48778409D02*
X68903096Y-48401285D01*
X68445160Y-49128595D02*
X68983908Y-48859221D01*
X68633722Y-48509035D01*
X57280592Y-50510277D02*
X57307529Y-50591089D01*
X57388341Y-50671902D01*
X57496091Y-50725776D01*
X57603841Y-50725776D01*
X57684653Y-50698839D01*
X57819340Y-50618027D01*
X57900152Y-50537215D01*
X57980964Y-50402528D01*
X58007902Y-50321715D01*
X58007902Y-50213966D01*
X57954027Y-50106216D01*
X57900152Y-50052341D01*
X57792402Y-49998467D01*
X57738528Y-49998467D01*
X57549966Y-50187028D01*
X57657715Y-50294778D01*
X57549966Y-49702155D02*
X56984280Y-50267841D01*
X56768781Y-50052341D01*
X56741844Y-49971529D01*
X56741844Y-49917654D01*
X56768781Y-49836842D01*
X56849593Y-49756030D01*
X56930406Y-49729093D01*
X56984280Y-49729093D01*
X57065093Y-49756030D01*
X57280592Y-49971529D01*
X56687969Y-48840158D02*
X57011218Y-49163407D01*
X56849593Y-49001783D02*
X56283908Y-49567468D01*
X56418595Y-49540531D01*
X56526345Y-49540531D01*
X56607157Y-49567468D01*
X55772097Y-49055658D02*
X55718223Y-49001783D01*
X55691285Y-48920971D01*
X55691285Y-48867096D01*
X55718223Y-48786284D01*
X55799035Y-48651597D01*
X55933722Y-48516910D01*
X56068409Y-48436097D01*
X56149221Y-48409160D01*
X56203096Y-48409160D01*
X56283908Y-48436097D01*
X56337783Y-48489972D01*
X56364720Y-48570784D01*
X56364720Y-48624659D01*
X56337783Y-48705471D01*
X56256971Y-48840158D01*
X56122284Y-48974845D01*
X55987597Y-49055658D01*
X55906784Y-49082595D01*
X55852910Y-49082595D01*
X55772097Y-49055658D01*
X59820592Y-24402277D02*
X59847529Y-24483089D01*
X59928341Y-24563902D01*
X60036091Y-24617776D01*
X60143841Y-24617776D01*
X60224653Y-24590839D01*
X60359340Y-24510027D01*
X60440152Y-24429215D01*
X60520964Y-24294528D01*
X60547902Y-24213715D01*
X60547902Y-24105966D01*
X60494027Y-23998216D01*
X60440152Y-23944341D01*
X60332402Y-23890467D01*
X60278528Y-23890467D01*
X60089966Y-24079028D01*
X60197715Y-24186778D01*
X60089966Y-23594155D02*
X59524280Y-24159841D01*
X59308781Y-23944341D01*
X59281844Y-23863529D01*
X59281844Y-23809654D01*
X59308781Y-23728842D01*
X59389593Y-23648030D01*
X59470406Y-23621093D01*
X59524280Y-23621093D01*
X59605093Y-23648030D01*
X59820592Y-23863529D01*
X59039407Y-23567218D02*
X58985532Y-23567218D01*
X58904720Y-23540280D01*
X58770033Y-23405593D01*
X58743096Y-23324781D01*
X58743096Y-23270906D01*
X58770033Y-23190094D01*
X58823908Y-23136219D01*
X58931658Y-23082345D01*
X59578155Y-23082345D01*
X59227969Y-22732158D01*
X58312097Y-22947658D02*
X58258223Y-22893783D01*
X58231285Y-22812971D01*
X58231285Y-22759096D01*
X58258223Y-22678284D01*
X58339035Y-22543597D01*
X58473722Y-22408910D01*
X58608409Y-22328097D01*
X58689221Y-22301160D01*
X58743096Y-22301160D01*
X58823908Y-22328097D01*
X58877783Y-22381972D01*
X58904720Y-22462784D01*
X58904720Y-22516659D01*
X58877783Y-22597471D01*
X58796971Y-22732158D01*
X58662284Y-22866845D01*
X58527597Y-22947658D01*
X58446784Y-22974595D01*
X58392910Y-22974595D01*
X58312097Y-22947658D01*
X69980592Y-24402277D02*
X70007529Y-24483089D01*
X70088341Y-24563902D01*
X70196091Y-24617776D01*
X70303841Y-24617776D01*
X70384653Y-24590839D01*
X70519340Y-24510027D01*
X70600152Y-24429215D01*
X70680964Y-24294528D01*
X70707902Y-24213715D01*
X70707902Y-24105966D01*
X70654027Y-23998216D01*
X70600152Y-23944341D01*
X70492402Y-23890467D01*
X70438528Y-23890467D01*
X70249966Y-24079028D01*
X70357715Y-24186778D01*
X70249966Y-23594155D02*
X69684280Y-24159841D01*
X69468781Y-23944341D01*
X69441844Y-23863529D01*
X69441844Y-23809654D01*
X69468781Y-23728842D01*
X69549593Y-23648030D01*
X69630406Y-23621093D01*
X69684280Y-23621093D01*
X69765093Y-23648030D01*
X69980592Y-23863529D01*
X69387969Y-22732158D02*
X69711218Y-23055407D01*
X69549593Y-22893783D02*
X68983908Y-23459468D01*
X69118595Y-23432531D01*
X69226345Y-23432531D01*
X69307157Y-23459468D01*
X68633722Y-23109282D02*
X68256598Y-22732158D01*
X69064720Y-22408910D01*
X54498155Y-24413841D02*
X54525093Y-24494653D01*
X54605905Y-24575465D01*
X54713654Y-24629340D01*
X54821404Y-24629340D01*
X54902216Y-24602402D01*
X55036903Y-24521590D01*
X55117715Y-24440778D01*
X55198528Y-24306091D01*
X55225465Y-24225279D01*
X55225465Y-24117529D01*
X55171590Y-24009780D01*
X55117715Y-23955905D01*
X55009966Y-23902030D01*
X54956091Y-23902030D01*
X54767529Y-24090592D01*
X54875279Y-24198341D01*
X54767529Y-23605719D02*
X54201844Y-24171404D01*
X54444280Y-23282470D01*
X53878595Y-23848155D01*
X54174906Y-23013096D02*
X53609221Y-23578781D01*
X53474534Y-23444094D01*
X53420659Y-23336345D01*
X53420659Y-23228595D01*
X53447597Y-23147783D01*
X53528409Y-23013096D01*
X53609221Y-22932284D01*
X53743908Y-22851471D01*
X53824720Y-22824534D01*
X53932470Y-22824534D01*
X54040219Y-22878409D01*
X54174906Y-23013096D01*
X62360592Y-24402277D02*
X62387529Y-24483089D01*
X62468341Y-24563902D01*
X62576091Y-24617776D01*
X62683841Y-24617776D01*
X62764653Y-24590839D01*
X62899340Y-24510027D01*
X62980152Y-24429215D01*
X63060964Y-24294528D01*
X63087902Y-24213715D01*
X63087902Y-24105966D01*
X63034027Y-23998216D01*
X62980152Y-23944341D01*
X62872402Y-23890467D01*
X62818528Y-23890467D01*
X62629966Y-24079028D01*
X62737715Y-24186778D01*
X62629966Y-23594155D02*
X62064280Y-24159841D01*
X61848781Y-23944341D01*
X61821844Y-23863529D01*
X61821844Y-23809654D01*
X61848781Y-23728842D01*
X61929593Y-23648030D01*
X62010406Y-23621093D01*
X62064280Y-23621093D01*
X62145093Y-23648030D01*
X62360592Y-23863529D01*
X61767969Y-22732158D02*
X62091218Y-23055407D01*
X61929593Y-22893783D02*
X61363908Y-23459468D01*
X61498595Y-23432531D01*
X61606345Y-23432531D01*
X61687157Y-23459468D01*
X61498595Y-22462784D02*
X61390845Y-22355035D01*
X61310033Y-22328097D01*
X61256158Y-22328097D01*
X61121471Y-22355035D01*
X60986784Y-22435847D01*
X60771285Y-22651346D01*
X60744348Y-22732158D01*
X60744348Y-22786033D01*
X60771285Y-22866845D01*
X60879035Y-22974595D01*
X60959847Y-23001532D01*
X61013722Y-23001532D01*
X61094534Y-22974595D01*
X61229221Y-22839908D01*
X61256158Y-22759096D01*
X61256158Y-22705221D01*
X61229221Y-22624409D01*
X61121471Y-22516659D01*
X61040659Y-22489722D01*
X60986784Y-22489722D01*
X60905972Y-22516659D01*
X64900592Y-24402277D02*
X64927529Y-24483089D01*
X65008341Y-24563902D01*
X65116091Y-24617776D01*
X65223841Y-24617776D01*
X65304653Y-24590839D01*
X65439340Y-24510027D01*
X65520152Y-24429215D01*
X65600964Y-24294528D01*
X65627902Y-24213715D01*
X65627902Y-24105966D01*
X65574027Y-23998216D01*
X65520152Y-23944341D01*
X65412402Y-23890467D01*
X65358528Y-23890467D01*
X65169966Y-24079028D01*
X65277715Y-24186778D01*
X65169966Y-23594155D02*
X64604280Y-24159841D01*
X64388781Y-23944341D01*
X64361844Y-23863529D01*
X64361844Y-23809654D01*
X64388781Y-23728842D01*
X64469593Y-23648030D01*
X64550406Y-23621093D01*
X64604280Y-23621093D01*
X64685093Y-23648030D01*
X64900592Y-23863529D01*
X64307969Y-22732158D02*
X64631218Y-23055407D01*
X64469593Y-22893783D02*
X63903908Y-23459468D01*
X64038595Y-23432531D01*
X64146345Y-23432531D01*
X64227157Y-23459468D01*
X63661471Y-22732158D02*
X63688409Y-22812971D01*
X63688409Y-22866845D01*
X63661471Y-22947658D01*
X63634534Y-22974595D01*
X63553722Y-23001532D01*
X63499847Y-23001532D01*
X63419035Y-22974595D01*
X63311285Y-22866845D01*
X63284348Y-22786033D01*
X63284348Y-22732158D01*
X63311285Y-22651346D01*
X63338223Y-22624409D01*
X63419035Y-22597471D01*
X63472910Y-22597471D01*
X63553722Y-22624409D01*
X63661471Y-22732158D01*
X63742284Y-22759096D01*
X63796158Y-22759096D01*
X63876971Y-22732158D01*
X63984720Y-22624409D01*
X64011658Y-22543597D01*
X64011658Y-22489722D01*
X63984720Y-22408910D01*
X63876971Y-22301160D01*
X63796158Y-22274223D01*
X63742284Y-22274223D01*
X63661471Y-22301160D01*
X63553722Y-22408910D01*
X63526784Y-22489722D01*
X63526784Y-22543597D01*
X63553722Y-22624409D01*
X39246592Y-24402277D02*
X39273529Y-24483089D01*
X39354341Y-24563902D01*
X39462091Y-24617776D01*
X39569841Y-24617776D01*
X39650653Y-24590839D01*
X39785340Y-24510027D01*
X39866152Y-24429215D01*
X39946964Y-24294528D01*
X39973902Y-24213715D01*
X39973902Y-24105966D01*
X39920027Y-23998216D01*
X39866152Y-23944341D01*
X39758402Y-23890467D01*
X39704528Y-23890467D01*
X39515966Y-24079028D01*
X39623715Y-24186778D01*
X39515966Y-23594155D02*
X38950280Y-24159841D01*
X38734781Y-23944341D01*
X38707844Y-23863529D01*
X38707844Y-23809654D01*
X38734781Y-23728842D01*
X38815593Y-23648030D01*
X38896406Y-23621093D01*
X38950280Y-23621093D01*
X39031093Y-23648030D01*
X39246592Y-23863529D01*
X38465407Y-23567218D02*
X38411532Y-23567218D01*
X38330720Y-23540280D01*
X38196033Y-23405593D01*
X38169096Y-23324781D01*
X38169096Y-23270906D01*
X38196033Y-23190094D01*
X38249908Y-23136219D01*
X38357658Y-23082345D01*
X39004155Y-23082345D01*
X38653969Y-22732158D01*
X38007471Y-22732158D02*
X38034409Y-22812971D01*
X38034409Y-22866845D01*
X38007471Y-22947658D01*
X37980534Y-22974595D01*
X37899722Y-23001532D01*
X37845847Y-23001532D01*
X37765035Y-22974595D01*
X37657285Y-22866845D01*
X37630348Y-22786033D01*
X37630348Y-22732158D01*
X37657285Y-22651346D01*
X37684223Y-22624409D01*
X37765035Y-22597471D01*
X37818910Y-22597471D01*
X37899722Y-22624409D01*
X38007471Y-22732158D01*
X38088284Y-22759096D01*
X38142158Y-22759096D01*
X38222971Y-22732158D01*
X38330720Y-22624409D01*
X38357658Y-22543597D01*
X38357658Y-22489722D01*
X38330720Y-22408910D01*
X38222971Y-22301160D01*
X38142158Y-22274223D01*
X38088284Y-22274223D01*
X38007471Y-22301160D01*
X37899722Y-22408910D01*
X37872784Y-22489722D01*
X37872784Y-22543597D01*
X37899722Y-22624409D01*
X24527309Y-24546870D02*
X24904433Y-23792622D01*
X24150186Y-24169746D01*
X24042436Y-23523248D02*
X23988561Y-23415499D01*
X23988561Y-23361624D01*
X24015499Y-23280812D01*
X24096311Y-23200000D01*
X24177123Y-23173062D01*
X24230998Y-23173062D01*
X24311810Y-23200000D01*
X24527309Y-23415499D01*
X23961624Y-23981184D01*
X23773062Y-23792622D01*
X23746125Y-23711810D01*
X23746125Y-23657935D01*
X23773062Y-23577123D01*
X23826937Y-23523248D01*
X23907749Y-23496311D01*
X23961624Y-23496311D01*
X24042436Y-23523248D01*
X24230998Y-23711810D01*
X23395938Y-23415499D02*
X23853874Y-22957563D01*
X23880812Y-22876751D01*
X23880812Y-22822876D01*
X23853874Y-22742064D01*
X23746125Y-22634314D01*
X23665312Y-22607377D01*
X23611438Y-22607377D01*
X23530625Y-22634314D01*
X23072690Y-23092250D01*
X23369001Y-22311065D02*
X23315126Y-22203316D01*
X23180439Y-22068629D01*
X23099627Y-22041691D01*
X23045752Y-22041691D01*
X22964940Y-22068629D01*
X22911065Y-22122503D01*
X22884128Y-22203316D01*
X22884128Y-22257190D01*
X22911065Y-22338003D01*
X22991877Y-22472690D01*
X23018815Y-22553502D01*
X23018815Y-22607377D01*
X22991877Y-22688189D01*
X22938003Y-22742064D01*
X22857190Y-22769001D01*
X22803316Y-22769001D01*
X22722503Y-22742064D01*
X22587816Y-22607377D01*
X22533942Y-22499627D01*
X57290592Y-24402277D02*
X57317529Y-24483089D01*
X57398341Y-24563902D01*
X57506091Y-24617776D01*
X57613841Y-24617776D01*
X57694653Y-24590839D01*
X57829340Y-24510027D01*
X57910152Y-24429215D01*
X57990964Y-24294528D01*
X58017902Y-24213715D01*
X58017902Y-24105966D01*
X57964027Y-23998216D01*
X57910152Y-23944341D01*
X57802402Y-23890467D01*
X57748528Y-23890467D01*
X57559966Y-24079028D01*
X57667715Y-24186778D01*
X57559966Y-23594155D02*
X56994280Y-24159841D01*
X56778781Y-23944341D01*
X56751844Y-23863529D01*
X56751844Y-23809654D01*
X56778781Y-23728842D01*
X56859593Y-23648030D01*
X56940406Y-23621093D01*
X56994280Y-23621093D01*
X57075093Y-23648030D01*
X57290592Y-23863529D01*
X56509407Y-23567218D02*
X56455532Y-23567218D01*
X56374720Y-23540280D01*
X56240033Y-23405593D01*
X56213096Y-23324781D01*
X56213096Y-23270906D01*
X56240033Y-23190094D01*
X56293908Y-23136219D01*
X56401658Y-23082345D01*
X57048155Y-23082345D01*
X56697969Y-22732158D01*
X56159221Y-22193410D02*
X56482470Y-22516659D01*
X56320845Y-22355035D02*
X55755160Y-22920720D01*
X55889847Y-22893783D01*
X55997597Y-22893783D01*
X56078409Y-22920720D01*
X67198155Y-24413841D02*
X67225093Y-24494653D01*
X67305905Y-24575465D01*
X67413654Y-24629340D01*
X67521404Y-24629340D01*
X67602216Y-24602402D01*
X67736903Y-24521590D01*
X67817715Y-24440778D01*
X67898528Y-24306091D01*
X67925465Y-24225279D01*
X67925465Y-24117529D01*
X67871590Y-24009780D01*
X67817715Y-23955905D01*
X67709966Y-23902030D01*
X67656091Y-23902030D01*
X67467529Y-24090592D01*
X67575279Y-24198341D01*
X67467529Y-23605719D02*
X66901844Y-24171404D01*
X67144280Y-23282470D01*
X66578595Y-23848155D01*
X66874906Y-23013096D02*
X66309221Y-23578781D01*
X66174534Y-23444094D01*
X66120659Y-23336345D01*
X66120659Y-23228595D01*
X66147597Y-23147783D01*
X66228409Y-23013096D01*
X66309221Y-22932284D01*
X66443908Y-22851471D01*
X66524720Y-22824534D01*
X66632470Y-22824534D01*
X66740219Y-22878409D01*
X66874906Y-23013096D01*
X52200592Y-24402277D02*
X52227529Y-24483089D01*
X52308341Y-24563902D01*
X52416091Y-24617776D01*
X52523841Y-24617776D01*
X52604653Y-24590839D01*
X52739340Y-24510027D01*
X52820152Y-24429215D01*
X52900964Y-24294528D01*
X52927902Y-24213715D01*
X52927902Y-24105966D01*
X52874027Y-23998216D01*
X52820152Y-23944341D01*
X52712402Y-23890467D01*
X52658528Y-23890467D01*
X52469966Y-24079028D01*
X52577715Y-24186778D01*
X52469966Y-23594155D02*
X51904280Y-24159841D01*
X51688781Y-23944341D01*
X51661844Y-23863529D01*
X51661844Y-23809654D01*
X51688781Y-23728842D01*
X51769593Y-23648030D01*
X51850406Y-23621093D01*
X51904280Y-23621093D01*
X51985093Y-23648030D01*
X52200592Y-23863529D01*
X51419407Y-23567218D02*
X51365532Y-23567218D01*
X51284720Y-23540280D01*
X51150033Y-23405593D01*
X51123096Y-23324781D01*
X51123096Y-23270906D01*
X51150033Y-23190094D01*
X51203908Y-23136219D01*
X51311658Y-23082345D01*
X51958155Y-23082345D01*
X51607969Y-22732158D01*
X50880659Y-23028470D02*
X50826784Y-23028470D01*
X50745972Y-23001532D01*
X50611285Y-22866845D01*
X50584348Y-22786033D01*
X50584348Y-22732158D01*
X50611285Y-22651346D01*
X50665160Y-22597471D01*
X50772910Y-22543597D01*
X51419407Y-22543597D01*
X51069221Y-22193410D01*
X39231218Y-49986903D02*
X39258155Y-50067715D01*
X39338967Y-50148528D01*
X39446717Y-50202402D01*
X39554467Y-50202402D01*
X39635279Y-50175465D01*
X39769966Y-50094653D01*
X39850778Y-50013841D01*
X39931590Y-49879154D01*
X39958528Y-49798341D01*
X39958528Y-49690592D01*
X39904653Y-49582842D01*
X39850778Y-49528967D01*
X39743028Y-49475093D01*
X39689154Y-49475093D01*
X39500592Y-49663654D01*
X39608341Y-49771404D01*
X39500592Y-49178781D02*
X38934906Y-49744467D01*
X38719407Y-49528967D01*
X38692470Y-49448155D01*
X38692470Y-49394280D01*
X38719407Y-49313468D01*
X38800219Y-49232656D01*
X38881032Y-49205719D01*
X38934906Y-49205719D01*
X39015719Y-49232656D01*
X39231218Y-49448155D01*
X38099847Y-48909407D02*
X38369221Y-49178781D01*
X38665532Y-48936345D01*
X38611658Y-48936345D01*
X38530845Y-48909407D01*
X38396158Y-48774720D01*
X38369221Y-48693908D01*
X38369221Y-48640033D01*
X38396158Y-48559221D01*
X38530845Y-48424534D01*
X38611658Y-48397597D01*
X38665532Y-48397597D01*
X38746345Y-48424534D01*
X38881032Y-48559221D01*
X38907969Y-48640033D01*
X38907969Y-48693908D01*
X46821218Y-49886903D02*
X46848155Y-49967715D01*
X46928967Y-50048528D01*
X47036717Y-50102402D01*
X47144467Y-50102402D01*
X47225279Y-50075465D01*
X47359966Y-49994653D01*
X47440778Y-49913841D01*
X47521590Y-49779154D01*
X47548528Y-49698341D01*
X47548528Y-49590592D01*
X47494653Y-49482842D01*
X47440778Y-49428967D01*
X47333028Y-49375093D01*
X47279154Y-49375093D01*
X47090592Y-49563654D01*
X47198341Y-49671404D01*
X47090592Y-49078781D02*
X46524906Y-49644467D01*
X46309407Y-49428967D01*
X46282470Y-49348155D01*
X46282470Y-49294280D01*
X46309407Y-49213468D01*
X46390219Y-49132656D01*
X46471032Y-49105719D01*
X46524906Y-49105719D01*
X46605719Y-49132656D01*
X46821218Y-49348155D01*
X46013096Y-49132656D02*
X45635972Y-48755532D01*
X46444094Y-48432284D01*
X31958308Y-24577868D02*
X31608122Y-24227682D01*
X32012183Y-24200744D01*
X31931370Y-24119932D01*
X31904433Y-24039120D01*
X31904433Y-23985245D01*
X31931370Y-23904433D01*
X32066057Y-23769746D01*
X32146870Y-23742809D01*
X32200744Y-23742809D01*
X32281557Y-23769746D01*
X32443181Y-23931370D01*
X32470118Y-24012183D01*
X32470118Y-24066057D01*
X31446497Y-24066057D02*
X31823621Y-23311810D01*
X31069374Y-23688934D01*
X30934687Y-23554247D02*
X30584500Y-23204061D01*
X30988561Y-23177123D01*
X30907749Y-23096311D01*
X30880812Y-23015499D01*
X30880812Y-22961624D01*
X30907749Y-22880812D01*
X31042436Y-22746125D01*
X31123248Y-22719187D01*
X31177123Y-22719187D01*
X31257935Y-22746125D01*
X31419560Y-22907749D01*
X31446497Y-22988561D01*
X31446497Y-23042436D01*
X31096311Y-22476751D02*
X30665312Y-22045752D01*
X30180439Y-22261251D02*
X29991877Y-22072690D01*
X30207377Y-21695566D02*
X30476751Y-21964940D01*
X29911065Y-22530625D01*
X29641691Y-22261251D01*
X29964940Y-21453129D02*
X29399255Y-22018815D01*
X29641691Y-21129881D01*
X29076006Y-21695566D01*
X44590592Y-24402277D02*
X44617529Y-24483089D01*
X44698341Y-24563902D01*
X44806091Y-24617776D01*
X44913841Y-24617776D01*
X44994653Y-24590839D01*
X45129340Y-24510027D01*
X45210152Y-24429215D01*
X45290964Y-24294528D01*
X45317902Y-24213715D01*
X45317902Y-24105966D01*
X45264027Y-23998216D01*
X45210152Y-23944341D01*
X45102402Y-23890467D01*
X45048528Y-23890467D01*
X44859966Y-24079028D01*
X44967715Y-24186778D01*
X44859966Y-23594155D02*
X44294280Y-24159841D01*
X44078781Y-23944341D01*
X44051844Y-23863529D01*
X44051844Y-23809654D01*
X44078781Y-23728842D01*
X44159593Y-23648030D01*
X44240406Y-23621093D01*
X44294280Y-23621093D01*
X44375093Y-23648030D01*
X44590592Y-23863529D01*
X43809407Y-23567218D02*
X43755532Y-23567218D01*
X43674720Y-23540280D01*
X43540033Y-23405593D01*
X43513096Y-23324781D01*
X43513096Y-23270906D01*
X43540033Y-23190094D01*
X43593908Y-23136219D01*
X43701658Y-23082345D01*
X44348155Y-23082345D01*
X43997969Y-22732158D01*
X43243722Y-23109282D02*
X42866598Y-22732158D01*
X43674720Y-22408910D01*
X41798155Y-50013841D02*
X41825093Y-50094653D01*
X41905905Y-50175465D01*
X42013654Y-50229340D01*
X42121404Y-50229340D01*
X42202216Y-50202402D01*
X42336903Y-50121590D01*
X42417715Y-50040778D01*
X42498528Y-49906091D01*
X42525465Y-49825279D01*
X42525465Y-49717529D01*
X42471590Y-49609780D01*
X42417715Y-49555905D01*
X42309966Y-49502030D01*
X42256091Y-49502030D01*
X42067529Y-49690592D01*
X42175279Y-49798341D01*
X42067529Y-49205719D02*
X41501844Y-49771404D01*
X41744280Y-48882470D01*
X41178595Y-49448155D01*
X41474906Y-48613096D02*
X40909221Y-49178781D01*
X40774534Y-49044094D01*
X40720659Y-48936345D01*
X40720659Y-48828595D01*
X40747597Y-48747783D01*
X40828409Y-48613096D01*
X40909221Y-48532284D01*
X41043908Y-48451471D01*
X41124720Y-48424534D01*
X41232470Y-48424534D01*
X41340219Y-48478409D01*
X41474906Y-48613096D01*
X23991218Y-49986903D02*
X24018155Y-50067715D01*
X24098967Y-50148528D01*
X24206717Y-50202402D01*
X24314467Y-50202402D01*
X24395279Y-50175465D01*
X24529966Y-50094653D01*
X24610778Y-50013841D01*
X24691590Y-49879154D01*
X24718528Y-49798341D01*
X24718528Y-49690592D01*
X24664653Y-49582842D01*
X24610778Y-49528967D01*
X24503028Y-49475093D01*
X24449154Y-49475093D01*
X24260592Y-49663654D01*
X24368341Y-49771404D01*
X24260592Y-49178781D02*
X23694906Y-49744467D01*
X23479407Y-49528967D01*
X23452470Y-49448155D01*
X23452470Y-49394280D01*
X23479407Y-49313468D01*
X23560219Y-49232656D01*
X23641032Y-49205719D01*
X23694906Y-49205719D01*
X23775719Y-49232656D01*
X23991218Y-49448155D01*
X23021471Y-49071032D02*
X22967597Y-49017157D01*
X22940659Y-48936345D01*
X22940659Y-48882470D01*
X22967597Y-48801658D01*
X23048409Y-48666971D01*
X23183096Y-48532284D01*
X23317783Y-48451471D01*
X23398595Y-48424534D01*
X23452470Y-48424534D01*
X23533282Y-48451471D01*
X23587157Y-48505346D01*
X23614094Y-48586158D01*
X23614094Y-48640033D01*
X23587157Y-48720845D01*
X23506345Y-48855532D01*
X23371658Y-48990219D01*
X23236971Y-49071032D01*
X23156158Y-49097969D01*
X23102284Y-49097969D01*
X23021471Y-49071032D01*
X64900592Y-50510277D02*
X64927529Y-50591089D01*
X65008341Y-50671902D01*
X65116091Y-50725776D01*
X65223841Y-50725776D01*
X65304653Y-50698839D01*
X65439340Y-50618027D01*
X65520152Y-50537215D01*
X65600964Y-50402528D01*
X65627902Y-50321715D01*
X65627902Y-50213966D01*
X65574027Y-50106216D01*
X65520152Y-50052341D01*
X65412402Y-49998467D01*
X65358528Y-49998467D01*
X65169966Y-50187028D01*
X65277715Y-50294778D01*
X65169966Y-49702155D02*
X64604280Y-50267841D01*
X64388781Y-50052341D01*
X64361844Y-49971529D01*
X64361844Y-49917654D01*
X64388781Y-49836842D01*
X64469593Y-49756030D01*
X64550406Y-49729093D01*
X64604280Y-49729093D01*
X64685093Y-49756030D01*
X64900592Y-49971529D01*
X64307969Y-48840158D02*
X64631218Y-49163407D01*
X64469593Y-49001783D02*
X63903908Y-49567468D01*
X64038595Y-49540531D01*
X64146345Y-49540531D01*
X64227157Y-49567468D01*
X63553722Y-49217282D02*
X63203536Y-48867096D01*
X63607597Y-48840158D01*
X63526784Y-48759346D01*
X63499847Y-48678534D01*
X63499847Y-48624659D01*
X63526784Y-48543847D01*
X63661471Y-48409160D01*
X63742284Y-48382223D01*
X63796158Y-48382223D01*
X63876971Y-48409160D01*
X64038595Y-48570784D01*
X64065532Y-48651597D01*
X64065532Y-48705471D01*
%TO.C,U6*%
X167738095Y-31817380D02*
X167738095Y-32626904D01*
X167785714Y-32722142D01*
X167833333Y-32769761D01*
X167928571Y-32817380D01*
X168119047Y-32817380D01*
X168214285Y-32769761D01*
X168261904Y-32722142D01*
X168309523Y-32626904D01*
X168309523Y-31817380D01*
X169214285Y-31817380D02*
X169023809Y-31817380D01*
X168928571Y-31865000D01*
X168880952Y-31912619D01*
X168785714Y-32055476D01*
X168738095Y-32245952D01*
X168738095Y-32626904D01*
X168785714Y-32722142D01*
X168833333Y-32769761D01*
X168928571Y-32817380D01*
X169119047Y-32817380D01*
X169214285Y-32769761D01*
X169261904Y-32722142D01*
X169309523Y-32626904D01*
X169309523Y-32388809D01*
X169261904Y-32293571D01*
X169214285Y-32245952D01*
X169119047Y-32198333D01*
X168928571Y-32198333D01*
X168833333Y-32245952D01*
X168785714Y-32293571D01*
X168738095Y-32388809D01*
X170547619Y-39404761D02*
X170690476Y-39452380D01*
X170928571Y-39452380D01*
X171023809Y-39404761D01*
X171071428Y-39357142D01*
X171119047Y-39261904D01*
X171119047Y-39166666D01*
X171071428Y-39071428D01*
X171023809Y-39023809D01*
X170928571Y-38976190D01*
X170738095Y-38928571D01*
X170642857Y-38880952D01*
X170595238Y-38833333D01*
X170547619Y-38738095D01*
X170547619Y-38642857D01*
X170595238Y-38547619D01*
X170642857Y-38500000D01*
X170738095Y-38452380D01*
X170976190Y-38452380D01*
X171119047Y-38500000D01*
X172119047Y-39357142D02*
X172071428Y-39404761D01*
X171928571Y-39452380D01*
X171833333Y-39452380D01*
X171690476Y-39404761D01*
X171595238Y-39309523D01*
X171547619Y-39214285D01*
X171500000Y-39023809D01*
X171500000Y-38880952D01*
X171547619Y-38690476D01*
X171595238Y-38595238D01*
X171690476Y-38500000D01*
X171833333Y-38452380D01*
X171928571Y-38452380D01*
X172071428Y-38500000D01*
X172119047Y-38547619D01*
X172547619Y-39452380D02*
X172547619Y-38452380D01*
X172785714Y-38452380D01*
X172928571Y-38500000D01*
X173023809Y-38595238D01*
X173071428Y-38690476D01*
X173119047Y-38880952D01*
X173119047Y-39023809D01*
X173071428Y-39214285D01*
X173023809Y-39309523D01*
X172928571Y-39404761D01*
X172785714Y-39452380D01*
X172547619Y-39452380D01*
X173976190Y-38785714D02*
X173976190Y-39452380D01*
X173738095Y-38404761D02*
X173500000Y-39119047D01*
X174119047Y-39119047D01*
X175023809Y-39452380D02*
X174452380Y-39452380D01*
X174738095Y-39452380D02*
X174738095Y-38452380D01*
X174642857Y-38595238D01*
X174547619Y-38690476D01*
X174452380Y-38738095D01*
X175452380Y-39071428D02*
X176214285Y-39071428D01*
X176690476Y-39452380D02*
X176690476Y-38452380D01*
X176928571Y-38452380D01*
X177071428Y-38500000D01*
X177166666Y-38595238D01*
X177214285Y-38690476D01*
X177261904Y-38880952D01*
X177261904Y-39023809D01*
X177214285Y-39214285D01*
X177166666Y-39309523D01*
X177071428Y-39404761D01*
X176928571Y-39452380D01*
X176690476Y-39452380D01*
X177690476Y-39071428D02*
X178452380Y-39071428D01*
X179500000Y-39452380D02*
X179166666Y-38976190D01*
X178928571Y-39452380D02*
X178928571Y-38452380D01*
X179309523Y-38452380D01*
X179404761Y-38500000D01*
X179452380Y-38547619D01*
X179500000Y-38642857D01*
X179500000Y-38785714D01*
X179452380Y-38880952D01*
X179404761Y-38928571D01*
X179309523Y-38976190D01*
X178928571Y-38976190D01*
X180452380Y-39452380D02*
X179880952Y-39452380D01*
X180166666Y-39452380D02*
X180166666Y-38452380D01*
X180071428Y-38595238D01*
X179976190Y-38690476D01*
X179880952Y-38738095D01*
X178323380Y-26980700D02*
X178561476Y-26980700D01*
X178466238Y-27218795D02*
X178561476Y-26980700D01*
X178466238Y-26742604D01*
X178751952Y-27123557D02*
X178561476Y-26980700D01*
X178751952Y-26837842D01*
X178323380Y-26980700D02*
X178561476Y-26980700D01*
X178466238Y-27218795D02*
X178561476Y-26980700D01*
X178466238Y-26742604D01*
X178751952Y-27123557D02*
X178561476Y-26980700D01*
X178751952Y-26837842D01*
%TO.C,R2*%
X170783333Y-48962380D02*
X170450000Y-48486190D01*
X170211904Y-48962380D02*
X170211904Y-47962380D01*
X170592857Y-47962380D01*
X170688095Y-48010000D01*
X170735714Y-48057619D01*
X170783333Y-48152857D01*
X170783333Y-48295714D01*
X170735714Y-48390952D01*
X170688095Y-48438571D01*
X170592857Y-48486190D01*
X170211904Y-48486190D01*
X171164285Y-48057619D02*
X171211904Y-48010000D01*
X171307142Y-47962380D01*
X171545238Y-47962380D01*
X171640476Y-48010000D01*
X171688095Y-48057619D01*
X171735714Y-48152857D01*
X171735714Y-48248095D01*
X171688095Y-48390952D01*
X171116666Y-48962380D01*
X171735714Y-48962380D01*
%TO.C,JP3*%
X103666666Y-46152380D02*
X103666666Y-46866666D01*
X103619047Y-47009523D01*
X103523809Y-47104761D01*
X103380952Y-47152380D01*
X103285714Y-47152380D01*
X104142857Y-47152380D02*
X104142857Y-46152380D01*
X104523809Y-46152380D01*
X104619047Y-46200000D01*
X104666666Y-46247619D01*
X104714285Y-46342857D01*
X104714285Y-46485714D01*
X104666666Y-46580952D01*
X104619047Y-46628571D01*
X104523809Y-46676190D01*
X104142857Y-46676190D01*
X105047619Y-46152380D02*
X105666666Y-46152380D01*
X105333333Y-46533333D01*
X105476190Y-46533333D01*
X105571428Y-46580952D01*
X105619047Y-46628571D01*
X105666666Y-46723809D01*
X105666666Y-46961904D01*
X105619047Y-47057142D01*
X105571428Y-47104761D01*
X105476190Y-47152380D01*
X105190476Y-47152380D01*
X105095238Y-47104761D01*
X105047619Y-47057142D01*
X107285714Y-47952380D02*
X106809523Y-47952380D01*
X106761904Y-48428571D01*
X106809523Y-48380952D01*
X106904761Y-48333333D01*
X107142857Y-48333333D01*
X107238095Y-48380952D01*
X107285714Y-48428571D01*
X107333333Y-48523809D01*
X107333333Y-48761904D01*
X107285714Y-48857142D01*
X107238095Y-48904761D01*
X107142857Y-48952380D01*
X106904761Y-48952380D01*
X106809523Y-48904761D01*
X106761904Y-48857142D01*
X107619047Y-47952380D02*
X107952380Y-48952380D01*
X108285714Y-47952380D01*
X108380952Y-49047619D02*
X109142857Y-49047619D01*
X109952380Y-48952380D02*
X109619047Y-48476190D01*
X109380952Y-48952380D02*
X109380952Y-47952380D01*
X109761904Y-47952380D01*
X109857142Y-48000000D01*
X109904761Y-48047619D01*
X109952380Y-48142857D01*
X109952380Y-48285714D01*
X109904761Y-48380952D01*
X109857142Y-48428571D01*
X109761904Y-48476190D01*
X109380952Y-48476190D01*
X110238095Y-47952380D02*
X110809523Y-47952380D01*
X110523809Y-48952380D02*
X110523809Y-47952380D01*
X111714285Y-48857142D02*
X111666666Y-48904761D01*
X111523809Y-48952380D01*
X111428571Y-48952380D01*
X111285714Y-48904761D01*
X111190476Y-48809523D01*
X111142857Y-48714285D01*
X111095238Y-48523809D01*
X111095238Y-48380952D01*
X111142857Y-48190476D01*
X111190476Y-48095238D01*
X111285714Y-48000000D01*
X111428571Y-47952380D01*
X111523809Y-47952380D01*
X111666666Y-48000000D01*
X111714285Y-48047619D01*
X111904761Y-49047619D02*
X112666666Y-49047619D01*
X113238095Y-48428571D02*
X113380952Y-48476190D01*
X113428571Y-48523809D01*
X113476190Y-48619047D01*
X113476190Y-48761904D01*
X113428571Y-48857142D01*
X113380952Y-48904761D01*
X113285714Y-48952380D01*
X112904761Y-48952380D01*
X112904761Y-47952380D01*
X113238095Y-47952380D01*
X113333333Y-48000000D01*
X113380952Y-48047619D01*
X113428571Y-48142857D01*
X113428571Y-48238095D01*
X113380952Y-48333333D01*
X113333333Y-48380952D01*
X113238095Y-48428571D01*
X112904761Y-48428571D01*
X113904761Y-48952380D02*
X113904761Y-48285714D01*
X113904761Y-48476190D02*
X113952380Y-48380952D01*
X114000000Y-48333333D01*
X114095238Y-48285714D01*
X114190476Y-48285714D01*
X114523809Y-48952380D02*
X114523809Y-48285714D01*
X114523809Y-47952380D02*
X114476190Y-48000000D01*
X114523809Y-48047619D01*
X114571428Y-48000000D01*
X114523809Y-47952380D01*
X114523809Y-48047619D01*
X115428571Y-48952380D02*
X115428571Y-47952380D01*
X115428571Y-48904761D02*
X115333333Y-48952380D01*
X115142857Y-48952380D01*
X115047619Y-48904761D01*
X115000000Y-48857142D01*
X114952380Y-48761904D01*
X114952380Y-48476190D01*
X115000000Y-48380952D01*
X115047619Y-48333333D01*
X115142857Y-48285714D01*
X115333333Y-48285714D01*
X115428571Y-48333333D01*
X116333333Y-48285714D02*
X116333333Y-49095238D01*
X116285714Y-49190476D01*
X116238095Y-49238095D01*
X116142857Y-49285714D01*
X116000000Y-49285714D01*
X115904761Y-49238095D01*
X116333333Y-48904761D02*
X116238095Y-48952380D01*
X116047619Y-48952380D01*
X115952380Y-48904761D01*
X115904761Y-48857142D01*
X115857142Y-48761904D01*
X115857142Y-48476190D01*
X115904761Y-48380952D01*
X115952380Y-48333333D01*
X116047619Y-48285714D01*
X116238095Y-48285714D01*
X116333333Y-48333333D01*
X117190476Y-48904761D02*
X117095238Y-48952380D01*
X116904761Y-48952380D01*
X116809523Y-48904761D01*
X116761904Y-48809523D01*
X116761904Y-48428571D01*
X116809523Y-48333333D01*
X116904761Y-48285714D01*
X117095238Y-48285714D01*
X117190476Y-48333333D01*
X117238095Y-48428571D01*
X117238095Y-48523809D01*
X116761904Y-48619047D01*
%TO.C,BT1*%
X130274571Y-38240517D02*
X130322190Y-38097660D01*
X130369809Y-38050041D01*
X130465047Y-38002422D01*
X130607904Y-38002422D01*
X130703142Y-38050041D01*
X130750761Y-38097660D01*
X130798380Y-38192898D01*
X130798380Y-38573850D01*
X129798380Y-38573850D01*
X129798380Y-38240517D01*
X129846000Y-38145279D01*
X129893619Y-38097660D01*
X129988857Y-38050041D01*
X130084095Y-38050041D01*
X130179333Y-38097660D01*
X130226952Y-38145279D01*
X130274571Y-38240517D01*
X130274571Y-38573850D01*
X129798380Y-37716707D02*
X129798380Y-37145279D01*
X130798380Y-37430993D02*
X129798380Y-37430993D01*
X130798380Y-36288136D02*
X130798380Y-36859564D01*
X130798380Y-36573850D02*
X129798380Y-36573850D01*
X129941238Y-36669088D01*
X130036476Y-36764326D01*
X130084095Y-36859564D01*
X123119047Y-29357142D02*
X123071428Y-29404761D01*
X122928571Y-29452380D01*
X122833333Y-29452380D01*
X122690476Y-29404761D01*
X122595238Y-29309523D01*
X122547619Y-29214285D01*
X122500000Y-29023809D01*
X122500000Y-28880952D01*
X122547619Y-28690476D01*
X122595238Y-28595238D01*
X122690476Y-28500000D01*
X122833333Y-28452380D01*
X122928571Y-28452380D01*
X123071428Y-28500000D01*
X123119047Y-28547619D01*
X124119047Y-29452380D02*
X123785714Y-28976190D01*
X123547619Y-29452380D02*
X123547619Y-28452380D01*
X123928571Y-28452380D01*
X124023809Y-28500000D01*
X124071428Y-28547619D01*
X124119047Y-28642857D01*
X124119047Y-28785714D01*
X124071428Y-28880952D01*
X124023809Y-28928571D01*
X123928571Y-28976190D01*
X123547619Y-28976190D01*
X124500000Y-28547619D02*
X124547619Y-28500000D01*
X124642857Y-28452380D01*
X124880952Y-28452380D01*
X124976190Y-28500000D01*
X125023809Y-28547619D01*
X125071428Y-28642857D01*
X125071428Y-28738095D01*
X125023809Y-28880952D01*
X124452380Y-29452380D01*
X125071428Y-29452380D01*
X125690476Y-28452380D02*
X125785714Y-28452380D01*
X125880952Y-28500000D01*
X125928571Y-28547619D01*
X125976190Y-28642857D01*
X126023809Y-28833333D01*
X126023809Y-29071428D01*
X125976190Y-29261904D01*
X125928571Y-29357142D01*
X125880952Y-29404761D01*
X125785714Y-29452380D01*
X125690476Y-29452380D01*
X125595238Y-29404761D01*
X125547619Y-29357142D01*
X125500000Y-29261904D01*
X125452380Y-29071428D01*
X125452380Y-28833333D01*
X125500000Y-28642857D01*
X125547619Y-28547619D01*
X125595238Y-28500000D01*
X125690476Y-28452380D01*
X126357142Y-28452380D02*
X126976190Y-28452380D01*
X126642857Y-28833333D01*
X126785714Y-28833333D01*
X126880952Y-28880952D01*
X126928571Y-28928571D01*
X126976190Y-29023809D01*
X126976190Y-29261904D01*
X126928571Y-29357142D01*
X126880952Y-29404761D01*
X126785714Y-29452380D01*
X126500000Y-29452380D01*
X126404761Y-29404761D01*
X126357142Y-29357142D01*
X127357142Y-28547619D02*
X127404761Y-28500000D01*
X127500000Y-28452380D01*
X127738095Y-28452380D01*
X127833333Y-28500000D01*
X127880952Y-28547619D01*
X127928571Y-28642857D01*
X127928571Y-28738095D01*
X127880952Y-28880952D01*
X127309523Y-29452380D01*
X127928571Y-29452380D01*
X129690476Y-29452380D02*
X129357142Y-28976190D01*
X129119047Y-29452380D02*
X129119047Y-28452380D01*
X129500000Y-28452380D01*
X129595238Y-28500000D01*
X129642857Y-28547619D01*
X129690476Y-28642857D01*
X129690476Y-28785714D01*
X129642857Y-28880952D01*
X129595238Y-28928571D01*
X129500000Y-28976190D01*
X129119047Y-28976190D01*
X129976190Y-28452380D02*
X130547619Y-28452380D01*
X130261904Y-29452380D02*
X130261904Y-28452380D01*
X131452380Y-29357142D02*
X131404761Y-29404761D01*
X131261904Y-29452380D01*
X131166666Y-29452380D01*
X131023809Y-29404761D01*
X130928571Y-29309523D01*
X130880952Y-29214285D01*
X130833333Y-29023809D01*
X130833333Y-28880952D01*
X130880952Y-28690476D01*
X130928571Y-28595238D01*
X131023809Y-28500000D01*
X131166666Y-28452380D01*
X131261904Y-28452380D01*
X131404761Y-28500000D01*
X131452380Y-28547619D01*
X132976190Y-28928571D02*
X133119047Y-28976190D01*
X133166666Y-29023809D01*
X133214285Y-29119047D01*
X133214285Y-29261904D01*
X133166666Y-29357142D01*
X133119047Y-29404761D01*
X133023809Y-29452380D01*
X132642857Y-29452380D01*
X132642857Y-28452380D01*
X132976190Y-28452380D01*
X133071428Y-28500000D01*
X133119047Y-28547619D01*
X133166666Y-28642857D01*
X133166666Y-28738095D01*
X133119047Y-28833333D01*
X133071428Y-28880952D01*
X132976190Y-28928571D01*
X132642857Y-28928571D01*
X134071428Y-29452380D02*
X134071428Y-28928571D01*
X134023809Y-28833333D01*
X133928571Y-28785714D01*
X133738095Y-28785714D01*
X133642857Y-28833333D01*
X134071428Y-29404761D02*
X133976190Y-29452380D01*
X133738095Y-29452380D01*
X133642857Y-29404761D01*
X133595238Y-29309523D01*
X133595238Y-29214285D01*
X133642857Y-29119047D01*
X133738095Y-29071428D01*
X133976190Y-29071428D01*
X134071428Y-29023809D01*
X134404761Y-28785714D02*
X134785714Y-28785714D01*
X134547619Y-28452380D02*
X134547619Y-29309523D01*
X134595238Y-29404761D01*
X134690476Y-29452380D01*
X134785714Y-29452380D01*
X134976190Y-28785714D02*
X135357142Y-28785714D01*
X135119047Y-28452380D02*
X135119047Y-29309523D01*
X135166666Y-29404761D01*
X135261904Y-29452380D01*
X135357142Y-29452380D01*
X136071428Y-29404761D02*
X135976190Y-29452380D01*
X135785714Y-29452380D01*
X135690476Y-29404761D01*
X135642857Y-29309523D01*
X135642857Y-28928571D01*
X135690476Y-28833333D01*
X135785714Y-28785714D01*
X135976190Y-28785714D01*
X136071428Y-28833333D01*
X136119047Y-28928571D01*
X136119047Y-29023809D01*
X135642857Y-29119047D01*
X136547619Y-29452380D02*
X136547619Y-28785714D01*
X136547619Y-28976190D02*
X136595238Y-28880952D01*
X136642857Y-28833333D01*
X136738095Y-28785714D01*
X136833333Y-28785714D01*
X137071428Y-28785714D02*
X137309523Y-29452380D01*
X137547619Y-28785714D02*
X137309523Y-29452380D01*
X137214285Y-29690476D01*
X137166666Y-29738095D01*
X137071428Y-29785714D01*
X129798380Y-20520598D02*
X130036476Y-20520598D01*
X129941238Y-20758693D02*
X130036476Y-20520598D01*
X129941238Y-20282502D01*
X130226952Y-20663455D02*
X130036476Y-20520598D01*
X130226952Y-20377740D01*
X129798380Y-20520598D02*
X130036476Y-20520598D01*
X129941238Y-20758693D02*
X130036476Y-20520598D01*
X129941238Y-20282502D01*
X130226952Y-20663455D02*
X130036476Y-20520598D01*
X130226952Y-20377740D01*
D11*
%TO.C,Sensor Extension*%
X78017142Y-54014047D02*
X78198571Y-54074523D01*
X78500952Y-54074523D01*
X78621904Y-54014047D01*
X78682380Y-53953571D01*
X78742857Y-53832619D01*
X78742857Y-53711666D01*
X78682380Y-53590714D01*
X78621904Y-53530238D01*
X78500952Y-53469761D01*
X78259047Y-53409285D01*
X78138095Y-53348809D01*
X78077619Y-53288333D01*
X78017142Y-53167380D01*
X78017142Y-53046428D01*
X78077619Y-52925476D01*
X78138095Y-52865000D01*
X78259047Y-52804523D01*
X78561428Y-52804523D01*
X78742857Y-52865000D01*
X79770952Y-54014047D02*
X79650000Y-54074523D01*
X79408095Y-54074523D01*
X79287142Y-54014047D01*
X79226666Y-53893095D01*
X79226666Y-53409285D01*
X79287142Y-53288333D01*
X79408095Y-53227857D01*
X79650000Y-53227857D01*
X79770952Y-53288333D01*
X79831428Y-53409285D01*
X79831428Y-53530238D01*
X79226666Y-53651190D01*
X80375714Y-53227857D02*
X80375714Y-54074523D01*
X80375714Y-53348809D02*
X80436190Y-53288333D01*
X80557142Y-53227857D01*
X80738571Y-53227857D01*
X80859523Y-53288333D01*
X80920000Y-53409285D01*
X80920000Y-54074523D01*
X81464285Y-54014047D02*
X81585238Y-54074523D01*
X81827142Y-54074523D01*
X81948095Y-54014047D01*
X82008571Y-53893095D01*
X82008571Y-53832619D01*
X81948095Y-53711666D01*
X81827142Y-53651190D01*
X81645714Y-53651190D01*
X81524761Y-53590714D01*
X81464285Y-53469761D01*
X81464285Y-53409285D01*
X81524761Y-53288333D01*
X81645714Y-53227857D01*
X81827142Y-53227857D01*
X81948095Y-53288333D01*
X82734285Y-54074523D02*
X82613333Y-54014047D01*
X82552857Y-53953571D01*
X82492380Y-53832619D01*
X82492380Y-53469761D01*
X82552857Y-53348809D01*
X82613333Y-53288333D01*
X82734285Y-53227857D01*
X82915714Y-53227857D01*
X83036666Y-53288333D01*
X83097142Y-53348809D01*
X83157619Y-53469761D01*
X83157619Y-53832619D01*
X83097142Y-53953571D01*
X83036666Y-54014047D01*
X82915714Y-54074523D01*
X82734285Y-54074523D01*
X83701904Y-54074523D02*
X83701904Y-53227857D01*
X83701904Y-53469761D02*
X83762380Y-53348809D01*
X83822857Y-53288333D01*
X83943809Y-53227857D01*
X84064761Y-53227857D01*
X85455714Y-53409285D02*
X85879047Y-53409285D01*
X86060476Y-54074523D02*
X85455714Y-54074523D01*
X85455714Y-52804523D01*
X86060476Y-52804523D01*
X86483809Y-54074523D02*
X87149047Y-53227857D01*
X86483809Y-53227857D02*
X87149047Y-54074523D01*
X87451428Y-53227857D02*
X87935238Y-53227857D01*
X87632857Y-52804523D02*
X87632857Y-53893095D01*
X87693333Y-54014047D01*
X87814285Y-54074523D01*
X87935238Y-54074523D01*
X88842380Y-54014047D02*
X88721428Y-54074523D01*
X88479523Y-54074523D01*
X88358571Y-54014047D01*
X88298095Y-53893095D01*
X88298095Y-53409285D01*
X88358571Y-53288333D01*
X88479523Y-53227857D01*
X88721428Y-53227857D01*
X88842380Y-53288333D01*
X88902857Y-53409285D01*
X88902857Y-53530238D01*
X88298095Y-53651190D01*
X89447142Y-53227857D02*
X89447142Y-54074523D01*
X89447142Y-53348809D02*
X89507619Y-53288333D01*
X89628571Y-53227857D01*
X89810000Y-53227857D01*
X89930952Y-53288333D01*
X89991428Y-53409285D01*
X89991428Y-54074523D01*
X90535714Y-54014047D02*
X90656666Y-54074523D01*
X90898571Y-54074523D01*
X91019523Y-54014047D01*
X91080000Y-53893095D01*
X91080000Y-53832619D01*
X91019523Y-53711666D01*
X90898571Y-53651190D01*
X90717142Y-53651190D01*
X90596190Y-53590714D01*
X90535714Y-53469761D01*
X90535714Y-53409285D01*
X90596190Y-53288333D01*
X90717142Y-53227857D01*
X90898571Y-53227857D01*
X91019523Y-53288333D01*
X91624285Y-54074523D02*
X91624285Y-53227857D01*
X91624285Y-52804523D02*
X91563809Y-52865000D01*
X91624285Y-52925476D01*
X91684761Y-52865000D01*
X91624285Y-52804523D01*
X91624285Y-52925476D01*
X92410476Y-54074523D02*
X92289523Y-54014047D01*
X92229047Y-53953571D01*
X92168571Y-53832619D01*
X92168571Y-53469761D01*
X92229047Y-53348809D01*
X92289523Y-53288333D01*
X92410476Y-53227857D01*
X92591904Y-53227857D01*
X92712857Y-53288333D01*
X92773333Y-53348809D01*
X92833809Y-53469761D01*
X92833809Y-53832619D01*
X92773333Y-53953571D01*
X92712857Y-54014047D01*
X92591904Y-54074523D01*
X92410476Y-54074523D01*
X93378095Y-53227857D02*
X93378095Y-54074523D01*
X93378095Y-53348809D02*
X93438571Y-53288333D01*
X93559523Y-53227857D01*
X93740952Y-53227857D01*
X93861904Y-53288333D01*
X93922380Y-53409285D01*
X93922380Y-54074523D01*
D10*
%TO.C,R11*%
X149357142Y-35302380D02*
X149023809Y-34826190D01*
X148785714Y-35302380D02*
X148785714Y-34302380D01*
X149166666Y-34302380D01*
X149261904Y-34350000D01*
X149309523Y-34397619D01*
X149357142Y-34492857D01*
X149357142Y-34635714D01*
X149309523Y-34730952D01*
X149261904Y-34778571D01*
X149166666Y-34826190D01*
X148785714Y-34826190D01*
X150309523Y-35302380D02*
X149738095Y-35302380D01*
X150023809Y-35302380D02*
X150023809Y-34302380D01*
X149928571Y-34445238D01*
X149833333Y-34540476D01*
X149738095Y-34588095D01*
X151261904Y-35302380D02*
X150690476Y-35302380D01*
X150976190Y-35302380D02*
X150976190Y-34302380D01*
X150880952Y-34445238D01*
X150785714Y-34540476D01*
X150690476Y-34588095D01*
%TO.C,R9*%
X146783333Y-32452380D02*
X146450000Y-31976190D01*
X146211904Y-32452380D02*
X146211904Y-31452380D01*
X146592857Y-31452380D01*
X146688095Y-31500000D01*
X146735714Y-31547619D01*
X146783333Y-31642857D01*
X146783333Y-31785714D01*
X146735714Y-31880952D01*
X146688095Y-31928571D01*
X146592857Y-31976190D01*
X146211904Y-31976190D01*
X147259523Y-32452380D02*
X147450000Y-32452380D01*
X147545238Y-32404761D01*
X147592857Y-32357142D01*
X147688095Y-32214285D01*
X147735714Y-32023809D01*
X147735714Y-31642857D01*
X147688095Y-31547619D01*
X147640476Y-31500000D01*
X147545238Y-31452380D01*
X147354761Y-31452380D01*
X147259523Y-31500000D01*
X147211904Y-31547619D01*
X147164285Y-31642857D01*
X147164285Y-31880952D01*
X147211904Y-31976190D01*
X147259523Y-32023809D01*
X147354761Y-32071428D01*
X147545238Y-32071428D01*
X147640476Y-32023809D01*
X147688095Y-31976190D01*
X147735714Y-31880952D01*
%TO.C,SD Card*%
X83809311Y-37969029D02*
X84038006Y-38045261D01*
X84419165Y-38045261D01*
X84571628Y-37969029D01*
X84647860Y-37892797D01*
X84724091Y-37740334D01*
X84724091Y-37587871D01*
X84647860Y-37435407D01*
X84571628Y-37359175D01*
X84419165Y-37282944D01*
X84114238Y-37206712D01*
X83961774Y-37130480D01*
X83885543Y-37054249D01*
X83809311Y-36901785D01*
X83809311Y-36749322D01*
X83885543Y-36596858D01*
X83961774Y-36520627D01*
X84114238Y-36444395D01*
X84495396Y-36444395D01*
X84724091Y-36520627D01*
X85410177Y-38045261D02*
X85410177Y-36444395D01*
X85791335Y-36444395D01*
X86020031Y-36520627D01*
X86172494Y-36673090D01*
X86248726Y-36825553D01*
X86324957Y-37130480D01*
X86324957Y-37359175D01*
X86248726Y-37664102D01*
X86172494Y-37816566D01*
X86020031Y-37969029D01*
X85791335Y-38045261D01*
X85410177Y-38045261D01*
X89145531Y-37892797D02*
X89069299Y-37969029D01*
X88840604Y-38045261D01*
X88688141Y-38045261D01*
X88459445Y-37969029D01*
X88306982Y-37816566D01*
X88230750Y-37664102D01*
X88154519Y-37359175D01*
X88154519Y-37130480D01*
X88230750Y-36825553D01*
X88306982Y-36673090D01*
X88459445Y-36520627D01*
X88688141Y-36444395D01*
X88840604Y-36444395D01*
X89069299Y-36520627D01*
X89145531Y-36596858D01*
X90517702Y-38045261D02*
X90517702Y-37206712D01*
X90441470Y-37054249D01*
X90289007Y-36978017D01*
X89984080Y-36978017D01*
X89831616Y-37054249D01*
X90517702Y-37969029D02*
X90365238Y-38045261D01*
X89984080Y-38045261D01*
X89831616Y-37969029D01*
X89755385Y-37816566D01*
X89755385Y-37664102D01*
X89831616Y-37511639D01*
X89984080Y-37435407D01*
X90365238Y-37435407D01*
X90517702Y-37359175D01*
X91280019Y-38045261D02*
X91280019Y-36978017D01*
X91280019Y-37282944D02*
X91356251Y-37130480D01*
X91432482Y-37054249D01*
X91584946Y-36978017D01*
X91737409Y-36978017D01*
X92957117Y-38045261D02*
X92957117Y-36444395D01*
X92957117Y-37969029D02*
X92804653Y-38045261D01*
X92499726Y-38045261D01*
X92347263Y-37969029D01*
X92271031Y-37892797D01*
X92194799Y-37740334D01*
X92194799Y-37282944D01*
X92271031Y-37130480D01*
X92347263Y-37054249D01*
X92499726Y-36978017D01*
X92804653Y-36978017D01*
X92957117Y-37054249D01*
%TO.C,R8*%
X97333333Y-22802380D02*
X97000000Y-22326190D01*
X96761904Y-22802380D02*
X96761904Y-21802380D01*
X97142857Y-21802380D01*
X97238095Y-21850000D01*
X97285714Y-21897619D01*
X97333333Y-21992857D01*
X97333333Y-22135714D01*
X97285714Y-22230952D01*
X97238095Y-22278571D01*
X97142857Y-22326190D01*
X96761904Y-22326190D01*
X97904761Y-22230952D02*
X97809523Y-22183333D01*
X97761904Y-22135714D01*
X97714285Y-22040476D01*
X97714285Y-21992857D01*
X97761904Y-21897619D01*
X97809523Y-21850000D01*
X97904761Y-21802380D01*
X98095238Y-21802380D01*
X98190476Y-21850000D01*
X98238095Y-21897619D01*
X98285714Y-21992857D01*
X98285714Y-22040476D01*
X98238095Y-22135714D01*
X98190476Y-22183333D01*
X98095238Y-22230952D01*
X97904761Y-22230952D01*
X97809523Y-22278571D01*
X97761904Y-22326190D01*
X97714285Y-22421428D01*
X97714285Y-22611904D01*
X97761904Y-22707142D01*
X97809523Y-22754761D01*
X97904761Y-22802380D01*
X98095238Y-22802380D01*
X98190476Y-22754761D01*
X98238095Y-22707142D01*
X98285714Y-22611904D01*
X98285714Y-22421428D01*
X98238095Y-22326190D01*
X98190476Y-22278571D01*
X98095238Y-22230952D01*
%TO.C,C2*%
X170783333Y-50867142D02*
X170735714Y-50914761D01*
X170592857Y-50962380D01*
X170497619Y-50962380D01*
X170354761Y-50914761D01*
X170259523Y-50819523D01*
X170211904Y-50724285D01*
X170164285Y-50533809D01*
X170164285Y-50390952D01*
X170211904Y-50200476D01*
X170259523Y-50105238D01*
X170354761Y-50010000D01*
X170497619Y-49962380D01*
X170592857Y-49962380D01*
X170735714Y-50010000D01*
X170783333Y-50057619D01*
X171164285Y-50057619D02*
X171211904Y-50010000D01*
X171307142Y-49962380D01*
X171545238Y-49962380D01*
X171640476Y-50010000D01*
X171688095Y-50057619D01*
X171735714Y-50152857D01*
X171735714Y-50248095D01*
X171688095Y-50390952D01*
X171116666Y-50962380D01*
X171735714Y-50962380D01*
%TO.C,U7*%
X170238095Y-40952380D02*
X170238095Y-41761904D01*
X170285714Y-41857142D01*
X170333333Y-41904761D01*
X170428571Y-41952380D01*
X170619047Y-41952380D01*
X170714285Y-41904761D01*
X170761904Y-41857142D01*
X170809523Y-41761904D01*
X170809523Y-40952380D01*
X171190476Y-40952380D02*
X171857142Y-40952380D01*
X171428571Y-41952380D01*
X161547619Y-43904761D02*
X161690476Y-43952380D01*
X161928571Y-43952380D01*
X162023809Y-43904761D01*
X162071428Y-43857142D01*
X162119047Y-43761904D01*
X162119047Y-43666666D01*
X162071428Y-43571428D01*
X162023809Y-43523809D01*
X161928571Y-43476190D01*
X161738095Y-43428571D01*
X161642857Y-43380952D01*
X161595238Y-43333333D01*
X161547619Y-43238095D01*
X161547619Y-43142857D01*
X161595238Y-43047619D01*
X161642857Y-43000000D01*
X161738095Y-42952380D01*
X161976190Y-42952380D01*
X162119047Y-43000000D01*
X163071428Y-43000000D02*
X162976190Y-42952380D01*
X162833333Y-42952380D01*
X162690476Y-43000000D01*
X162595238Y-43095238D01*
X162547619Y-43190476D01*
X162500000Y-43380952D01*
X162500000Y-43523809D01*
X162547619Y-43714285D01*
X162595238Y-43809523D01*
X162690476Y-43904761D01*
X162833333Y-43952380D01*
X162928571Y-43952380D01*
X163071428Y-43904761D01*
X163119047Y-43857142D01*
X163119047Y-43523809D01*
X162928571Y-43523809D01*
X163547619Y-43952380D02*
X163547619Y-42952380D01*
X163928571Y-42952380D01*
X164023809Y-43000000D01*
X164071428Y-43047619D01*
X164119047Y-43142857D01*
X164119047Y-43285714D01*
X164071428Y-43380952D01*
X164023809Y-43428571D01*
X163928571Y-43476190D01*
X163547619Y-43476190D01*
X164976190Y-43285714D02*
X164976190Y-43952380D01*
X164738095Y-42904761D02*
X164500000Y-43619047D01*
X165119047Y-43619047D01*
X165690476Y-42952380D02*
X165785714Y-42952380D01*
X165880952Y-43000000D01*
X165928571Y-43047619D01*
X165976190Y-43142857D01*
X166023809Y-43333333D01*
X166023809Y-43571428D01*
X165976190Y-43761904D01*
X165928571Y-43857142D01*
X165880952Y-43904761D01*
X165785714Y-43952380D01*
X165690476Y-43952380D01*
X165595238Y-43904761D01*
X165547619Y-43857142D01*
X165500000Y-43761904D01*
X165452380Y-43571428D01*
X165452380Y-43333333D01*
X165500000Y-43142857D01*
X165547619Y-43047619D01*
X165595238Y-43000000D01*
X165690476Y-42952380D01*
X166452380Y-43571428D02*
X167214285Y-43571428D01*
X167690476Y-43952380D02*
X167690476Y-42952380D01*
X167928571Y-42952380D01*
X168071428Y-43000000D01*
X168166666Y-43095238D01*
X168214285Y-43190476D01*
X168261904Y-43380952D01*
X168261904Y-43523809D01*
X168214285Y-43714285D01*
X168166666Y-43809523D01*
X168071428Y-43904761D01*
X167928571Y-43952380D01*
X167690476Y-43952380D01*
X168690476Y-43571428D02*
X169452380Y-43571428D01*
X170500000Y-43952380D02*
X170166666Y-43476190D01*
X169928571Y-43952380D02*
X169928571Y-42952380D01*
X170309523Y-42952380D01*
X170404761Y-43000000D01*
X170452380Y-43047619D01*
X170500000Y-43142857D01*
X170500000Y-43285714D01*
X170452380Y-43380952D01*
X170404761Y-43428571D01*
X170309523Y-43476190D01*
X169928571Y-43476190D01*
X171357142Y-43285714D02*
X171357142Y-43952380D01*
X171119047Y-42904761D02*
X170880952Y-43619047D01*
X171500000Y-43619047D01*
X174000000Y-42952380D02*
X174000000Y-43190476D01*
X173761904Y-43095238D02*
X174000000Y-43190476D01*
X174238095Y-43095238D01*
X173857142Y-43380952D02*
X174000000Y-43190476D01*
X174142857Y-43380952D01*
%TO.C,C3*%
X110333333Y-40857142D02*
X110285714Y-40904761D01*
X110142857Y-40952380D01*
X110047619Y-40952380D01*
X109904761Y-40904761D01*
X109809523Y-40809523D01*
X109761904Y-40714285D01*
X109714285Y-40523809D01*
X109714285Y-40380952D01*
X109761904Y-40190476D01*
X109809523Y-40095238D01*
X109904761Y-40000000D01*
X110047619Y-39952380D01*
X110142857Y-39952380D01*
X110285714Y-40000000D01*
X110333333Y-40047619D01*
X110666666Y-39952380D02*
X111285714Y-39952380D01*
X110952380Y-40333333D01*
X111095238Y-40333333D01*
X111190476Y-40380952D01*
X111238095Y-40428571D01*
X111285714Y-40523809D01*
X111285714Y-40761904D01*
X111238095Y-40857142D01*
X111190476Y-40904761D01*
X111095238Y-40952380D01*
X110809523Y-40952380D01*
X110714285Y-40904761D01*
X110666666Y-40857142D01*
%TO.C,R12*%
X149357142Y-38802380D02*
X149023809Y-38326190D01*
X148785714Y-38802380D02*
X148785714Y-37802380D01*
X149166666Y-37802380D01*
X149261904Y-37850000D01*
X149309523Y-37897619D01*
X149357142Y-37992857D01*
X149357142Y-38135714D01*
X149309523Y-38230952D01*
X149261904Y-38278571D01*
X149166666Y-38326190D01*
X148785714Y-38326190D01*
X150309523Y-38802380D02*
X149738095Y-38802380D01*
X150023809Y-38802380D02*
X150023809Y-37802380D01*
X149928571Y-37945238D01*
X149833333Y-38040476D01*
X149738095Y-38088095D01*
X150690476Y-37897619D02*
X150738095Y-37850000D01*
X150833333Y-37802380D01*
X151071428Y-37802380D01*
X151166666Y-37850000D01*
X151214285Y-37897619D01*
X151261904Y-37992857D01*
X151261904Y-38088095D01*
X151214285Y-38230952D01*
X150642857Y-38802380D01*
X151261904Y-38802380D01*
%TO.C,C8*%
X181037142Y-23166666D02*
X181084761Y-23214285D01*
X181132380Y-23357142D01*
X181132380Y-23452380D01*
X181084761Y-23595238D01*
X180989523Y-23690476D01*
X180894285Y-23738095D01*
X180703809Y-23785714D01*
X180560952Y-23785714D01*
X180370476Y-23738095D01*
X180275238Y-23690476D01*
X180180000Y-23595238D01*
X180132380Y-23452380D01*
X180132380Y-23357142D01*
X180180000Y-23214285D01*
X180227619Y-23166666D01*
X180560952Y-22595238D02*
X180513333Y-22690476D01*
X180465714Y-22738095D01*
X180370476Y-22785714D01*
X180322857Y-22785714D01*
X180227619Y-22738095D01*
X180180000Y-22690476D01*
X180132380Y-22595238D01*
X180132380Y-22404761D01*
X180180000Y-22309523D01*
X180227619Y-22261904D01*
X180322857Y-22214285D01*
X180370476Y-22214285D01*
X180465714Y-22261904D01*
X180513333Y-22309523D01*
X180560952Y-22404761D01*
X180560952Y-22595238D01*
X180608571Y-22690476D01*
X180656190Y-22738095D01*
X180751428Y-22785714D01*
X180941904Y-22785714D01*
X181037142Y-22738095D01*
X181084761Y-22690476D01*
X181132380Y-22595238D01*
X181132380Y-22404761D01*
X181084761Y-22309523D01*
X181037142Y-22261904D01*
X180941904Y-22214285D01*
X180751428Y-22214285D01*
X180656190Y-22261904D01*
X180608571Y-22309523D01*
X180560952Y-22404761D01*
%TO.C,JP5*%
X143666666Y-44952380D02*
X143666666Y-45666666D01*
X143619047Y-45809523D01*
X143523809Y-45904761D01*
X143380952Y-45952380D01*
X143285714Y-45952380D01*
X144142857Y-45952380D02*
X144142857Y-44952380D01*
X144523809Y-44952380D01*
X144619047Y-45000000D01*
X144666666Y-45047619D01*
X144714285Y-45142857D01*
X144714285Y-45285714D01*
X144666666Y-45380952D01*
X144619047Y-45428571D01*
X144523809Y-45476190D01*
X144142857Y-45476190D01*
X145619047Y-44952380D02*
X145142857Y-44952380D01*
X145095238Y-45428571D01*
X145142857Y-45380952D01*
X145238095Y-45333333D01*
X145476190Y-45333333D01*
X145571428Y-45380952D01*
X145619047Y-45428571D01*
X145666666Y-45523809D01*
X145666666Y-45761904D01*
X145619047Y-45857142D01*
X145571428Y-45904761D01*
X145476190Y-45952380D01*
X145238095Y-45952380D01*
X145142857Y-45904761D01*
X145095238Y-45857142D01*
X149904761Y-45904761D02*
X150047619Y-45952380D01*
X150285714Y-45952380D01*
X150380952Y-45904761D01*
X150428571Y-45857142D01*
X150476190Y-45761904D01*
X150476190Y-45666666D01*
X150428571Y-45571428D01*
X150380952Y-45523809D01*
X150285714Y-45476190D01*
X150095238Y-45428571D01*
X150000000Y-45380952D01*
X149952380Y-45333333D01*
X149904761Y-45238095D01*
X149904761Y-45142857D01*
X149952380Y-45047619D01*
X150000000Y-45000000D01*
X150095238Y-44952380D01*
X150333333Y-44952380D01*
X150476190Y-45000000D01*
X151285714Y-45904761D02*
X151190476Y-45952380D01*
X151000000Y-45952380D01*
X150904761Y-45904761D01*
X150857142Y-45809523D01*
X150857142Y-45428571D01*
X150904761Y-45333333D01*
X151000000Y-45285714D01*
X151190476Y-45285714D01*
X151285714Y-45333333D01*
X151333333Y-45428571D01*
X151333333Y-45523809D01*
X150857142Y-45619047D01*
X151761904Y-45285714D02*
X151761904Y-45952380D01*
X151761904Y-45380952D02*
X151809523Y-45333333D01*
X151904761Y-45285714D01*
X152047619Y-45285714D01*
X152142857Y-45333333D01*
X152190476Y-45428571D01*
X152190476Y-45952380D01*
X152619047Y-45904761D02*
X152714285Y-45952380D01*
X152904761Y-45952380D01*
X153000000Y-45904761D01*
X153047619Y-45809523D01*
X153047619Y-45761904D01*
X153000000Y-45666666D01*
X152904761Y-45619047D01*
X152761904Y-45619047D01*
X152666666Y-45571428D01*
X152619047Y-45476190D01*
X152619047Y-45428571D01*
X152666666Y-45333333D01*
X152761904Y-45285714D01*
X152904761Y-45285714D01*
X153000000Y-45333333D01*
X153619047Y-45952380D02*
X153523809Y-45904761D01*
X153476190Y-45857142D01*
X153428571Y-45761904D01*
X153428571Y-45476190D01*
X153476190Y-45380952D01*
X153523809Y-45333333D01*
X153619047Y-45285714D01*
X153761904Y-45285714D01*
X153857142Y-45333333D01*
X153904761Y-45380952D01*
X153952380Y-45476190D01*
X153952380Y-45761904D01*
X153904761Y-45857142D01*
X153857142Y-45904761D01*
X153761904Y-45952380D01*
X153619047Y-45952380D01*
X154380952Y-45952380D02*
X154380952Y-45285714D01*
X154380952Y-45476190D02*
X154428571Y-45380952D01*
X154476190Y-45333333D01*
X154571428Y-45285714D01*
X154666666Y-45285714D01*
X154761904Y-46047619D02*
X155523809Y-46047619D01*
X156238095Y-45952380D02*
X155761904Y-45952380D01*
X155761904Y-44952380D01*
X156571428Y-45952380D02*
X156571428Y-44952380D01*
X156809523Y-44952380D01*
X156952380Y-45000000D01*
X157047619Y-45095238D01*
X157095238Y-45190476D01*
X157142857Y-45380952D01*
X157142857Y-45523809D01*
X157095238Y-45714285D01*
X157047619Y-45809523D01*
X156952380Y-45904761D01*
X156809523Y-45952380D01*
X156571428Y-45952380D01*
X157761904Y-44952380D02*
X157952380Y-44952380D01*
X158047619Y-45000000D01*
X158142857Y-45095238D01*
X158190476Y-45285714D01*
X158190476Y-45619047D01*
X158142857Y-45809523D01*
X158047619Y-45904761D01*
X157952380Y-45952380D01*
X157761904Y-45952380D01*
X157666666Y-45904761D01*
X157571428Y-45809523D01*
X157523809Y-45619047D01*
X157523809Y-45285714D01*
X157571428Y-45095238D01*
X157666666Y-45000000D01*
X157761904Y-44952380D01*
X158380952Y-46047619D02*
X159142857Y-46047619D01*
X159571428Y-44952380D02*
X159761904Y-44952380D01*
X159857142Y-45000000D01*
X159952380Y-45095238D01*
X160000000Y-45285714D01*
X160000000Y-45619047D01*
X159952380Y-45809523D01*
X159857142Y-45904761D01*
X159761904Y-45952380D01*
X159571428Y-45952380D01*
X159476190Y-45904761D01*
X159380952Y-45809523D01*
X159333333Y-45619047D01*
X159333333Y-45285714D01*
X159380952Y-45095238D01*
X159476190Y-45000000D01*
X159571428Y-44952380D01*
X160333333Y-45285714D02*
X160571428Y-45952380D01*
X160809523Y-45285714D01*
X161571428Y-45904761D02*
X161476190Y-45952380D01*
X161285714Y-45952380D01*
X161190476Y-45904761D01*
X161142857Y-45809523D01*
X161142857Y-45428571D01*
X161190476Y-45333333D01*
X161285714Y-45285714D01*
X161476190Y-45285714D01*
X161571428Y-45333333D01*
X161619047Y-45428571D01*
X161619047Y-45523809D01*
X161142857Y-45619047D01*
X162047619Y-45952380D02*
X162047619Y-45285714D01*
X162047619Y-45476190D02*
X162095238Y-45380952D01*
X162142857Y-45333333D01*
X162238095Y-45285714D01*
X162333333Y-45285714D01*
X162666666Y-45952380D02*
X162666666Y-45285714D01*
X162666666Y-45476190D02*
X162714285Y-45380952D01*
X162761904Y-45333333D01*
X162857142Y-45285714D01*
X162952380Y-45285714D01*
X163285714Y-45952380D02*
X163285714Y-45285714D01*
X163285714Y-44952380D02*
X163238095Y-45000000D01*
X163285714Y-45047619D01*
X163333333Y-45000000D01*
X163285714Y-44952380D01*
X163285714Y-45047619D01*
X164190476Y-45952380D02*
X164190476Y-44952380D01*
X164190476Y-45904761D02*
X164095238Y-45952380D01*
X163904761Y-45952380D01*
X163809523Y-45904761D01*
X163761904Y-45857142D01*
X163714285Y-45761904D01*
X163714285Y-45476190D01*
X163761904Y-45380952D01*
X163809523Y-45333333D01*
X163904761Y-45285714D01*
X164095238Y-45285714D01*
X164190476Y-45333333D01*
X165047619Y-45904761D02*
X164952380Y-45952380D01*
X164761904Y-45952380D01*
X164666666Y-45904761D01*
X164619047Y-45809523D01*
X164619047Y-45428571D01*
X164666666Y-45333333D01*
X164761904Y-45285714D01*
X164952380Y-45285714D01*
X165047619Y-45333333D01*
X165095238Y-45428571D01*
X165095238Y-45523809D01*
X164619047Y-45619047D01*
%TO.C,C4*%
X190833333Y-40857142D02*
X190785714Y-40904761D01*
X190642857Y-40952380D01*
X190547619Y-40952380D01*
X190404761Y-40904761D01*
X190309523Y-40809523D01*
X190261904Y-40714285D01*
X190214285Y-40523809D01*
X190214285Y-40380952D01*
X190261904Y-40190476D01*
X190309523Y-40095238D01*
X190404761Y-40000000D01*
X190547619Y-39952380D01*
X190642857Y-39952380D01*
X190785714Y-40000000D01*
X190833333Y-40047619D01*
X191690476Y-40285714D02*
X191690476Y-40952380D01*
X191452380Y-39904761D02*
X191214285Y-40619047D01*
X191833333Y-40619047D01*
%TO.C,JP1*%
X143666666Y-47452380D02*
X143666666Y-48166666D01*
X143619047Y-48309523D01*
X143523809Y-48404761D01*
X143380952Y-48452380D01*
X143285714Y-48452380D01*
X144142857Y-48452380D02*
X144142857Y-47452380D01*
X144523809Y-47452380D01*
X144619047Y-47500000D01*
X144666666Y-47547619D01*
X144714285Y-47642857D01*
X144714285Y-47785714D01*
X144666666Y-47880952D01*
X144619047Y-47928571D01*
X144523809Y-47976190D01*
X144142857Y-47976190D01*
X145666666Y-48452380D02*
X145095238Y-48452380D01*
X145380952Y-48452380D02*
X145380952Y-47452380D01*
X145285714Y-47595238D01*
X145190476Y-47690476D01*
X145095238Y-47738095D01*
X150547619Y-47452380D02*
X150071428Y-47452380D01*
X150023809Y-47928571D01*
X150071428Y-47880952D01*
X150166666Y-47833333D01*
X150404761Y-47833333D01*
X150500000Y-47880952D01*
X150547619Y-47928571D01*
X150595238Y-48023809D01*
X150595238Y-48261904D01*
X150547619Y-48357142D01*
X150500000Y-48404761D01*
X150404761Y-48452380D01*
X150166666Y-48452380D01*
X150071428Y-48404761D01*
X150023809Y-48357142D01*
X150880952Y-47452380D02*
X151214285Y-48452380D01*
X151547619Y-47452380D01*
X151642857Y-48547619D02*
X152404761Y-48547619D01*
X152976190Y-47928571D02*
X153119047Y-47976190D01*
X153166666Y-48023809D01*
X153214285Y-48119047D01*
X153214285Y-48261904D01*
X153166666Y-48357142D01*
X153119047Y-48404761D01*
X153023809Y-48452380D01*
X152642857Y-48452380D01*
X152642857Y-47452380D01*
X152976190Y-47452380D01*
X153071428Y-47500000D01*
X153119047Y-47547619D01*
X153166666Y-47642857D01*
X153166666Y-47738095D01*
X153119047Y-47833333D01*
X153071428Y-47880952D01*
X152976190Y-47928571D01*
X152642857Y-47928571D01*
X153642857Y-48452380D02*
X153642857Y-47785714D01*
X153642857Y-47976190D02*
X153690476Y-47880952D01*
X153738095Y-47833333D01*
X153833333Y-47785714D01*
X153928571Y-47785714D01*
X154261904Y-48452380D02*
X154261904Y-47785714D01*
X154261904Y-47452380D02*
X154214285Y-47500000D01*
X154261904Y-47547619D01*
X154309523Y-47500000D01*
X154261904Y-47452380D01*
X154261904Y-47547619D01*
X155166666Y-48452380D02*
X155166666Y-47452380D01*
X155166666Y-48404761D02*
X155071428Y-48452380D01*
X154880952Y-48452380D01*
X154785714Y-48404761D01*
X154738095Y-48357142D01*
X154690476Y-48261904D01*
X154690476Y-47976190D01*
X154738095Y-47880952D01*
X154785714Y-47833333D01*
X154880952Y-47785714D01*
X155071428Y-47785714D01*
X155166666Y-47833333D01*
X156071428Y-47785714D02*
X156071428Y-48595238D01*
X156023809Y-48690476D01*
X155976190Y-48738095D01*
X155880952Y-48785714D01*
X155738095Y-48785714D01*
X155642857Y-48738095D01*
X156071428Y-48404761D02*
X155976190Y-48452380D01*
X155785714Y-48452380D01*
X155690476Y-48404761D01*
X155642857Y-48357142D01*
X155595238Y-48261904D01*
X155595238Y-47976190D01*
X155642857Y-47880952D01*
X155690476Y-47833333D01*
X155785714Y-47785714D01*
X155976190Y-47785714D01*
X156071428Y-47833333D01*
X156928571Y-48404761D02*
X156833333Y-48452380D01*
X156642857Y-48452380D01*
X156547619Y-48404761D01*
X156500000Y-48309523D01*
X156500000Y-47928571D01*
X156547619Y-47833333D01*
X156642857Y-47785714D01*
X156833333Y-47785714D01*
X156928571Y-47833333D01*
X156976190Y-47928571D01*
X156976190Y-48023809D01*
X156500000Y-48119047D01*
%TO.C,C7*%
X155283333Y-26857142D02*
X155235714Y-26904761D01*
X155092857Y-26952380D01*
X154997619Y-26952380D01*
X154854761Y-26904761D01*
X154759523Y-26809523D01*
X154711904Y-26714285D01*
X154664285Y-26523809D01*
X154664285Y-26380952D01*
X154711904Y-26190476D01*
X154759523Y-26095238D01*
X154854761Y-26000000D01*
X154997619Y-25952380D01*
X155092857Y-25952380D01*
X155235714Y-26000000D01*
X155283333Y-26047619D01*
X155616666Y-25952380D02*
X156283333Y-25952380D01*
X155854761Y-26952380D01*
%TO.C,RTC*%
X101428571Y-41552380D02*
X101095238Y-41076190D01*
X100857142Y-41552380D02*
X100857142Y-40552380D01*
X101238095Y-40552380D01*
X101333333Y-40600000D01*
X101380952Y-40647619D01*
X101428571Y-40742857D01*
X101428571Y-40885714D01*
X101380952Y-40980952D01*
X101333333Y-41028571D01*
X101238095Y-41076190D01*
X100857142Y-41076190D01*
X101714285Y-40552380D02*
X102285714Y-40552380D01*
X102000000Y-41552380D02*
X102000000Y-40552380D01*
X103190476Y-41457142D02*
X103142857Y-41504761D01*
X103000000Y-41552380D01*
X102904761Y-41552380D01*
X102761904Y-41504761D01*
X102666666Y-41409523D01*
X102619047Y-41314285D01*
X102571428Y-41123809D01*
X102571428Y-40980952D01*
X102619047Y-40790476D01*
X102666666Y-40695238D01*
X102761904Y-40600000D01*
X102904761Y-40552380D01*
X103000000Y-40552380D01*
X103142857Y-40600000D01*
X103190476Y-40647619D01*
%TO.C,C10*%
X174037142Y-23642857D02*
X174084761Y-23690476D01*
X174132380Y-23833333D01*
X174132380Y-23928571D01*
X174084761Y-24071428D01*
X173989523Y-24166666D01*
X173894285Y-24214285D01*
X173703809Y-24261904D01*
X173560952Y-24261904D01*
X173370476Y-24214285D01*
X173275238Y-24166666D01*
X173180000Y-24071428D01*
X173132380Y-23928571D01*
X173132380Y-23833333D01*
X173180000Y-23690476D01*
X173227619Y-23642857D01*
X174132380Y-22690476D02*
X174132380Y-23261904D01*
X174132380Y-22976190D02*
X173132380Y-22976190D01*
X173275238Y-23071428D01*
X173370476Y-23166666D01*
X173418095Y-23261904D01*
X173132380Y-22071428D02*
X173132380Y-21976190D01*
X173180000Y-21880952D01*
X173227619Y-21833333D01*
X173322857Y-21785714D01*
X173513333Y-21738095D01*
X173751428Y-21738095D01*
X173941904Y-21785714D01*
X174037142Y-21833333D01*
X174084761Y-21880952D01*
X174132380Y-21976190D01*
X174132380Y-22071428D01*
X174084761Y-22166666D01*
X174037142Y-22214285D01*
X173941904Y-22261904D01*
X173751428Y-22309523D01*
X173513333Y-22309523D01*
X173322857Y-22261904D01*
X173227619Y-22214285D01*
X173180000Y-22166666D01*
X173132380Y-22071428D01*
%TO.C,JP2*%
X143666666Y-49952380D02*
X143666666Y-50666666D01*
X143619047Y-50809523D01*
X143523809Y-50904761D01*
X143380952Y-50952380D01*
X143285714Y-50952380D01*
X144142857Y-50952380D02*
X144142857Y-49952380D01*
X144523809Y-49952380D01*
X144619047Y-50000000D01*
X144666666Y-50047619D01*
X144714285Y-50142857D01*
X144714285Y-50285714D01*
X144666666Y-50380952D01*
X144619047Y-50428571D01*
X144523809Y-50476190D01*
X144142857Y-50476190D01*
X145095238Y-50047619D02*
X145142857Y-50000000D01*
X145238095Y-49952380D01*
X145476190Y-49952380D01*
X145571428Y-50000000D01*
X145619047Y-50047619D01*
X145666666Y-50142857D01*
X145666666Y-50238095D01*
X145619047Y-50380952D01*
X145047619Y-50952380D01*
X145666666Y-50952380D01*
X149880952Y-49952380D02*
X150500000Y-49952380D01*
X150166666Y-50333333D01*
X150309523Y-50333333D01*
X150404761Y-50380952D01*
X150452380Y-50428571D01*
X150500000Y-50523809D01*
X150500000Y-50761904D01*
X150452380Y-50857142D01*
X150404761Y-50904761D01*
X150309523Y-50952380D01*
X150023809Y-50952380D01*
X149928571Y-50904761D01*
X149880952Y-50857142D01*
X150785714Y-49952380D02*
X151119047Y-50952380D01*
X151452380Y-49952380D01*
X151547619Y-51047619D02*
X152309523Y-51047619D01*
X152547619Y-50952380D02*
X152547619Y-49952380D01*
X152976190Y-50047619D02*
X153023809Y-50000000D01*
X153119047Y-49952380D01*
X153357142Y-49952380D01*
X153452380Y-50000000D01*
X153500000Y-50047619D01*
X153547619Y-50142857D01*
X153547619Y-50238095D01*
X153500000Y-50380952D01*
X152928571Y-50952380D01*
X153547619Y-50952380D01*
X154547619Y-50857142D02*
X154500000Y-50904761D01*
X154357142Y-50952380D01*
X154261904Y-50952380D01*
X154119047Y-50904761D01*
X154023809Y-50809523D01*
X153976190Y-50714285D01*
X153928571Y-50523809D01*
X153928571Y-50380952D01*
X153976190Y-50190476D01*
X154023809Y-50095238D01*
X154119047Y-50000000D01*
X154261904Y-49952380D01*
X154357142Y-49952380D01*
X154500000Y-50000000D01*
X154547619Y-50047619D01*
X154738095Y-51047619D02*
X155500000Y-51047619D01*
X156071428Y-50428571D02*
X156214285Y-50476190D01*
X156261904Y-50523809D01*
X156309523Y-50619047D01*
X156309523Y-50761904D01*
X156261904Y-50857142D01*
X156214285Y-50904761D01*
X156119047Y-50952380D01*
X155738095Y-50952380D01*
X155738095Y-49952380D01*
X156071428Y-49952380D01*
X156166666Y-50000000D01*
X156214285Y-50047619D01*
X156261904Y-50142857D01*
X156261904Y-50238095D01*
X156214285Y-50333333D01*
X156166666Y-50380952D01*
X156071428Y-50428571D01*
X155738095Y-50428571D01*
X156738095Y-50952380D02*
X156738095Y-50285714D01*
X156738095Y-50476190D02*
X156785714Y-50380952D01*
X156833333Y-50333333D01*
X156928571Y-50285714D01*
X157023809Y-50285714D01*
X157357142Y-50952380D02*
X157357142Y-50285714D01*
X157357142Y-49952380D02*
X157309523Y-50000000D01*
X157357142Y-50047619D01*
X157404761Y-50000000D01*
X157357142Y-49952380D01*
X157357142Y-50047619D01*
X158261904Y-50952380D02*
X158261904Y-49952380D01*
X158261904Y-50904761D02*
X158166666Y-50952380D01*
X157976190Y-50952380D01*
X157880952Y-50904761D01*
X157833333Y-50857142D01*
X157785714Y-50761904D01*
X157785714Y-50476190D01*
X157833333Y-50380952D01*
X157880952Y-50333333D01*
X157976190Y-50285714D01*
X158166666Y-50285714D01*
X158261904Y-50333333D01*
X159166666Y-50285714D02*
X159166666Y-51095238D01*
X159119047Y-51190476D01*
X159071428Y-51238095D01*
X158976190Y-51285714D01*
X158833333Y-51285714D01*
X158738095Y-51238095D01*
X159166666Y-50904761D02*
X159071428Y-50952380D01*
X158880952Y-50952380D01*
X158785714Y-50904761D01*
X158738095Y-50857142D01*
X158690476Y-50761904D01*
X158690476Y-50476190D01*
X158738095Y-50380952D01*
X158785714Y-50333333D01*
X158880952Y-50285714D01*
X159071428Y-50285714D01*
X159166666Y-50333333D01*
X160023809Y-50904761D02*
X159928571Y-50952380D01*
X159738095Y-50952380D01*
X159642857Y-50904761D01*
X159595238Y-50809523D01*
X159595238Y-50428571D01*
X159642857Y-50333333D01*
X159738095Y-50285714D01*
X159928571Y-50285714D01*
X160023809Y-50333333D01*
X160071428Y-50428571D01*
X160071428Y-50523809D01*
X159595238Y-50619047D01*
%TO.C,C6*%
X190833333Y-47857142D02*
X190785714Y-47904761D01*
X190642857Y-47952380D01*
X190547619Y-47952380D01*
X190404761Y-47904761D01*
X190309523Y-47809523D01*
X190261904Y-47714285D01*
X190214285Y-47523809D01*
X190214285Y-47380952D01*
X190261904Y-47190476D01*
X190309523Y-47095238D01*
X190404761Y-47000000D01*
X190547619Y-46952380D01*
X190642857Y-46952380D01*
X190785714Y-47000000D01*
X190833333Y-47047619D01*
X191690476Y-46952380D02*
X191500000Y-46952380D01*
X191404761Y-47000000D01*
X191357142Y-47047619D01*
X191261904Y-47190476D01*
X191214285Y-47380952D01*
X191214285Y-47761904D01*
X191261904Y-47857142D01*
X191309523Y-47904761D01*
X191404761Y-47952380D01*
X191595238Y-47952380D01*
X191690476Y-47904761D01*
X191738095Y-47857142D01*
X191785714Y-47761904D01*
X191785714Y-47523809D01*
X191738095Y-47428571D01*
X191690476Y-47380952D01*
X191595238Y-47333333D01*
X191404761Y-47333333D01*
X191309523Y-47380952D01*
X191261904Y-47428571D01*
X191214285Y-47523809D01*
%TO.C,C1*%
X155283333Y-32037142D02*
X155235714Y-32084761D01*
X155092857Y-32132380D01*
X154997619Y-32132380D01*
X154854761Y-32084761D01*
X154759523Y-31989523D01*
X154711904Y-31894285D01*
X154664285Y-31703809D01*
X154664285Y-31560952D01*
X154711904Y-31370476D01*
X154759523Y-31275238D01*
X154854761Y-31180000D01*
X154997619Y-31132380D01*
X155092857Y-31132380D01*
X155235714Y-31180000D01*
X155283333Y-31227619D01*
X156235714Y-32132380D02*
X155664285Y-32132380D01*
X155950000Y-32132380D02*
X155950000Y-31132380D01*
X155854761Y-31275238D01*
X155759523Y-31370476D01*
X155664285Y-31418095D01*
%TO.C,U3*%
X189738095Y-43952380D02*
X189738095Y-44761904D01*
X189785714Y-44857142D01*
X189833333Y-44904761D01*
X189928571Y-44952380D01*
X190119047Y-44952380D01*
X190214285Y-44904761D01*
X190261904Y-44857142D01*
X190309523Y-44761904D01*
X190309523Y-43952380D01*
X190690476Y-43952380D02*
X191309523Y-43952380D01*
X190976190Y-44333333D01*
X191119047Y-44333333D01*
X191214285Y-44380952D01*
X191261904Y-44428571D01*
X191309523Y-44523809D01*
X191309523Y-44761904D01*
X191261904Y-44857142D01*
X191214285Y-44904761D01*
X191119047Y-44952380D01*
X190833333Y-44952380D01*
X190738095Y-44904761D01*
X190690476Y-44857142D01*
X176991600Y-43952380D02*
X177563028Y-43952380D01*
X177277314Y-44952380D02*
X177277314Y-43952380D01*
X177848742Y-44904761D02*
X177991600Y-44952380D01*
X178229695Y-44952380D01*
X178324933Y-44904761D01*
X178372552Y-44857142D01*
X178420171Y-44761904D01*
X178420171Y-44666666D01*
X178372552Y-44571428D01*
X178324933Y-44523809D01*
X178229695Y-44476190D01*
X178039219Y-44428571D01*
X177943980Y-44380952D01*
X177896361Y-44333333D01*
X177848742Y-44238095D01*
X177848742Y-44142857D01*
X177896361Y-44047619D01*
X177943980Y-44000000D01*
X178039219Y-43952380D01*
X178277314Y-43952380D01*
X178420171Y-44000000D01*
X179324933Y-44952380D02*
X178848742Y-44952380D01*
X178848742Y-43952380D01*
X179610647Y-44047619D02*
X179658266Y-44000000D01*
X179753504Y-43952380D01*
X179991600Y-43952380D01*
X180086838Y-44000000D01*
X180134457Y-44047619D01*
X180182076Y-44142857D01*
X180182076Y-44238095D01*
X180134457Y-44380952D01*
X179563028Y-44952380D01*
X180182076Y-44952380D01*
X181086838Y-43952380D02*
X180610647Y-43952380D01*
X180563028Y-44428571D01*
X180610647Y-44380952D01*
X180705885Y-44333333D01*
X180943980Y-44333333D01*
X181039219Y-44380952D01*
X181086838Y-44428571D01*
X181134457Y-44523809D01*
X181134457Y-44761904D01*
X181086838Y-44857142D01*
X181039219Y-44904761D01*
X180943980Y-44952380D01*
X180705885Y-44952380D01*
X180610647Y-44904761D01*
X180563028Y-44857142D01*
X181610647Y-44952380D02*
X181801123Y-44952380D01*
X181896361Y-44904761D01*
X181943980Y-44857142D01*
X182039219Y-44714285D01*
X182086838Y-44523809D01*
X182086838Y-44142857D01*
X182039219Y-44047619D01*
X181991600Y-44000000D01*
X181896361Y-43952380D01*
X181705885Y-43952380D01*
X181610647Y-44000000D01*
X181563028Y-44047619D01*
X181515409Y-44142857D01*
X181515409Y-44380952D01*
X181563028Y-44476190D01*
X181610647Y-44523809D01*
X181705885Y-44571428D01*
X181896361Y-44571428D01*
X181991600Y-44523809D01*
X182039219Y-44476190D01*
X182086838Y-44380952D01*
X183039219Y-44952380D02*
X182467790Y-44952380D01*
X182753504Y-44952380D02*
X182753504Y-43952380D01*
X182658266Y-44095238D01*
X182563028Y-44190476D01*
X182467790Y-44238095D01*
X183991600Y-44952380D02*
X183420171Y-44952380D01*
X183705885Y-44952380D02*
X183705885Y-43952380D01*
X183610647Y-44095238D01*
X183515409Y-44190476D01*
X183420171Y-44238095D01*
X184753504Y-44428571D02*
X184420171Y-44428571D01*
X184420171Y-44952380D02*
X184420171Y-43952380D01*
X184896361Y-43952380D01*
X185277314Y-44952380D02*
X185277314Y-43952380D01*
X185848742Y-44952380D01*
X185848742Y-43952380D01*
X187991600Y-43952380D02*
X187991600Y-44190476D01*
X187753504Y-44095238D02*
X187991600Y-44190476D01*
X188229695Y-44095238D01*
X187848742Y-44380952D02*
X187991600Y-44190476D01*
X188134457Y-44380952D01*
%TO.C,JP4*%
X103666666Y-52452380D02*
X103666666Y-53166666D01*
X103619047Y-53309523D01*
X103523809Y-53404761D01*
X103380952Y-53452380D01*
X103285714Y-53452380D01*
X104142857Y-53452380D02*
X104142857Y-52452380D01*
X104523809Y-52452380D01*
X104619047Y-52500000D01*
X104666666Y-52547619D01*
X104714285Y-52642857D01*
X104714285Y-52785714D01*
X104666666Y-52880952D01*
X104619047Y-52928571D01*
X104523809Y-52976190D01*
X104142857Y-52976190D01*
X105571428Y-52785714D02*
X105571428Y-53452380D01*
X105333333Y-52404761D02*
X105095238Y-53119047D01*
X105714285Y-53119047D01*
X106714285Y-50452380D02*
X107333333Y-50452380D01*
X107000000Y-50833333D01*
X107142857Y-50833333D01*
X107238095Y-50880952D01*
X107285714Y-50928571D01*
X107333333Y-51023809D01*
X107333333Y-51261904D01*
X107285714Y-51357142D01*
X107238095Y-51404761D01*
X107142857Y-51452380D01*
X106857142Y-51452380D01*
X106761904Y-51404761D01*
X106714285Y-51357142D01*
X107619047Y-50452380D02*
X107952380Y-51452380D01*
X108285714Y-50452380D01*
X108380952Y-51547619D02*
X109142857Y-51547619D01*
X109952380Y-51452380D02*
X109619047Y-50976190D01*
X109380952Y-51452380D02*
X109380952Y-50452380D01*
X109761904Y-50452380D01*
X109857142Y-50500000D01*
X109904761Y-50547619D01*
X109952380Y-50642857D01*
X109952380Y-50785714D01*
X109904761Y-50880952D01*
X109857142Y-50928571D01*
X109761904Y-50976190D01*
X109380952Y-50976190D01*
X110238095Y-50452380D02*
X110809523Y-50452380D01*
X110523809Y-51452380D02*
X110523809Y-50452380D01*
X111714285Y-51357142D02*
X111666666Y-51404761D01*
X111523809Y-51452380D01*
X111428571Y-51452380D01*
X111285714Y-51404761D01*
X111190476Y-51309523D01*
X111142857Y-51214285D01*
X111095238Y-51023809D01*
X111095238Y-50880952D01*
X111142857Y-50690476D01*
X111190476Y-50595238D01*
X111285714Y-50500000D01*
X111428571Y-50452380D01*
X111523809Y-50452380D01*
X111666666Y-50500000D01*
X111714285Y-50547619D01*
X111904761Y-51547619D02*
X112666666Y-51547619D01*
X113238095Y-50928571D02*
X113380952Y-50976190D01*
X113428571Y-51023809D01*
X113476190Y-51119047D01*
X113476190Y-51261904D01*
X113428571Y-51357142D01*
X113380952Y-51404761D01*
X113285714Y-51452380D01*
X112904761Y-51452380D01*
X112904761Y-50452380D01*
X113238095Y-50452380D01*
X113333333Y-50500000D01*
X113380952Y-50547619D01*
X113428571Y-50642857D01*
X113428571Y-50738095D01*
X113380952Y-50833333D01*
X113333333Y-50880952D01*
X113238095Y-50928571D01*
X112904761Y-50928571D01*
X113904761Y-51452380D02*
X113904761Y-50785714D01*
X113904761Y-50976190D02*
X113952380Y-50880952D01*
X114000000Y-50833333D01*
X114095238Y-50785714D01*
X114190476Y-50785714D01*
X114523809Y-51452380D02*
X114523809Y-50785714D01*
X114523809Y-50452380D02*
X114476190Y-50500000D01*
X114523809Y-50547619D01*
X114571428Y-50500000D01*
X114523809Y-50452380D01*
X114523809Y-50547619D01*
X115428571Y-51452380D02*
X115428571Y-50452380D01*
X115428571Y-51404761D02*
X115333333Y-51452380D01*
X115142857Y-51452380D01*
X115047619Y-51404761D01*
X115000000Y-51357142D01*
X114952380Y-51261904D01*
X114952380Y-50976190D01*
X115000000Y-50880952D01*
X115047619Y-50833333D01*
X115142857Y-50785714D01*
X115333333Y-50785714D01*
X115428571Y-50833333D01*
X116333333Y-50785714D02*
X116333333Y-51595238D01*
X116285714Y-51690476D01*
X116238095Y-51738095D01*
X116142857Y-51785714D01*
X116000000Y-51785714D01*
X115904761Y-51738095D01*
X116333333Y-51404761D02*
X116238095Y-51452380D01*
X116047619Y-51452380D01*
X115952380Y-51404761D01*
X115904761Y-51357142D01*
X115857142Y-51261904D01*
X115857142Y-50976190D01*
X115904761Y-50880952D01*
X115952380Y-50833333D01*
X116047619Y-50785714D01*
X116238095Y-50785714D01*
X116333333Y-50833333D01*
X117190476Y-51404761D02*
X117095238Y-51452380D01*
X116904761Y-51452380D01*
X116809523Y-51404761D01*
X116761904Y-51309523D01*
X116761904Y-50928571D01*
X116809523Y-50833333D01*
X116904761Y-50785714D01*
X117095238Y-50785714D01*
X117190476Y-50833333D01*
X117238095Y-50928571D01*
X117238095Y-51023809D01*
X116761904Y-51119047D01*
%TO.C,D1*%
X96761904Y-28102380D02*
X96761904Y-27102380D01*
X97000000Y-27102380D01*
X97142857Y-27150000D01*
X97238095Y-27245238D01*
X97285714Y-27340476D01*
X97333333Y-27530952D01*
X97333333Y-27673809D01*
X97285714Y-27864285D01*
X97238095Y-27959523D01*
X97142857Y-28054761D01*
X97000000Y-28102380D01*
X96761904Y-28102380D01*
X98285714Y-28102380D02*
X97714285Y-28102380D01*
X98000000Y-28102380D02*
X98000000Y-27102380D01*
X97904761Y-27245238D01*
X97809523Y-27340476D01*
X97714285Y-27388095D01*
%TO.C,U5*%
X151738095Y-20952380D02*
X151738095Y-21761904D01*
X151785714Y-21857142D01*
X151833333Y-21904761D01*
X151928571Y-21952380D01*
X152119047Y-21952380D01*
X152214285Y-21904761D01*
X152261904Y-21857142D01*
X152309523Y-21761904D01*
X152309523Y-20952380D01*
X153261904Y-20952380D02*
X152785714Y-20952380D01*
X152738095Y-21428571D01*
X152785714Y-21380952D01*
X152880952Y-21333333D01*
X153119047Y-21333333D01*
X153214285Y-21380952D01*
X153261904Y-21428571D01*
X153309523Y-21523809D01*
X153309523Y-21761904D01*
X153261904Y-21857142D01*
X153214285Y-21904761D01*
X153119047Y-21952380D01*
X152880952Y-21952380D01*
X152785714Y-21904761D01*
X152738095Y-21857142D01*
%TO.C,D2*%
X146211904Y-26452380D02*
X146211904Y-25452380D01*
X146450000Y-25452380D01*
X146592857Y-25500000D01*
X146688095Y-25595238D01*
X146735714Y-25690476D01*
X146783333Y-25880952D01*
X146783333Y-26023809D01*
X146735714Y-26214285D01*
X146688095Y-26309523D01*
X146592857Y-26404761D01*
X146450000Y-26452380D01*
X146211904Y-26452380D01*
X147164285Y-25547619D02*
X147211904Y-25500000D01*
X147307142Y-25452380D01*
X147545238Y-25452380D01*
X147640476Y-25500000D01*
X147688095Y-25547619D01*
X147735714Y-25642857D01*
X147735714Y-25738095D01*
X147688095Y-25880952D01*
X147116666Y-26452380D01*
X147735714Y-26452380D01*
%TO.C,C5*%
X190833333Y-38857142D02*
X190785714Y-38904761D01*
X190642857Y-38952380D01*
X190547619Y-38952380D01*
X190404761Y-38904761D01*
X190309523Y-38809523D01*
X190261904Y-38714285D01*
X190214285Y-38523809D01*
X190214285Y-38380952D01*
X190261904Y-38190476D01*
X190309523Y-38095238D01*
X190404761Y-38000000D01*
X190547619Y-37952380D01*
X190642857Y-37952380D01*
X190785714Y-38000000D01*
X190833333Y-38047619D01*
X191738095Y-37952380D02*
X191261904Y-37952380D01*
X191214285Y-38428571D01*
X191261904Y-38380952D01*
X191357142Y-38333333D01*
X191595238Y-38333333D01*
X191690476Y-38380952D01*
X191738095Y-38428571D01*
X191785714Y-38523809D01*
X191785714Y-38761904D01*
X191738095Y-38857142D01*
X191690476Y-38904761D01*
X191595238Y-38952380D01*
X191357142Y-38952380D01*
X191261904Y-38904761D01*
X191214285Y-38857142D01*
%TO.C,C11*%
X169807142Y-46867142D02*
X169759523Y-46914761D01*
X169616666Y-46962380D01*
X169521428Y-46962380D01*
X169378571Y-46914761D01*
X169283333Y-46819523D01*
X169235714Y-46724285D01*
X169188095Y-46533809D01*
X169188095Y-46390952D01*
X169235714Y-46200476D01*
X169283333Y-46105238D01*
X169378571Y-46010000D01*
X169521428Y-45962380D01*
X169616666Y-45962380D01*
X169759523Y-46010000D01*
X169807142Y-46057619D01*
X170759523Y-46962380D02*
X170188095Y-46962380D01*
X170473809Y-46962380D02*
X170473809Y-45962380D01*
X170378571Y-46105238D01*
X170283333Y-46200476D01*
X170188095Y-46248095D01*
X171711904Y-46962380D02*
X171140476Y-46962380D01*
X171426190Y-46962380D02*
X171426190Y-45962380D01*
X171330952Y-46105238D01*
X171235714Y-46200476D01*
X171140476Y-46248095D01*
%TO.C,R1*%
X110333333Y-34302380D02*
X110000000Y-33826190D01*
X109761904Y-34302380D02*
X109761904Y-33302380D01*
X110142857Y-33302380D01*
X110238095Y-33350000D01*
X110285714Y-33397619D01*
X110333333Y-33492857D01*
X110333333Y-33635714D01*
X110285714Y-33730952D01*
X110238095Y-33778571D01*
X110142857Y-33826190D01*
X109761904Y-33826190D01*
X111285714Y-34302380D02*
X110714285Y-34302380D01*
X111000000Y-34302380D02*
X111000000Y-33302380D01*
X110904761Y-33445238D01*
X110809523Y-33540476D01*
X110714285Y-33588095D01*
%TO.C,C9*%
X177537142Y-23166666D02*
X177584761Y-23214285D01*
X177632380Y-23357142D01*
X177632380Y-23452380D01*
X177584761Y-23595238D01*
X177489523Y-23690476D01*
X177394285Y-23738095D01*
X177203809Y-23785714D01*
X177060952Y-23785714D01*
X176870476Y-23738095D01*
X176775238Y-23690476D01*
X176680000Y-23595238D01*
X176632380Y-23452380D01*
X176632380Y-23357142D01*
X176680000Y-23214285D01*
X176727619Y-23166666D01*
X177632380Y-22690476D02*
X177632380Y-22500000D01*
X177584761Y-22404761D01*
X177537142Y-22357142D01*
X177394285Y-22261904D01*
X177203809Y-22214285D01*
X176822857Y-22214285D01*
X176727619Y-22261904D01*
X176680000Y-22309523D01*
X176632380Y-22404761D01*
X176632380Y-22595238D01*
X176680000Y-22690476D01*
X176727619Y-22738095D01*
X176822857Y-22785714D01*
X177060952Y-22785714D01*
X177156190Y-22738095D01*
X177203809Y-22690476D01*
X177251428Y-22595238D01*
X177251428Y-22404761D01*
X177203809Y-22309523D01*
X177156190Y-22261904D01*
X177060952Y-22214285D01*
D12*
%TO.C,U4*%
X189500000Y-31780000D02*
X186500000Y-31780000D01*
X186500000Y-35220000D02*
X189500000Y-35220000D01*
D13*
X190145000Y-32300000D02*
G75*
G03*
X190145000Y-32300000I-100000J0D01*
G01*
D14*
%TO.C,U1*%
X32600000Y-26000000D02*
X33000000Y-26000000D01*
X30000000Y-26000000D02*
X30400000Y-26000000D01*
X25167000Y-43993000D02*
X22500000Y-43993000D01*
X42700000Y-26000000D02*
X43100000Y-26000000D01*
X35100000Y-26000000D02*
X35500000Y-26000000D01*
X55400000Y-47000000D02*
X55800000Y-47000000D01*
X22500000Y-47000000D02*
X22800000Y-47000000D01*
X40200000Y-26000000D02*
X40600000Y-26000000D01*
X45300000Y-47000000D02*
X45700000Y-47000000D01*
X32600000Y-47000000D02*
X33000000Y-47000000D01*
X73500000Y-40200000D02*
X73500000Y-47000000D01*
X47800000Y-26000000D02*
X48200000Y-26000000D01*
X52900000Y-26000000D02*
X53300000Y-26000000D01*
X70700000Y-47000000D02*
X71100000Y-47000000D01*
X24900000Y-47000000D02*
X25300000Y-47000000D01*
X25167000Y-47000000D02*
X25167000Y-43993000D01*
X40200000Y-47000000D02*
X40600000Y-47000000D01*
X52900000Y-47000000D02*
X53300000Y-47000000D01*
X27500000Y-26000000D02*
X27900000Y-26000000D01*
X50300000Y-47000000D02*
X50700000Y-47000000D01*
X73500000Y-35400000D02*
X73500000Y-35000000D01*
X37600000Y-47000000D02*
X38000000Y-47000000D01*
X47800000Y-47000000D02*
X48200000Y-47000000D01*
X35100000Y-47000000D02*
X35500000Y-47000000D01*
X50300000Y-26000000D02*
X50700000Y-26000000D01*
X37600000Y-26000000D02*
X38000000Y-26000000D01*
X63100000Y-47000000D02*
X63500000Y-47000000D01*
X68100000Y-26000000D02*
X68500000Y-26000000D01*
X24900000Y-26000000D02*
X25300000Y-26000000D01*
X60500000Y-47000000D02*
X60900000Y-47000000D01*
X58000000Y-26000000D02*
X58400000Y-26000000D01*
X55400000Y-26000000D02*
X55800000Y-26000000D01*
X22500000Y-47000000D02*
X22500000Y-26000000D01*
X27500000Y-47000000D02*
X27900000Y-47000000D01*
X73500000Y-26000000D02*
X73500000Y-32800000D01*
X63100000Y-26000000D02*
X63500000Y-26000000D01*
X65600000Y-47000000D02*
X66000000Y-47000000D01*
X42700000Y-47000000D02*
X43100000Y-47000000D01*
X30000000Y-47000000D02*
X30400000Y-47000000D01*
X73500000Y-38000000D02*
X73500000Y-37600000D01*
X65600000Y-26000000D02*
X66000000Y-26000000D01*
X70700000Y-26000000D02*
X71100000Y-26000000D01*
X60500000Y-26000000D02*
X60900000Y-26000000D01*
X45300000Y-26000000D02*
X45700000Y-26000000D01*
X68100000Y-47000000D02*
X68500000Y-47000000D01*
X22500000Y-26000000D02*
X22800000Y-26000000D01*
X58000000Y-47000000D02*
X58400000Y-47000000D01*
%TO.C,U6*%
X169789700Y-37940300D02*
X180940300Y-37940300D01*
X169789700Y-26789700D02*
X169789700Y-37940300D01*
X180940300Y-26789700D02*
X169789700Y-26789700D01*
X180940300Y-37940300D02*
X180940300Y-26789700D01*
G36*
X180622300Y-30055500D02*
G01*
X180368300Y-30055500D01*
X180368300Y-29674500D01*
X180622300Y-29674500D01*
X180622300Y-30055500D01*
G37*
D15*
X180622300Y-30055500D02*
X180368300Y-30055500D01*
X180368300Y-29674500D01*
X180622300Y-29674500D01*
X180622300Y-30055500D01*
G36*
X170361700Y-35055500D02*
G01*
X170107700Y-35055500D01*
X170107700Y-34674500D01*
X170361700Y-34674500D01*
X170361700Y-35055500D01*
G37*
X170361700Y-35055500D02*
X170107700Y-35055500D01*
X170107700Y-34674500D01*
X170361700Y-34674500D01*
X170361700Y-35055500D01*
D14*
%TO.C,R2*%
X173722936Y-49245000D02*
X174177064Y-49245000D01*
X173722936Y-47775000D02*
X174177064Y-47775000D01*
%TO.C,JP3*%
X103100000Y-49500000D02*
X103100000Y-47500000D01*
X105900000Y-49500000D02*
X103100000Y-49500000D01*
X105900000Y-47500000D02*
X105900000Y-49500000D01*
X103100000Y-47500000D02*
X105900000Y-47500000D01*
%TO.C,BT1*%
X122218000Y-23078403D02*
X122218000Y-51831203D01*
X138474000Y-51831203D02*
X138474000Y-23078403D01*
X138474000Y-23078403D02*
X132926640Y-23078403D01*
X127765360Y-23078403D02*
X122218000Y-23078403D01*
X122218000Y-51831203D02*
X127765360Y-51831203D01*
X132926640Y-51831203D02*
X138474000Y-51831203D01*
D13*
%TO.C,Sensor Extension*%
X94000000Y-46725000D02*
X91815000Y-46725000D01*
X94000000Y-51725000D02*
X80000000Y-51725000D01*
X80000000Y-46725000D02*
X82218000Y-46725000D01*
D16*
X82010640Y-43933000D02*
G75*
G03*
X82010640Y-43933000I-205640J0D01*
G01*
D14*
%TO.C,R11*%
X149772936Y-37235000D02*
X150227064Y-37235000D01*
X149772936Y-35765000D02*
X150227064Y-35765000D01*
%TO.C,R9*%
X146722936Y-29265000D02*
X147177064Y-29265000D01*
X146722936Y-30735000D02*
X147177064Y-30735000D01*
D13*
%TO.C,SD Card*%
X84018800Y-35725000D02*
X79000000Y-35725000D01*
X93000000Y-35725000D02*
X92273800Y-35725000D01*
X89810000Y-35725000D02*
X86457200Y-35725000D01*
X79000000Y-22450000D02*
X79000000Y-35725000D01*
X93000000Y-20275000D02*
X93000000Y-20950000D01*
X93000000Y-23450000D02*
X93000000Y-35725000D01*
X93000000Y-20275000D02*
X80450000Y-20275000D01*
X83100000Y-24750000D02*
G75*
G03*
X83100000Y-24750000I-100000J0D01*
G01*
D14*
%TO.C,R8*%
X97272936Y-24735000D02*
X97727064Y-24735000D01*
X97272936Y-23265000D02*
X97727064Y-23265000D01*
%TO.C,C2*%
X173688748Y-49775000D02*
X174211252Y-49775000D01*
X173688748Y-51245000D02*
X174211252Y-51245000D01*
%TO.C,U7*%
X172603000Y-44897000D02*
X175397000Y-44897000D01*
X175397000Y-42103000D02*
X172603000Y-42103000D01*
X171676000Y-42700000D02*
G75*
G03*
X171676000Y-42700000I-101600J0D01*
G01*
%TO.C,C3*%
X110238748Y-37765000D02*
X110761252Y-37765000D01*
X110238748Y-39235000D02*
X110761252Y-39235000D01*
%TO.C,R12*%
X149772936Y-40735000D02*
X150227064Y-40735000D01*
X149772936Y-39265000D02*
X150227064Y-39265000D01*
%TO.C,C8*%
X179735000Y-22738748D02*
X179735000Y-23261252D01*
X178265000Y-22738748D02*
X178265000Y-23261252D01*
%TO.C,JP5*%
X146100000Y-44500000D02*
X148900000Y-44500000D01*
X146100000Y-46500000D02*
X146100000Y-44500000D01*
X148900000Y-46500000D02*
X146100000Y-46500000D01*
X148900000Y-44500000D02*
X148900000Y-46500000D01*
%TO.C,C4*%
X187738748Y-41235000D02*
X188261252Y-41235000D01*
X187738748Y-39765000D02*
X188261252Y-39765000D01*
%TO.C,JP1*%
X148900000Y-49000000D02*
X146100000Y-49000000D01*
X146100000Y-47000000D02*
X148900000Y-47000000D01*
X148900000Y-47000000D02*
X148900000Y-49000000D01*
X146100000Y-49000000D02*
X146100000Y-47000000D01*
%TO.C,C7*%
X155711252Y-27265000D02*
X155188748Y-27265000D01*
X155711252Y-28735000D02*
X155188748Y-28735000D01*
%TO.C,RTC*%
X105860000Y-40005000D02*
X107675000Y-40005000D01*
X98140000Y-40260000D02*
X98140000Y-40005000D01*
X102000000Y-40260000D02*
X105860000Y-40260000D01*
X98140000Y-29740000D02*
X98140000Y-29995000D01*
X102000000Y-29740000D02*
X98140000Y-29740000D01*
X105860000Y-29740000D02*
X105860000Y-29995000D01*
X102000000Y-29740000D02*
X105860000Y-29740000D01*
X105860000Y-40260000D02*
X105860000Y-40005000D01*
X102000000Y-40260000D02*
X98140000Y-40260000D01*
%TO.C,C10*%
X172735000Y-22738748D02*
X172735000Y-23261252D01*
X171265000Y-22738748D02*
X171265000Y-23261252D01*
%TO.C,JP2*%
X148900000Y-51500000D02*
X146100000Y-51500000D01*
X146100000Y-51500000D02*
X146100000Y-49500000D01*
X146100000Y-49500000D02*
X148900000Y-49500000D01*
X148900000Y-49500000D02*
X148900000Y-51500000D01*
%TO.C,C6*%
X188261252Y-46765000D02*
X187738748Y-46765000D01*
X188261252Y-48235000D02*
X187738748Y-48235000D01*
%TO.C,C1*%
X155711252Y-30735000D02*
X155188748Y-30735000D01*
X155711252Y-29265000D02*
X155188748Y-29265000D01*
%TO.C,U3*%
X189121900Y-43166500D02*
X186861300Y-43166500D01*
X186861300Y-45833500D02*
X189121900Y-45833500D01*
X189121900Y-43390274D02*
X189121900Y-43166500D01*
X186861300Y-45609726D02*
X186861300Y-45833500D01*
X186861300Y-43166500D02*
X186861300Y-43390274D01*
X189121900Y-45833500D02*
X189121900Y-45609726D01*
X186282307Y-43850014D02*
G75*
G03*
X186282307Y-43850014I-76200J0D01*
G01*
%TO.C,JP4*%
X105900000Y-50000000D02*
X105900000Y-52000000D01*
X105900000Y-52000000D02*
X103100000Y-52000000D01*
X103100000Y-52000000D02*
X103100000Y-50000000D01*
X103100000Y-50000000D02*
X105900000Y-50000000D01*
%TO.C,D1*%
X96500000Y-26960000D02*
X99185000Y-26960000D01*
X99185000Y-25040000D02*
X96500000Y-25040000D01*
X99185000Y-26960000D02*
X99185000Y-25040000D01*
%TO.C,U5*%
X155450000Y-25060000D02*
X156250000Y-25060000D01*
X155450000Y-25060000D02*
X154650000Y-25060000D01*
X155450000Y-21940000D02*
X156250000Y-21940000D01*
X155450000Y-21940000D02*
X153650000Y-21940000D01*
%TO.C,D2*%
X145950000Y-28960000D02*
X148635000Y-28960000D01*
X148635000Y-28960000D02*
X148635000Y-27040000D01*
X148635000Y-27040000D02*
X145950000Y-27040000D01*
%TO.C,C5*%
X187738748Y-39235000D02*
X188261252Y-39235000D01*
X187738748Y-37765000D02*
X188261252Y-37765000D01*
%TO.C,C11*%
X173688748Y-45765000D02*
X174211252Y-45765000D01*
X173688748Y-47235000D02*
X174211252Y-47235000D01*
%TO.C,R1*%
X110272936Y-36235000D02*
X110727064Y-36235000D01*
X110272936Y-34765000D02*
X110727064Y-34765000D01*
%TO.C,C9*%
X176235000Y-22738748D02*
X176235000Y-23261252D01*
X174765000Y-22738748D02*
X174765000Y-23261252D01*
%TD*%
M02*
