M48
; DRILL file {KiCad (6.0.8)} date Wed Nov 30 15:49:36 2022
; FORMAT={-:-/ absolute / metric / decimal}
; #@! TF.CreationDate,2022-11-30T15:49:36-05:00
; #@! TF.GenerationSoftware,Kicad,Pcbnew,(6.0.8)
; #@! TF.FileFunction,Plated,1,2,PTH
FMAT,2
METRIC
; #@! TA.AperFunction,Plated,PTH,ViaDrill
T1C0.400
; #@! TA.AperFunction,Plated,PTH,ComponentDrill
T2C1.020
%
G90
G05
T1
X68.0Y-33.0
X68.0Y-49.5
X71.5Y-30.0
X77.5Y-28.0
X81.5Y-24.5
X81.5Y-43.0
X83.5Y-39.5
X85.5Y-22.0
X87.0Y-52.5
X88.175Y-35.325
X89.5Y-27.0
X91.0Y-41.0
X91.0Y-43.0
X93.5Y-37.0
X94.5Y-22.0
X94.5Y-25.0
X100.0Y-27.0
X102.0Y-49.5
X102.0Y-53.0
X107.0Y-28.5
X109.0Y-40.5
X110.5Y-44.5
X113.0Y-40.0
X118.5Y-22.5
X130.5Y-48.0
X141.0Y-40.0
X142.5Y-48.0
X142.5Y-50.5
X143.0Y-40.0
X143.0Y-40.0
X145.5Y-42.5
X150.5Y-44.5
X152.45Y-23.5
X152.45Y-27.0
X154.5Y-36.5
X154.5Y-40.0
X165.5Y-34.5
X168.0Y-37.0
X168.5Y-29.0
X171.0Y-43.0
X171.0Y-45.025
X171.0Y-45.025
X174.0Y-41.0
X175.5Y-31.0
X176.49Y-50.51
X181.0Y-40.0
X182.0Y-26.0
X182.0Y-45.5
X183.5Y-33.5
X183.5Y-40.0
X185.0Y-39.5
X185.5Y-33.024
X185.5Y-47.5
X188.0Y-37.224
X188.5Y-31.224
T2
X23.87Y-27.61
X23.87Y-45.39
X26.41Y-27.61
X26.41Y-45.39
X28.95Y-27.61
X28.95Y-45.39
X31.49Y-27.61
X31.49Y-45.39
X34.03Y-27.61
X34.03Y-45.39
X36.57Y-27.61
X36.57Y-45.39
X39.11Y-27.61
X39.11Y-45.39
X41.65Y-27.61
X41.65Y-45.39
X44.19Y-27.61
X44.19Y-45.39
X46.73Y-27.61
X46.73Y-45.39
X49.27Y-27.61
X49.27Y-45.39
X51.81Y-27.61
X51.81Y-45.39
X54.35Y-27.61
X54.35Y-45.39
X56.89Y-27.61
X56.89Y-45.39
X59.43Y-27.61
X59.43Y-45.39
X61.97Y-27.61
X61.97Y-45.39
X64.51Y-27.61
X64.51Y-45.39
X67.05Y-27.61
X67.05Y-45.39
X69.59Y-27.61
X69.59Y-45.39
X71.9Y-33.96
X71.9Y-36.5
X71.9Y-39.04
X72.13Y-27.61
X72.13Y-45.39
T0
M30
