%TF.GenerationSoftware,KiCad,Pcbnew,(6.0.8)*%
%TF.CreationDate,2022-11-30T15:49:30-05:00*%
%TF.ProjectId,mushroomDataloggerProject,6d757368-726f-46f6-9d44-6174616c6f67,rev?*%
%TF.SameCoordinates,Original*%
%TF.FileFunction,Copper,L1,Top*%
%TF.FilePolarity,Positive*%
%FSLAX46Y46*%
G04 Gerber Fmt 4.6, Leading zero omitted, Abs format (unit mm)*
G04 Created by KiCad (PCBNEW (6.0.8)) date 2022-11-30 15:49:30*
%MOMM*%
%LPD*%
G01*
G04 APERTURE LIST*
G04 Aperture macros list*
%AMRoundRect*
0 Rectangle with rounded corners*
0 $1 Rounding radius*
0 $2 $3 $4 $5 $6 $7 $8 $9 X,Y pos of 4 corners*
0 Add a 4 corners polygon primitive as box body*
4,1,4,$2,$3,$4,$5,$6,$7,$8,$9,$2,$3,0*
0 Add four circle primitives for the rounded corners*
1,1,$1+$1,$2,$3*
1,1,$1+$1,$4,$5*
1,1,$1+$1,$6,$7*
1,1,$1+$1,$8,$9*
0 Add four rect primitives between the rounded corners*
20,1,$1+$1,$2,$3,$4,$5,0*
20,1,$1+$1,$4,$5,$6,$7,0*
20,1,$1+$1,$6,$7,$8,$9,0*
20,1,$1+$1,$8,$9,$2,$3,0*%
G04 Aperture macros list end*
%TA.AperFunction,SMDPad,CuDef*%
%ADD10R,0.400000X0.400000*%
%TD*%
%TA.AperFunction,ComponentPad*%
%ADD11O,1.700000X1.700000*%
%TD*%
%TA.AperFunction,SMDPad,CuDef*%
%ADD12R,1.700000X3.500000*%
%TD*%
%TA.AperFunction,ComponentPad*%
%ADD13R,1.700000X1.700000*%
%TD*%
%TA.AperFunction,SMDPad,CuDef*%
%ADD14R,3.500000X1.700000*%
%TD*%
%TA.AperFunction,SMDPad,CuDef*%
%ADD15R,0.812800X1.498600*%
%TD*%
%TA.AperFunction,SMDPad,CuDef*%
%ADD16R,1.498600X0.812800*%
%TD*%
%TA.AperFunction,SMDPad,CuDef*%
%ADD17R,4.800600X4.800600*%
%TD*%
%TA.AperFunction,SMDPad,CuDef*%
%ADD18RoundRect,0.250000X-0.262500X-0.450000X0.262500X-0.450000X0.262500X0.450000X-0.262500X0.450000X0*%
%TD*%
%TA.AperFunction,SMDPad,CuDef*%
%ADD19R,1.000000X1.500000*%
%TD*%
%TA.AperFunction,SMDPad,CuDef*%
%ADD20R,4.495800X3.810000*%
%TD*%
%TA.AperFunction,SMDPad,CuDef*%
%ADD21R,1.000000X5.500000*%
%TD*%
%TA.AperFunction,SMDPad,CuDef*%
%ADD22R,1.700000X3.100000*%
%TD*%
%TA.AperFunction,SMDPad,CuDef*%
%ADD23R,0.800000X2.000000*%
%TD*%
%TA.AperFunction,SMDPad,CuDef*%
%ADD24R,1.800000X1.400000*%
%TD*%
%TA.AperFunction,SMDPad,CuDef*%
%ADD25R,1.400000X1.900000*%
%TD*%
%TA.AperFunction,SMDPad,CuDef*%
%ADD26RoundRect,0.250000X-0.250000X-0.475000X0.250000X-0.475000X0.250000X0.475000X-0.250000X0.475000X0*%
%TD*%
%TA.AperFunction,SMDPad,CuDef*%
%ADD27R,0.762000X0.406400*%
%TD*%
%TA.AperFunction,SMDPad,CuDef*%
%ADD28R,1.346200X1.752600*%
%TD*%
%TA.AperFunction,SMDPad,CuDef*%
%ADD29RoundRect,0.250000X-0.475000X0.250000X-0.475000X-0.250000X0.475000X-0.250000X0.475000X0.250000X0*%
%TD*%
%TA.AperFunction,SMDPad,CuDef*%
%ADD30RoundRect,0.250000X0.250000X0.475000X-0.250000X0.475000X-0.250000X-0.475000X0.250000X-0.475000X0*%
%TD*%
%TA.AperFunction,SMDPad,CuDef*%
%ADD31RoundRect,0.150000X0.875000X0.150000X-0.875000X0.150000X-0.875000X-0.150000X0.875000X-0.150000X0*%
%TD*%
%TA.AperFunction,SMDPad,CuDef*%
%ADD32R,1.066800X0.254000*%
%TD*%
%TA.AperFunction,SMDPad,CuDef*%
%ADD33RoundRect,0.243750X0.243750X0.456250X-0.243750X0.456250X-0.243750X-0.456250X0.243750X-0.456250X0*%
%TD*%
%TA.AperFunction,SMDPad,CuDef*%
%ADD34RoundRect,0.150000X-0.512500X-0.150000X0.512500X-0.150000X0.512500X0.150000X-0.512500X0.150000X0*%
%TD*%
%TA.AperFunction,ViaPad*%
%ADD35C,0.800000*%
%TD*%
%TA.AperFunction,Conductor*%
%ADD36C,0.500000*%
%TD*%
%TA.AperFunction,Conductor*%
%ADD37C,0.250000*%
%TD*%
%TA.AperFunction,Conductor*%
%ADD38C,1.000000*%
%TD*%
G04 APERTURE END LIST*
%TO.C,JP2*%
G36*
X147750000Y-50800000D02*
G01*
X147250000Y-50800000D01*
X147250000Y-50200000D01*
X147750000Y-50200000D01*
X147750000Y-50800000D01*
G37*
%TO.C,JP4*%
G36*
X104750000Y-51300000D02*
G01*
X104250000Y-51300000D01*
X104250000Y-50700000D01*
X104750000Y-50700000D01*
X104750000Y-51300000D01*
G37*
%TD*%
D10*
%TO.P,U4,1,GND*%
%TO.N,GND*%
X189200000Y-32300000D03*
%TO.P,U4,2,CSB*%
%TO.N,/Sensors/VCC*%
X189200000Y-33100000D03*
%TO.P,U4,3,SDI*%
%TO.N,SDA*%
X189200000Y-33900000D03*
%TO.P,U4,4,SCK*%
%TO.N,SCL*%
X189200000Y-34700000D03*
%TO.P,U4,5,SDO*%
%TO.N,/Sensors/VCC*%
X186800000Y-34700000D03*
%TO.P,U4,6,VDDIO*%
X186800000Y-33900000D03*
%TO.P,U4,7,GND*%
%TO.N,GND*%
X186800000Y-33100000D03*
%TO.P,U4,8,VDD*%
%TO.N,/Sensors/VCC*%
X186800000Y-32300000D03*
%TD*%
D11*
%TO.P,U1,1,GPIO0*%
%TO.N,unconnected-(U1-Pad1)*%
X23870000Y-45390000D03*
D12*
X23870000Y-46290000D03*
D11*
%TO.P,U1,2,GPIO1*%
%TO.N,unconnected-(U1-Pad2)*%
X26410000Y-45390000D03*
D12*
X26410000Y-46290000D03*
D13*
%TO.P,U1,3,GND*%
%TO.N,unconnected-(U1-Pad3)*%
X28950000Y-45390000D03*
D12*
X28950000Y-46290000D03*
D11*
%TO.P,U1,4,GPIO2*%
%TO.N,unconnected-(U1-Pad4)*%
X31490000Y-45390000D03*
D12*
X31490000Y-46290000D03*
D11*
%TO.P,U1,5,GPIO3*%
%TO.N,unconnected-(U1-Pad5)*%
X34030000Y-45390000D03*
D12*
X34030000Y-46290000D03*
%TO.P,U1,6,GPIO4*%
%TO.N,unconnected-(U1-Pad6)*%
X36570000Y-46290000D03*
D11*
X36570000Y-45390000D03*
%TO.P,U1,7,GPIO5*%
%TO.N,unconnected-(U1-Pad7)*%
X39110000Y-45390000D03*
D12*
X39110000Y-46290000D03*
D13*
%TO.P,U1,8,GND*%
%TO.N,unconnected-(U1-Pad8)*%
X41650000Y-45390000D03*
D12*
X41650000Y-46290000D03*
D11*
%TO.P,U1,9,GPIO6*%
%TO.N,unconnected-(U1-Pad9)*%
X44190000Y-45390000D03*
D12*
X44190000Y-46290000D03*
%TO.P,U1,10,GPIO7*%
%TO.N,unconnected-(U1-Pad10)*%
X46730000Y-46290000D03*
D11*
X46730000Y-45390000D03*
D12*
%TO.P,U1,11,GPIO8*%
%TO.N,unconnected-(U1-Pad11)*%
X49270000Y-46290000D03*
D11*
X49270000Y-45390000D03*
%TO.P,U1,12,GPIO9*%
%TO.N,unconnected-(U1-Pad12)*%
X51810000Y-45390000D03*
D12*
X51810000Y-46290000D03*
%TO.P,U1,13,GND*%
%TO.N,unconnected-(U1-Pad13)*%
X54350000Y-46290000D03*
D13*
X54350000Y-45390000D03*
D12*
%TO.P,U1,14,GPIO10*%
%TO.N,unconnected-(U1-Pad14)*%
X56890000Y-46290000D03*
D11*
X56890000Y-45390000D03*
D12*
%TO.P,U1,15,GPIO11*%
%TO.N,unconnected-(U1-Pad15)*%
X59430000Y-46290000D03*
D11*
X59430000Y-45390000D03*
%TO.P,U1,16,GPIO12*%
%TO.N,SDA*%
X61970000Y-45390000D03*
D12*
X61970000Y-46290000D03*
%TO.P,U1,17,GPIO13*%
%TO.N,SCL*%
X64510000Y-46290000D03*
D11*
X64510000Y-45390000D03*
D12*
%TO.P,U1,18,GND*%
%TO.N,GND*%
X67050000Y-46290000D03*
D13*
X67050000Y-45390000D03*
D12*
%TO.P,U1,19,GPIO14*%
%TO.N,unconnected-(U1-Pad19)*%
X69590000Y-46290000D03*
D11*
X69590000Y-45390000D03*
D12*
%TO.P,U1,20,GPIO15*%
%TO.N,unconnected-(U1-Pad20)*%
X72130000Y-46290000D03*
D11*
X72130000Y-45390000D03*
%TO.P,U1,21,GPIO16*%
%TO.N,/SPI_RX*%
X72130000Y-27610000D03*
D12*
X72130000Y-26710000D03*
%TO.P,U1,22,GPIO17*%
%TO.N,/CS*%
X69590000Y-26710000D03*
D11*
X69590000Y-27610000D03*
D12*
%TO.P,U1,23,GND*%
%TO.N,GND*%
X67050000Y-26710000D03*
D13*
X67050000Y-27610000D03*
D11*
%TO.P,U1,24,GPIO18*%
%TO.N,/SCK*%
X64510000Y-27610000D03*
D12*
X64510000Y-26710000D03*
%TO.P,U1,25,GPIO19*%
%TO.N,/SPI_TX*%
X61970000Y-26710000D03*
D11*
X61970000Y-27610000D03*
%TO.P,U1,26,GPIO20*%
%TO.N,unconnected-(U1-Pad26)*%
X59430000Y-27610000D03*
D12*
X59430000Y-26710000D03*
%TO.P,U1,27,GPIO21*%
%TO.N,unconnected-(U1-Pad27)*%
X56890000Y-26710000D03*
D11*
X56890000Y-27610000D03*
D12*
%TO.P,U1,28,GND*%
%TO.N,unconnected-(U1-Pad28)*%
X54350000Y-26710000D03*
D13*
X54350000Y-27610000D03*
D11*
%TO.P,U1,29,GPIO22*%
%TO.N,unconnected-(U1-Pad29)*%
X51810000Y-27610000D03*
D12*
X51810000Y-26710000D03*
%TO.P,U1,30,RUN*%
%TO.N,unconnected-(U1-Pad30)*%
X49270000Y-26710000D03*
D11*
X49270000Y-27610000D03*
D12*
%TO.P,U1,31,GPIO26_ADC0*%
%TO.N,unconnected-(U1-Pad31)*%
X46730000Y-26710000D03*
D11*
X46730000Y-27610000D03*
D12*
%TO.P,U1,32,GPIO27_ADC1*%
%TO.N,unconnected-(U1-Pad32)*%
X44190000Y-26710000D03*
D11*
X44190000Y-27610000D03*
D12*
%TO.P,U1,33,AGND*%
%TO.N,unconnected-(U1-Pad33)*%
X41650000Y-26710000D03*
D13*
X41650000Y-27610000D03*
D12*
%TO.P,U1,34,GPIO28_ADC2*%
%TO.N,unconnected-(U1-Pad34)*%
X39110000Y-26710000D03*
D11*
X39110000Y-27610000D03*
%TO.P,U1,35,ADC_VREF*%
%TO.N,unconnected-(U1-Pad35)*%
X36570000Y-27610000D03*
D12*
X36570000Y-26710000D03*
%TO.P,U1,36,3V3*%
%TO.N,3V3*%
X34030000Y-26710000D03*
D11*
X34030000Y-27610000D03*
D12*
%TO.P,U1,37,3V3_EN*%
%TO.N,unconnected-(U1-Pad37)*%
X31490000Y-26710000D03*
D11*
X31490000Y-27610000D03*
D13*
%TO.P,U1,38,GND*%
%TO.N,GND*%
X28950000Y-27610000D03*
D12*
X28950000Y-26710000D03*
%TO.P,U1,39,VSYS*%
%TO.N,5V*%
X26410000Y-26710000D03*
D11*
X26410000Y-27610000D03*
%TO.P,U1,40,VBUS*%
%TO.N,unconnected-(U1-Pad40)*%
X23870000Y-27610000D03*
D12*
X23870000Y-26710000D03*
D14*
%TO.P,U1,41,SWCLK*%
%TO.N,unconnected-(U1-Pad41)*%
X72800000Y-39040000D03*
D11*
X71900000Y-39040000D03*
D14*
%TO.P,U1,42,GND*%
%TO.N,unconnected-(U1-Pad42)*%
X72800000Y-36500000D03*
D13*
X71900000Y-36500000D03*
D11*
%TO.P,U1,43,SWDIO*%
%TO.N,unconnected-(U1-Pad43)*%
X71900000Y-33960000D03*
D14*
X72800000Y-33960000D03*
%TD*%
D15*
%TO.P,U6,1,DNC*%
%TO.N,unconnected-(U6-Pad1)*%
X177865000Y-28365000D03*
%TO.P,U6,2,DNC*%
%TO.N,unconnected-(U6-Pad2)*%
X176615000Y-28365000D03*
%TO.P,U6,3,DNC*%
%TO.N,unconnected-(U6-Pad3)*%
X175365000Y-28365000D03*
%TO.P,U6,4,DNC*%
%TO.N,unconnected-(U6-Pad4)*%
X174115000Y-28365000D03*
%TO.P,U6,5,DNC*%
%TO.N,unconnected-(U6-Pad5)*%
X172865000Y-28365000D03*
D16*
%TO.P,U6,6,GND*%
%TO.N,GND*%
X171365000Y-29865000D03*
%TO.P,U6,7,VDD*%
%TO.N,/Sensors/VCC*%
X171365000Y-31115000D03*
%TO.P,U6,8,DNC*%
%TO.N,unconnected-(U6-Pad8)*%
X171365000Y-32365000D03*
%TO.P,U6,9,SCL*%
%TO.N,SCL*%
X171365000Y-33615000D03*
%TO.P,U6,10,SDA*%
%TO.N,SDA*%
X171365000Y-34865000D03*
D15*
%TO.P,U6,11,DNC*%
%TO.N,unconnected-(U6-Pad11)*%
X172865000Y-36365000D03*
%TO.P,U6,12,DNC*%
%TO.N,unconnected-(U6-Pad12)*%
X174115000Y-36365000D03*
%TO.P,U6,13,DNC*%
%TO.N,unconnected-(U6-Pad13)*%
X175365000Y-36365000D03*
%TO.P,U6,14,DNC*%
%TO.N,unconnected-(U6-Pad14)*%
X176615000Y-36365000D03*
%TO.P,U6,15,DNC*%
%TO.N,unconnected-(U6-Pad15)*%
X177865000Y-36365000D03*
D16*
%TO.P,U6,16,DNC*%
%TO.N,unconnected-(U6-Pad16)*%
X179365000Y-34865000D03*
%TO.P,U6,17,DNC*%
%TO.N,unconnected-(U6-Pad17)*%
X179365000Y-33615000D03*
%TO.P,U6,18,DNC*%
%TO.N,unconnected-(U6-Pad18)*%
X179365000Y-32365000D03*
%TO.P,U6,19,VDDH*%
%TO.N,/Sensors/VCC*%
X179365000Y-31115000D03*
%TO.P,U6,20,GND*%
%TO.N,GND*%
X179365000Y-29865000D03*
D17*
%TO.P,U6,21,GND*%
X175365000Y-32365000D03*
%TD*%
D18*
%TO.P,R2,1*%
%TO.N,Net-(C2-Pad1)*%
X173037500Y-48510000D03*
%TO.P,R2,2*%
%TO.N,/Sensors/VCC*%
X174862500Y-48510000D03*
%TD*%
D19*
%TO.P,JP3,1,A*%
%TO.N,5V*%
X103850000Y-48500000D03*
%TO.P,JP3,2,B*%
%TO.N,/VCC_RTC*%
X105150000Y-48500000D03*
%TD*%
D20*
%TO.P,BT1,1,+*%
%TO.N,/RTC_VBAT*%
X130346000Y-22806598D03*
%TO.P,BT1,2,-*%
%TO.N,GND*%
X130346000Y-52103008D03*
%TD*%
D21*
%TO.P,Sensor Extension,1,Pin_1*%
%TO.N,SCL*%
X83000000Y-47000000D03*
%TO.P,Sensor Extension,2,Pin_2*%
%TO.N,SDA*%
X85000000Y-47000000D03*
%TO.P,Sensor Extension,3,Pin_3*%
%TO.N,GND*%
X87000000Y-47000000D03*
%TO.P,Sensor Extension,4,Pin_4*%
%TO.N,3V3*%
X89000000Y-47000000D03*
%TO.P,Sensor Extension,5,Pin_5*%
%TO.N,5V*%
X91000000Y-47000000D03*
D22*
%TO.P,Sensor Extension,6*%
%TO.N,N/C*%
X93450000Y-49200000D03*
%TO.P,Sensor Extension,7*%
X80550000Y-49200000D03*
%TD*%
D18*
%TO.P,R11,1*%
%TO.N,SCL*%
X149087500Y-36500000D03*
%TO.P,R11,2*%
%TO.N,/Sensors/VCC*%
X150912500Y-36500000D03*
%TD*%
%TO.P,R9,1*%
%TO.N,Net-(D2-Pad2)*%
X146037500Y-30000000D03*
%TO.P,R9,2*%
%TO.N,/Sensors/VCC*%
X147862500Y-30000000D03*
%TD*%
D23*
%TO.P,SD Card,1,DAT2*%
%TO.N,3V3*%
X84060000Y-24775000D03*
%TO.P,SD Card,2,CD/DAT3*%
%TO.N,/CS*%
X85160000Y-25175000D03*
%TO.P,SD Card,3,CMD*%
%TO.N,/SPI_TX*%
X86260000Y-24775000D03*
%TO.P,SD Card,4,VDD*%
%TO.N,3V3*%
X87360000Y-24575000D03*
%TO.P,SD Card,5,CLK*%
%TO.N,/SCK*%
X88460000Y-24775000D03*
%TO.P,SD Card,6,VSS*%
%TO.N,GND*%
X89560000Y-24575000D03*
%TO.P,SD Card,7,DAT0*%
%TO.N,/SPI_RX*%
X90660000Y-24775000D03*
%TO.P,SD Card,8,DAT1*%
%TO.N,3V3*%
X91760000Y-24775000D03*
D24*
%TO.P,SD Card,9,CD1*%
%TO.N,GND*%
X90950000Y-35325000D03*
%TO.P,SD Card,10,CD2*%
X85250000Y-35325000D03*
D25*
%TO.P,SD Card,11,GND*%
X92550000Y-22175000D03*
%TO.P,SD Card,12,GND*%
X79400000Y-21175000D03*
%TD*%
D18*
%TO.P,R8,1*%
%TO.N,Net-(D1-Pad2)*%
X96587500Y-24000000D03*
%TO.P,R8,2*%
%TO.N,/VCC_RTC*%
X98412500Y-24000000D03*
%TD*%
D26*
%TO.P,C2,1*%
%TO.N,Net-(C2-Pad1)*%
X173000000Y-50510000D03*
%TO.P,C2,2*%
%TO.N,GND*%
X174900000Y-50510000D03*
%TD*%
D27*
%TO.P,U7,1,VDD*%
%TO.N,Net-(C2-Pad1)*%
X172806200Y-42699999D03*
%TO.P,U7,2,VSS*%
%TO.N,GND*%
X172806200Y-43500000D03*
%TO.P,U7,3,SDA*%
%TO.N,SDA*%
X172806200Y-44300001D03*
%TO.P,U7,4,NA*%
%TO.N,GND*%
X175193800Y-44300001D03*
%TO.P,U7,5,VDDH*%
%TO.N,/Sensors/VCC*%
X175193800Y-43500000D03*
%TO.P,U7,6,SCL*%
%TO.N,SCL*%
X175193800Y-42699999D03*
D28*
%TO.P,U7,7,GND*%
%TO.N,GND*%
X174000000Y-43500000D03*
%TD*%
D26*
%TO.P,C3,1*%
%TO.N,/VCC_RTC*%
X109550000Y-38500000D03*
%TO.P,C3,2*%
%TO.N,GND*%
X111450000Y-38500000D03*
%TD*%
D18*
%TO.P,R12,1*%
%TO.N,SDA*%
X149087500Y-40000000D03*
%TO.P,R12,2*%
%TO.N,/Sensors/VCC*%
X150912500Y-40000000D03*
%TD*%
D29*
%TO.P,C8,1*%
%TO.N,/Sensors/VCC*%
X179000000Y-22050000D03*
%TO.P,C8,2*%
%TO.N,GND*%
X179000000Y-23950000D03*
%TD*%
D19*
%TO.P,JP5,1,A*%
%TO.N,/Sensors/VCC_IN*%
X148150000Y-45500000D03*
%TO.P,JP5,2,B*%
%TO.N,/Sensors/VCC*%
X146850000Y-45500000D03*
%TD*%
D26*
%TO.P,C4,1*%
%TO.N,/Sensors/VCC*%
X187050000Y-40500000D03*
%TO.P,C4,2*%
%TO.N,GND*%
X188950000Y-40500000D03*
%TD*%
D19*
%TO.P,JP1,1,A*%
%TO.N,/Sensors/VCC_IN*%
X148150000Y-48000000D03*
%TO.P,JP1,2,B*%
%TO.N,5V*%
X146850000Y-48000000D03*
%TD*%
D30*
%TO.P,C7,1*%
%TO.N,/Sensors/VCC_IN*%
X156400000Y-28000000D03*
%TO.P,C7,2*%
%TO.N,GND*%
X154500000Y-28000000D03*
%TD*%
D31*
%TO.P,RTC,1,32KHZ*%
%TO.N,unconnected-(U2-Pad1)*%
X106650000Y-39445000D03*
%TO.P,RTC,2,VCC*%
%TO.N,/VCC_RTC*%
X106650000Y-38175000D03*
%TO.P,RTC,3,~{INT}/SQW*%
%TO.N,/RTC_INT*%
X106650000Y-36905000D03*
%TO.P,RTC,4,~{RST}*%
%TO.N,unconnected-(U2-Pad4)*%
X106650000Y-35635000D03*
%TO.P,RTC,5,GND*%
%TO.N,GND*%
X106650000Y-34365000D03*
%TO.P,RTC,6,GND*%
X106650000Y-33095000D03*
%TO.P,RTC,7,GND*%
X106650000Y-31825000D03*
%TO.P,RTC,8,GND*%
X106650000Y-30555000D03*
%TO.P,RTC,9,GND*%
X97350000Y-30555000D03*
%TO.P,RTC,10,GND*%
X97350000Y-31825000D03*
%TO.P,RTC,11,GND*%
X97350000Y-33095000D03*
%TO.P,RTC,12,GND*%
X97350000Y-34365000D03*
%TO.P,RTC,13,GND*%
X97350000Y-35635000D03*
%TO.P,RTC,14,VBAT*%
%TO.N,/RTC_VBAT*%
X97350000Y-36905000D03*
%TO.P,RTC,15,SDA*%
%TO.N,SCL*%
X97350000Y-38175000D03*
%TO.P,RTC,16,SCL*%
%TO.N,SDA*%
X97350000Y-39445000D03*
%TD*%
D29*
%TO.P,C10,1*%
%TO.N,/Sensors/VCC*%
X172000000Y-22050000D03*
%TO.P,C10,2*%
%TO.N,GND*%
X172000000Y-23950000D03*
%TD*%
D19*
%TO.P,JP2,1,A*%
%TO.N,/Sensors/VCC_IN*%
X148150000Y-50500000D03*
%TO.P,JP2,2,B*%
%TO.N,3V3*%
X146850000Y-50500000D03*
%TD*%
D30*
%TO.P,C6,1*%
%TO.N,/Sensors/VCC*%
X188950000Y-47500000D03*
%TO.P,C6,2*%
%TO.N,GND*%
X187050000Y-47500000D03*
%TD*%
%TO.P,C1,1*%
%TO.N,/Sensors/VCC*%
X156400000Y-30000000D03*
%TO.P,C1,2*%
%TO.N,GND*%
X154500000Y-30000000D03*
%TD*%
D32*
%TO.P,U3,1,SCL*%
%TO.N,SCL*%
X187166100Y-43850014D03*
%TO.P,U3,2,INT*%
%TO.N,unconnected-(U3-Pad2)*%
X187166100Y-44500000D03*
%TO.P,U3,3,GND*%
%TO.N,GND*%
X187166100Y-45149986D03*
%TO.P,U3,4,NC*%
%TO.N,unconnected-(U3-Pad4)*%
X188817100Y-45149986D03*
%TO.P,U3,5,VDD*%
%TO.N,/Sensors/VCC*%
X188817100Y-44500000D03*
%TO.P,U3,6,SDA*%
%TO.N,SDA*%
X188817100Y-43850014D03*
%TD*%
D19*
%TO.P,JP4,1,A*%
%TO.N,3V3*%
X103850000Y-51000000D03*
%TO.P,JP4,2,B*%
%TO.N,/VCC_RTC*%
X105150000Y-51000000D03*
%TD*%
D33*
%TO.P,D1,1,K*%
%TO.N,GND*%
X98437500Y-26000000D03*
%TO.P,D1,2,A*%
%TO.N,Net-(D1-Pad2)*%
X96562500Y-26000000D03*
%TD*%
D34*
%TO.P,U5,1,VIN*%
%TO.N,/Sensors/VCC_IN*%
X154312500Y-22550000D03*
%TO.P,U5,2,GND*%
%TO.N,GND*%
X154312500Y-23500000D03*
%TO.P,U5,3,EN*%
%TO.N,/Sensors/VCC_IN*%
X154312500Y-24450000D03*
%TO.P,U5,4,NC*%
%TO.N,unconnected-(U5-Pad4)*%
X156587500Y-24450000D03*
%TO.P,U5,5,VOUT*%
%TO.N,/Sensors/VCC*%
X156587500Y-22550000D03*
%TD*%
D33*
%TO.P,D2,1,K*%
%TO.N,GND*%
X147887500Y-28000000D03*
%TO.P,D2,2,A*%
%TO.N,Net-(D2-Pad2)*%
X146012500Y-28000000D03*
%TD*%
D26*
%TO.P,C5,1*%
%TO.N,/Sensors/VCC*%
X187050000Y-38500000D03*
%TO.P,C5,2*%
%TO.N,GND*%
X188950000Y-38500000D03*
%TD*%
%TO.P,C11,1*%
%TO.N,/Sensors/VCC*%
X173000000Y-46500000D03*
%TO.P,C11,2*%
%TO.N,GND*%
X174900000Y-46500000D03*
%TD*%
D18*
%TO.P,R1,1*%
%TO.N,/RTC_INT*%
X109587500Y-35500000D03*
%TO.P,R1,2*%
%TO.N,/VCC_RTC*%
X111412500Y-35500000D03*
%TD*%
D29*
%TO.P,C9,1*%
%TO.N,/Sensors/VCC*%
X175500000Y-22050000D03*
%TO.P,C9,2*%
%TO.N,GND*%
X175500000Y-23950000D03*
%TD*%
D35*
%TO.N,/RTC_VBAT*%
X118500000Y-22500000D03*
X93500000Y-37000000D03*
%TO.N,GND*%
X113000000Y-40000000D03*
X168500000Y-29000000D03*
X188500000Y-31224500D03*
X88175000Y-35325000D03*
X89500000Y-27000000D03*
X87000000Y-52500000D03*
X152450000Y-23500000D03*
X185500000Y-33024500D03*
X174000000Y-41000000D03*
X130500000Y-48000000D03*
X152450000Y-27000000D03*
X81500000Y-24500000D03*
X107000000Y-28500000D03*
X100000000Y-27000000D03*
X94500000Y-22000000D03*
X68000000Y-49500000D03*
X68000000Y-33000000D03*
X188000000Y-37224500D03*
X185500000Y-47500000D03*
X182000000Y-26000000D03*
X175500000Y-31000000D03*
X176490000Y-50510000D03*
%TO.N,/VCC_RTC*%
X110500000Y-44500000D03*
X109000000Y-40500000D03*
%TO.N,/Sensors/VCC_IN*%
X150500000Y-44500000D03*
X141000000Y-40000000D03*
%TO.N,SCL*%
X165500000Y-34500000D03*
X168000000Y-37000000D03*
%TO.N,SDA*%
X183500000Y-40000000D03*
X181000000Y-40000000D03*
%TO.N,3V3*%
X85500000Y-22000000D03*
X91000000Y-41000000D03*
X83500000Y-39500000D03*
X94500000Y-25000000D03*
X142500000Y-50500000D03*
X102000000Y-53000000D03*
%TO.N,5V*%
X142500000Y-48000000D03*
X81500000Y-43000000D03*
X102000000Y-49500000D03*
X91000000Y-43000000D03*
%TO.N,/CS*%
X71500000Y-30000000D03*
X77500000Y-28000000D03*
%TO.N,/Sensors/VCC*%
X185000000Y-39500000D03*
X154500000Y-40000000D03*
X182000000Y-45500000D03*
X143000000Y-40000000D03*
X154500000Y-36500000D03*
X145500000Y-42500000D03*
X143000000Y-40000000D03*
X183500000Y-33500000D03*
%TO.N,Net-(C2-Pad1)*%
X171000000Y-45024501D03*
X171000000Y-43000000D03*
X171000000Y-45024501D03*
%TD*%
D36*
%TO.N,/RTC_VBAT*%
X97350000Y-36905000D02*
X94595000Y-36905000D01*
X118500000Y-22500000D02*
X118806598Y-22806598D01*
X118806598Y-22806598D02*
X130346000Y-22806598D01*
X94595000Y-36905000D02*
X93595000Y-36905000D01*
X93595000Y-36905000D02*
X93500000Y-37000000D01*
%TO.N,GND*%
X181135000Y-29865000D02*
X182000000Y-29000000D01*
X172000000Y-23950000D02*
X179000000Y-23950000D01*
D37*
X175365000Y-32365000D02*
X175365000Y-31135000D01*
X174000000Y-43500000D02*
X174000000Y-41000000D01*
X189200000Y-32300000D02*
X189200000Y-31700000D01*
X176500000Y-46000000D02*
X176000000Y-46500000D01*
X97350000Y-34365000D02*
X97350000Y-35635000D01*
D38*
X67050000Y-32050000D02*
X68000000Y-33000000D01*
D37*
X187050000Y-47500000D02*
X185500000Y-47500000D01*
D36*
X67050000Y-45390000D02*
X67050000Y-48550000D01*
D37*
X174900000Y-50510000D02*
X176490000Y-50510000D01*
X154312500Y-23500000D02*
X152450000Y-23500000D01*
D36*
X79400000Y-21175000D02*
X80675000Y-21175000D01*
D37*
X188950000Y-40500000D02*
X188950000Y-38500000D01*
X169365000Y-29865000D02*
X168500000Y-29000000D01*
X152450000Y-28000000D02*
X152450000Y-27000000D01*
X111450000Y-38500000D02*
X111500000Y-38500000D01*
X175365000Y-31135000D02*
X175500000Y-31000000D01*
D36*
X94325000Y-22175000D02*
X94500000Y-22000000D01*
D37*
X188724500Y-31224500D02*
X188500000Y-31224500D01*
D36*
X99000000Y-26000000D02*
X100000000Y-27000000D01*
D37*
X175193800Y-44300001D02*
X175300001Y-44300001D01*
D36*
X89560000Y-24575000D02*
X89560000Y-26940000D01*
D38*
X67050000Y-27610000D02*
X67050000Y-32050000D01*
D37*
X176000000Y-46500000D02*
X174900000Y-46500000D01*
X106650000Y-28850000D02*
X107000000Y-28500000D01*
D38*
X130346000Y-52103008D02*
X130346000Y-48154000D01*
D37*
X97350000Y-34365000D02*
X97350000Y-33095000D01*
X188950000Y-38500000D02*
X188950000Y-38174500D01*
X152450000Y-28000000D02*
X147887500Y-28000000D01*
X189200000Y-31700000D02*
X188724500Y-31224500D01*
D36*
X87000000Y-47000000D02*
X87000000Y-52500000D01*
X81500000Y-22000000D02*
X81500000Y-24500000D01*
D37*
X174800001Y-44300001D02*
X174000000Y-43500000D01*
D36*
X98437500Y-26000000D02*
X99000000Y-26000000D01*
D37*
X106650000Y-33095000D02*
X106650000Y-31825000D01*
X97350000Y-31825000D02*
X97350000Y-30555000D01*
X172806200Y-43500000D02*
X174000000Y-43500000D01*
X154500000Y-28000000D02*
X154500000Y-30000000D01*
D36*
X182000000Y-26950000D02*
X182000000Y-26000000D01*
D37*
X97350000Y-29650000D02*
X100000000Y-27000000D01*
D36*
X85250000Y-35325000D02*
X90950000Y-35325000D01*
D37*
X171365000Y-29865000D02*
X169365000Y-29865000D01*
X111500000Y-38500000D02*
X113000000Y-40000000D01*
D38*
X130346000Y-48154000D02*
X130500000Y-48000000D01*
D37*
X188950000Y-38174500D02*
X188000000Y-37224500D01*
X176500000Y-45500000D02*
X176500000Y-46000000D01*
D36*
X179365000Y-29865000D02*
X181135000Y-29865000D01*
X92550000Y-22175000D02*
X94325000Y-22175000D01*
D37*
X175193800Y-44300001D02*
X174800001Y-44300001D01*
X154500000Y-28000000D02*
X152450000Y-28000000D01*
D36*
X182000000Y-29000000D02*
X182000000Y-26950000D01*
D37*
X106650000Y-34365000D02*
X106650000Y-33095000D01*
D36*
X89560000Y-26940000D02*
X89500000Y-27000000D01*
D37*
X187050000Y-45266086D02*
X187166100Y-45149986D01*
X185575500Y-33100000D02*
X185500000Y-33024500D01*
X97350000Y-30555000D02*
X97350000Y-29650000D01*
D36*
X67050000Y-48550000D02*
X68000000Y-49500000D01*
D37*
X186800000Y-33100000D02*
X185575500Y-33100000D01*
X175300001Y-44300001D02*
X176500000Y-45500000D01*
X106650000Y-30555000D02*
X106650000Y-28850000D01*
X187050000Y-47500000D02*
X187050000Y-45266086D01*
D36*
X182000000Y-26950000D02*
X179000000Y-23950000D01*
X80675000Y-21175000D02*
X81500000Y-22000000D01*
D37*
X97350000Y-33095000D02*
X97350000Y-31825000D01*
X106650000Y-31825000D02*
X106650000Y-30555000D01*
D36*
%TO.N,/VCC_RTC*%
X112500000Y-35500000D02*
X113500000Y-34500000D01*
X109000000Y-39050000D02*
X109550000Y-38500000D01*
X113500000Y-34500000D02*
X113500000Y-28000000D01*
X106650000Y-38175000D02*
X109225000Y-38175000D01*
X110500000Y-47500000D02*
X110500000Y-44500000D01*
X113500000Y-28000000D02*
X109500000Y-24000000D01*
X109225000Y-38175000D02*
X109550000Y-38500000D01*
X111412500Y-36087500D02*
X111412500Y-35500000D01*
X108350000Y-49650000D02*
X110500000Y-47500000D01*
X109000000Y-40500000D02*
X109000000Y-39050000D01*
X105150000Y-48500000D02*
X105150000Y-49650000D01*
X105150000Y-49650000D02*
X108350000Y-49650000D01*
X109550000Y-37950000D02*
X111412500Y-36087500D01*
X111412500Y-35500000D02*
X112500000Y-35500000D01*
X109550000Y-38500000D02*
X109550000Y-37950000D01*
X105150000Y-49650000D02*
X105150000Y-51000000D01*
X109500000Y-24000000D02*
X98412500Y-24000000D01*
%TO.N,/Sensors/VCC_IN*%
X150900000Y-24450000D02*
X154312500Y-24450000D01*
X141000000Y-29000000D02*
X141000000Y-40000000D01*
X154312500Y-24862500D02*
X155475000Y-26025000D01*
X148150000Y-45500000D02*
X149500000Y-45500000D01*
X156400000Y-26950000D02*
X156400000Y-28000000D01*
X149950000Y-23500000D02*
X150900000Y-22550000D01*
X143975000Y-26025000D02*
X141000000Y-29000000D01*
X155475000Y-26025000D02*
X143975000Y-26025000D01*
X150900000Y-22550000D02*
X154312500Y-22550000D01*
X155475000Y-26025000D02*
X156400000Y-26950000D01*
X154312500Y-24450000D02*
X154312500Y-24862500D01*
X149500000Y-45500000D02*
X150500000Y-44500000D01*
X148150000Y-50500000D02*
X148150000Y-48000000D01*
X148150000Y-48000000D02*
X148150000Y-45500000D01*
X149950000Y-23500000D02*
X150900000Y-24450000D01*
%TO.N,Net-(D1-Pad2)*%
X96587500Y-25975000D02*
X96562500Y-26000000D01*
X96587500Y-24000000D02*
X96587500Y-25975000D01*
%TO.N,Net-(D2-Pad2)*%
X146012500Y-29975000D02*
X146037500Y-30000000D01*
X146012500Y-28000000D02*
X146012500Y-29975000D01*
D37*
%TO.N,SCL*%
X101675000Y-38175000D02*
X105000000Y-41500000D01*
X105000000Y-41500000D02*
X143000000Y-41500000D01*
X165500000Y-34500000D02*
X162000000Y-34500000D01*
X169385000Y-33615000D02*
X171365000Y-33615000D01*
X182500000Y-42000000D02*
X182500000Y-39000000D01*
X182500000Y-39000000D02*
X170000000Y-39000000D01*
X149087500Y-34912500D02*
X149087500Y-36500000D01*
X89775000Y-38175000D02*
X83000000Y-44950000D01*
X97350000Y-38175000D02*
X101675000Y-38175000D01*
X189500000Y-36000000D02*
X185500000Y-36000000D01*
X189700000Y-34700000D02*
X190000000Y-35000000D01*
X190000000Y-35000000D02*
X190000000Y-35500000D01*
X175193800Y-42699999D02*
X181800001Y-42699999D01*
X189200000Y-34700000D02*
X189700000Y-34700000D01*
X162000000Y-34500000D02*
X149500000Y-34500000D01*
X149500000Y-34500000D02*
X149087500Y-34912500D01*
X185500000Y-36000000D02*
X182500000Y-39000000D01*
X184350014Y-43850014D02*
X182500000Y-42000000D01*
X148000000Y-36500000D02*
X149087500Y-36500000D01*
X170000000Y-39000000D02*
X168000000Y-37000000D01*
X168500000Y-34500000D02*
X169385000Y-33615000D01*
X168500000Y-34500000D02*
X165500000Y-34500000D01*
X64510000Y-45390000D02*
X64510000Y-49510000D01*
X83000000Y-50000000D02*
X83000000Y-47000000D01*
X81000000Y-52000000D02*
X83000000Y-50000000D01*
X190000000Y-35500000D02*
X189500000Y-36000000D01*
X143000000Y-41500000D02*
X148000000Y-36500000D01*
X64510000Y-49510000D02*
X67000000Y-52000000D01*
X67000000Y-52000000D02*
X81000000Y-52000000D01*
X187166100Y-43850014D02*
X184350014Y-43850014D01*
X89775000Y-38175000D02*
X97350000Y-38175000D01*
X181800001Y-42699999D02*
X182500000Y-42000000D01*
%TO.N,SDA*%
X181000000Y-40000000D02*
X164500000Y-40000000D01*
X190400000Y-33900000D02*
X189200000Y-33900000D01*
X85000000Y-44950000D02*
X90505000Y-39445000D01*
X97350000Y-39445000D02*
X90505000Y-39445000D01*
X61970000Y-45390000D02*
X61970000Y-49470000D01*
X169635000Y-34865000D02*
X171365000Y-34865000D01*
X105000000Y-43000000D02*
X101445000Y-39445000D01*
X190000000Y-42500000D02*
X185500000Y-42500000D01*
X191000000Y-36000000D02*
X191000000Y-34500000D01*
X65500000Y-53000000D02*
X84000000Y-53000000D01*
X149087500Y-40000000D02*
X146000000Y-40000000D01*
X185500000Y-42500000D02*
X183500000Y-40500000D01*
X190500000Y-43000000D02*
X190000000Y-42500000D01*
X85000000Y-52000000D02*
X85000000Y-47000000D01*
X143000000Y-43000000D02*
X146000000Y-40000000D01*
X149087500Y-40000000D02*
X149087500Y-39412500D01*
X101445000Y-39445000D02*
X97350000Y-39445000D01*
X190500000Y-36500000D02*
X191000000Y-36000000D01*
X186000000Y-36500000D02*
X190500000Y-36500000D01*
X183500000Y-39000000D02*
X186000000Y-36500000D01*
X150000000Y-38500000D02*
X163000000Y-38500000D01*
X172806200Y-44300001D02*
X168800001Y-44300001D01*
X149087500Y-39412500D02*
X150000000Y-38500000D01*
X188817100Y-43850014D02*
X190149986Y-43850014D01*
X168800001Y-44300001D02*
X164500000Y-40000000D01*
X190149986Y-43850014D02*
X190500000Y-43500000D01*
X190500000Y-43500000D02*
X190500000Y-43000000D01*
X84000000Y-53000000D02*
X85000000Y-52000000D01*
X165500000Y-36000000D02*
X168500000Y-36000000D01*
X61970000Y-49470000D02*
X65500000Y-53000000D01*
X191000000Y-34500000D02*
X190400000Y-33900000D01*
X163000000Y-38500000D02*
X165500000Y-36000000D01*
X168500000Y-36000000D02*
X169635000Y-34865000D01*
X143000000Y-43000000D02*
X105000000Y-43000000D01*
X183500000Y-40500000D02*
X183500000Y-39000000D01*
X164500000Y-40000000D02*
X163000000Y-38500000D01*
D36*
%TO.N,3V3*%
X94000000Y-32539084D02*
X94000000Y-27015000D01*
X89000000Y-47000000D02*
X89000000Y-52000000D01*
X56500000Y-34500000D02*
X64000000Y-42000000D01*
X36500000Y-34500000D02*
X56500000Y-34500000D01*
X87360000Y-23360000D02*
X87360000Y-24575000D01*
X81500000Y-37500000D02*
X83500000Y-39500000D01*
X81500000Y-37500000D02*
X81500000Y-35000000D01*
X83075000Y-33425000D02*
X93114084Y-33425000D01*
X84060000Y-23440000D02*
X84060000Y-24775000D01*
X81500000Y-35000000D02*
X83075000Y-33425000D01*
X89000000Y-43000000D02*
X89000000Y-47000000D01*
X34000000Y-27640000D02*
X34000000Y-32000000D01*
X77000000Y-42000000D02*
X81500000Y-37500000D01*
X85500000Y-22000000D02*
X84060000Y-23440000D01*
X34000000Y-32000000D02*
X36500000Y-34500000D01*
X102000000Y-51000000D02*
X103850000Y-51000000D01*
X34030000Y-27610000D02*
X34000000Y-27640000D01*
X94000000Y-27015000D02*
X94000000Y-25500000D01*
X94000000Y-25500000D02*
X94500000Y-25000000D01*
X85500000Y-22000000D02*
X86000000Y-22000000D01*
X101000000Y-52000000D02*
X102000000Y-51000000D01*
X86000000Y-22000000D02*
X87360000Y-23360000D01*
X93114084Y-33425000D02*
X94000000Y-32539084D01*
X142500000Y-50500000D02*
X146850000Y-50500000D01*
X94000000Y-27015000D02*
X91760000Y-24775000D01*
X64000000Y-42000000D02*
X77000000Y-42000000D01*
X89000000Y-52000000D02*
X101000000Y-52000000D01*
X91000000Y-41000000D02*
X89000000Y-43000000D01*
X101000000Y-52000000D02*
X102000000Y-53000000D01*
%TO.N,5V*%
X101000000Y-48500000D02*
X103850000Y-48500000D01*
X26410000Y-27610000D02*
X26410000Y-29410000D01*
X62500000Y-43000000D02*
X81500000Y-43000000D01*
X26410000Y-29410000D02*
X28500000Y-31500000D01*
X37500000Y-37500000D02*
X57000000Y-37500000D01*
X92500000Y-45500000D02*
X95000000Y-45500000D01*
X98000000Y-48500000D02*
X101000000Y-48500000D01*
X57000000Y-37500000D02*
X62500000Y-43000000D01*
X142500000Y-48000000D02*
X146850000Y-48000000D01*
X31500000Y-31500000D02*
X37500000Y-37500000D01*
X95000000Y-45500000D02*
X98000000Y-48500000D01*
X101000000Y-48500000D02*
X102000000Y-49500000D01*
X91000000Y-47000000D02*
X92500000Y-45500000D01*
X28500000Y-31500000D02*
X31500000Y-31500000D01*
X91000000Y-43000000D02*
X91000000Y-47000000D01*
D37*
%TO.N,/CS*%
X69590000Y-29590000D02*
X69590000Y-27610000D01*
X85160000Y-25725000D02*
X82885000Y-28000000D01*
X82885000Y-28000000D02*
X77500000Y-28000000D01*
X70000000Y-30000000D02*
X69590000Y-29590000D01*
X71500000Y-30000000D02*
X70000000Y-30000000D01*
X85160000Y-25175000D02*
X85160000Y-25725000D01*
%TO.N,/SPI_TX*%
X61970000Y-24030000D02*
X64000000Y-22000000D01*
X74000000Y-22000000D02*
X76000000Y-24000000D01*
X76000000Y-28500000D02*
X77000000Y-29500000D01*
X85000000Y-29500000D02*
X86260000Y-28240000D01*
X86260000Y-28240000D02*
X86260000Y-24775000D01*
X64000000Y-22000000D02*
X74000000Y-22000000D01*
X77000000Y-29500000D02*
X85000000Y-29500000D01*
X61970000Y-27610000D02*
X61970000Y-24030000D01*
X76000000Y-24000000D02*
X76000000Y-28500000D01*
%TO.N,/SCK*%
X88000000Y-30000000D02*
X75500000Y-30000000D01*
X88460000Y-24775000D02*
X88460000Y-25525000D01*
X75000000Y-29500000D02*
X75000000Y-24363604D01*
X88500000Y-25565000D02*
X88500000Y-29500000D01*
X64510000Y-24490000D02*
X64510000Y-27610000D01*
X75000000Y-24363604D02*
X73636396Y-23000000D01*
X88460000Y-25525000D02*
X88500000Y-25565000D01*
X73636396Y-23000000D02*
X66000000Y-23000000D01*
X88500000Y-29500000D02*
X88000000Y-30000000D01*
X66000000Y-23000000D02*
X64510000Y-24490000D01*
X75500000Y-30000000D02*
X75000000Y-29500000D01*
%TO.N,/SPI_RX*%
X74000000Y-29500000D02*
X74000000Y-24000000D01*
X90025350Y-30974650D02*
X75474650Y-30974650D01*
X73500000Y-23500000D02*
X72500000Y-23500000D01*
X90660000Y-30340000D02*
X90025350Y-30974650D01*
X90660000Y-24775000D02*
X90660000Y-30340000D01*
X75474650Y-30974650D02*
X74000000Y-29500000D01*
X74000000Y-24000000D02*
X73500000Y-23500000D01*
X72130000Y-23870000D02*
X72130000Y-27610000D01*
X72500000Y-23500000D02*
X72130000Y-23870000D01*
%TO.N,/RTC_INT*%
X108182500Y-36905000D02*
X109587500Y-35500000D01*
X106650000Y-36905000D02*
X108182500Y-36905000D01*
D36*
%TO.N,/Sensors/VCC*%
X166000000Y-24500000D02*
X168450000Y-22050000D01*
X146850000Y-45500000D02*
X146850000Y-43850000D01*
X166000000Y-29500000D02*
X166000000Y-26000000D01*
X186000000Y-38500000D02*
X187050000Y-38500000D01*
X158500000Y-22550000D02*
X161950000Y-26000000D01*
X183500000Y-24000000D02*
X183500000Y-32000000D01*
X150950000Y-32050000D02*
X150950000Y-32000000D01*
D37*
X191000000Y-44500000D02*
X191000000Y-42500000D01*
X190500000Y-33000000D02*
X191500000Y-32000000D01*
X184700000Y-34700000D02*
X183500000Y-33500000D01*
D36*
X155950000Y-32000000D02*
X156400000Y-31550000D01*
X179365000Y-31115000D02*
X182615000Y-31115000D01*
D37*
X174862500Y-48510000D02*
X178990000Y-48510000D01*
X191500000Y-32000000D02*
X191500000Y-31000000D01*
X178990000Y-48510000D02*
X182000000Y-45500000D01*
X188950000Y-47500000D02*
X190500000Y-45950000D01*
X191000000Y-42500000D02*
X190500000Y-42000000D01*
X186500000Y-30500000D02*
X184700000Y-32300000D01*
X186800000Y-34700000D02*
X184700000Y-34700000D01*
D36*
X171365000Y-31115000D02*
X167615000Y-31115000D01*
X167615000Y-31115000D02*
X166000000Y-29500000D01*
D37*
X191500000Y-31000000D02*
X191000000Y-30500000D01*
X187000000Y-40550000D02*
X187050000Y-40500000D01*
D36*
X183500000Y-32000000D02*
X183500000Y-33500000D01*
D37*
X188817100Y-44500000D02*
X190000000Y-44500000D01*
X180000000Y-43500000D02*
X175193800Y-43500000D01*
X191000000Y-30500000D02*
X186500000Y-30500000D01*
D36*
X182615000Y-31115000D02*
X183500000Y-32000000D01*
D37*
X190500000Y-45000000D02*
X191000000Y-44500000D01*
D36*
X146850000Y-43850000D02*
X145500000Y-42500000D01*
X172000000Y-22050000D02*
X179000000Y-22050000D01*
D37*
X189750000Y-33000000D02*
X190500000Y-33000000D01*
X183900000Y-33900000D02*
X183500000Y-33500000D01*
D36*
X154500000Y-36500000D02*
X150912500Y-36500000D01*
D37*
X186800000Y-32300000D02*
X184700000Y-32300000D01*
D36*
X186000000Y-40500000D02*
X187050000Y-40500000D01*
X161950000Y-26000000D02*
X161950000Y-28500000D01*
X150950000Y-32000000D02*
X155950000Y-32000000D01*
X161950000Y-26000000D02*
X166000000Y-26000000D01*
D37*
X187000000Y-42000000D02*
X187000000Y-40550000D01*
D36*
X181550000Y-22050000D02*
X183500000Y-24000000D01*
X168450000Y-22050000D02*
X172000000Y-22050000D01*
D37*
X190000000Y-44500000D02*
X190500000Y-45000000D01*
X190500000Y-45000000D02*
X190500000Y-45950000D01*
X182000000Y-45500000D02*
X180000000Y-43500000D01*
X174862500Y-48510000D02*
X174862500Y-48362500D01*
D36*
X148950000Y-30000000D02*
X150950000Y-32000000D01*
X185000000Y-39500000D02*
X186000000Y-38500000D01*
X166000000Y-26000000D02*
X166000000Y-24500000D01*
X179000000Y-22050000D02*
X181550000Y-22050000D01*
X156400000Y-31550000D02*
X156400000Y-30000000D01*
X161950000Y-28500000D02*
X160450000Y-30000000D01*
D37*
X189650000Y-33100000D02*
X189750000Y-33000000D01*
D36*
X160450000Y-30000000D02*
X156400000Y-30000000D01*
D37*
X184700000Y-32300000D02*
X183500000Y-33500000D01*
X174862500Y-48362500D02*
X173000000Y-46500000D01*
X190500000Y-42000000D02*
X187000000Y-42000000D01*
D36*
X185000000Y-39500000D02*
X186000000Y-40500000D01*
X143000000Y-40000000D02*
X150950000Y-32050000D01*
X154500000Y-40000000D02*
X150912500Y-40000000D01*
X156587500Y-22550000D02*
X158500000Y-22550000D01*
D37*
X186800000Y-33900000D02*
X183900000Y-33900000D01*
D36*
X147862500Y-30000000D02*
X148950000Y-30000000D01*
D37*
X189200000Y-33100000D02*
X189650000Y-33100000D01*
%TO.N,Net-(C2-Pad1)*%
X172806200Y-42699999D02*
X171300001Y-42699999D01*
X171300001Y-42699999D02*
X171000000Y-43000000D01*
X173000000Y-50510000D02*
X172756200Y-50753800D01*
X173000000Y-48547500D02*
X173037500Y-48510000D01*
X171500000Y-48500000D02*
X171000000Y-48000000D01*
X173027500Y-48500000D02*
X171500000Y-48500000D01*
X173037500Y-48510000D02*
X173027500Y-48500000D01*
X173000000Y-50510000D02*
X173000000Y-48547500D01*
X171000000Y-48000000D02*
X171000000Y-45024501D01*
%TD*%
M02*
